%TF.GenerationSoftware,KiCad,Pcbnew,9.0.0*%
%TF.CreationDate,2025-03-04T19:19:51+01:00*%
%TF.ProjectId,ProgrammingBoard,50726f67-7261-46d6-9d69-6e67426f6172,rev?*%
%TF.SameCoordinates,Original*%
%TF.FileFunction,Copper,L2,Bot*%
%TF.FilePolarity,Positive*%
%FSLAX46Y46*%
G04 Gerber Fmt 4.6, Leading zero omitted, Abs format (unit mm)*
G04 Created by KiCad (PCBNEW 9.0.0) date 2025-03-04 19:19:51*
%MOMM*%
%LPD*%
G01*
G04 APERTURE LIST*
%TA.AperFunction,ComponentPad*%
%ADD10R,1.130000X1.130000*%
%TD*%
%TA.AperFunction,ComponentPad*%
%ADD11C,1.130000*%
%TD*%
%TA.AperFunction,ComponentPad*%
%ADD12C,1.400000*%
%TD*%
%TA.AperFunction,ComponentPad*%
%ADD13O,1.400000X1.400000*%
%TD*%
%TA.AperFunction,ComponentPad*%
%ADD14R,1.700000X1.700000*%
%TD*%
%TA.AperFunction,ComponentPad*%
%ADD15O,1.700000X1.700000*%
%TD*%
%TA.AperFunction,Conductor*%
%ADD16C,0.600000*%
%TD*%
G04 APERTURE END LIST*
D10*
%TO.P,U1,1*%
%TO.N,Net-(J2-Pin_2)*%
X172060000Y-105880000D03*
D11*
%TO.P,U1,2,-*%
%TO.N,Net-(U1A--)*%
X172060000Y-108420000D03*
%TO.P,U1,3,+*%
%TO.N,Analog OUT*%
X172060000Y-110960000D03*
%TO.P,U1,4,V-*%
%TO.N,GND*%
X172060000Y-113500000D03*
%TO.P,U1,5*%
%TO.N,N/C*%
X180000000Y-113500000D03*
%TO.P,U1,6*%
X180000000Y-110960000D03*
%TO.P,U1,7*%
X180000000Y-108420000D03*
%TO.P,U1,8,V+*%
%TO.N,Net-(J1-Pin_2)*%
X180000000Y-105880000D03*
%TD*%
D12*
%TO.P,R2,1*%
%TO.N,Net-(J2-Pin_2)*%
X165030000Y-105690000D03*
D13*
%TO.P,R2,2*%
%TO.N,Net-(U1A--)*%
X159950000Y-105690000D03*
%TD*%
D12*
%TO.P,R1,1*%
%TO.N,Net-(U1A--)*%
X160030000Y-108190000D03*
D13*
%TO.P,R1,2*%
%TO.N,GND*%
X160030000Y-113270000D03*
%TD*%
D14*
%TO.P,J6,1,Pin_1*%
%TO.N,unconnected-(J6-Pin_1-Pad1)*%
X153010000Y-86940000D03*
D15*
%TO.P,J6,2,Pin_2*%
%TO.N,unconnected-(J6-Pin_2-Pad2)*%
X153010000Y-89480000D03*
%TO.P,J6,3,Pin_3*%
%TO.N,unconnected-(J6-Pin_3-Pad3)*%
X153010000Y-92020000D03*
%TO.P,J6,4,Pin_4*%
%TO.N,unconnected-(J6-Pin_4-Pad4)*%
X153010000Y-94560000D03*
%TO.P,J6,5,Pin_5*%
%TO.N,unconnected-(J6-Pin_5-Pad5)*%
X153010000Y-97100000D03*
%TO.P,J6,6,Pin_6*%
%TO.N,GND*%
X153010000Y-99640000D03*
%TO.P,J6,7,Pin_7*%
X153010000Y-102180000D03*
%TO.P,J6,8,Pin_8*%
%TO.N,unconnected-(J6-Pin_8-Pad8)*%
X153010000Y-104720000D03*
%TD*%
D14*
%TO.P,J5,1,Pin_1*%
%TO.N,unconnected-(J5-Pin_1-Pad1)*%
X153000000Y-109800000D03*
D15*
%TO.P,J5,2,Pin_2*%
%TO.N,unconnected-(J5-Pin_2-Pad2)*%
X153000000Y-112340000D03*
%TO.P,J5,3,Pin_3*%
%TO.N,Analog OUT*%
X153000000Y-114880000D03*
%TO.P,J5,4,Pin_4*%
%TO.N,unconnected-(J5-Pin_4-Pad4)*%
X153000000Y-117420000D03*
%TO.P,J5,5,Pin_5*%
%TO.N,unconnected-(J5-Pin_5-Pad5)*%
X153000000Y-119960000D03*
%TO.P,J5,6,Pin_6*%
%TO.N,unconnected-(J5-Pin_6-Pad6)*%
X153000000Y-122500000D03*
%TD*%
D14*
%TO.P,J4,1,Pin_1*%
%TO.N,unconnected-(J4-Pin_1-Pad1)*%
X201270000Y-101640000D03*
D15*
%TO.P,J4,2,Pin_2*%
%TO.N,unconnected-(J4-Pin_2-Pad2)*%
X201270000Y-99100000D03*
%TO.P,J4,3,Pin_3*%
%TO.N,unconnected-(J4-Pin_3-Pad3)*%
X201270000Y-96560000D03*
%TO.P,J4,4,Pin_4*%
%TO.N,unconnected-(J4-Pin_4-Pad4)*%
X201270000Y-94020000D03*
%TO.P,J4,5,Pin_5*%
%TO.N,unconnected-(J4-Pin_5-Pad5)*%
X201270000Y-91480000D03*
%TO.P,J4,6,Pin_6*%
%TO.N,unconnected-(J4-Pin_6-Pad6)*%
X201270000Y-88940000D03*
%TO.P,J4,7,Pin_7*%
%TO.N,unconnected-(J4-Pin_7-Pad7)*%
X201270000Y-86400000D03*
%TO.P,J4,8,Pin_8*%
%TO.N,unconnected-(J4-Pin_8-Pad8)*%
X201270000Y-83860000D03*
%TO.P,J4,9,Pin_9*%
%TO.N,unconnected-(J4-Pin_9-Pad9)*%
X201270000Y-81320000D03*
%TO.P,J4,10,Pin_10*%
%TO.N,unconnected-(J4-Pin_10-Pad10)*%
X201270000Y-78780000D03*
%TD*%
D14*
%TO.P,J3,1,Pin_1*%
%TO.N,unconnected-(J3-Pin_1-Pad1)*%
X201260000Y-123480000D03*
D15*
%TO.P,J3,2,Pin_2*%
%TO.N,unconnected-(J3-Pin_2-Pad2)*%
X201260000Y-120940000D03*
%TO.P,J3,3,Pin_3*%
%TO.N,unconnected-(J3-Pin_3-Pad3)*%
X201260000Y-118400000D03*
%TO.P,J3,4,Pin_4*%
%TO.N,unconnected-(J3-Pin_4-Pad4)*%
X201260000Y-115860000D03*
%TO.P,J3,5,Pin_5*%
%TO.N,unconnected-(J3-Pin_5-Pad5)*%
X201260000Y-113320000D03*
%TO.P,J3,6,Pin_6*%
%TO.N,unconnected-(J3-Pin_6-Pad6)*%
X201260000Y-110780000D03*
%TO.P,J3,7,Pin_7*%
%TO.N,unconnected-(J3-Pin_7-Pad7)*%
X201260000Y-108240000D03*
%TO.P,J3,8,Pin_8*%
%TO.N,unconnected-(J3-Pin_8-Pad8)*%
X201260000Y-105700000D03*
%TD*%
D14*
%TO.P,J2,1,Pin_1*%
%TO.N,GND*%
X169000000Y-131000000D03*
D15*
%TO.P,J2,2,Pin_2*%
%TO.N,Net-(J2-Pin_2)*%
X166460000Y-131000000D03*
%TD*%
D14*
%TO.P,J1,1,Pin_1*%
%TO.N,GND*%
X185000000Y-131000000D03*
D15*
%TO.P,J1,2,Pin_2*%
%TO.N,Net-(J1-Pin_2)*%
X187540000Y-131000000D03*
%TD*%
D16*
%TO.N,Net-(J2-Pin_2)*%
X165030000Y-129570000D02*
X166460000Y-131000000D01*
X165030000Y-105690000D02*
X171870000Y-105690000D01*
X165030000Y-105690000D02*
X165030000Y-129570000D01*
%TO.N,Net-(U1A--)*%
X160030000Y-108190000D02*
X164220000Y-104000000D01*
X173526000Y-104414000D02*
X173526000Y-106954000D01*
X173526000Y-106954000D02*
X172060000Y-108420000D01*
X164220000Y-104000000D02*
X173112000Y-104000000D01*
X160030000Y-108190000D02*
X160030000Y-105770000D01*
X173112000Y-104000000D02*
X173526000Y-104414000D01*
%TO.N,Analog OUT*%
X174727000Y-108293000D02*
X174727000Y-103916530D01*
X172060000Y-110960000D02*
X174727000Y-108293000D01*
X174727000Y-103916530D02*
X173609470Y-102799000D01*
X158349000Y-109531000D02*
X153000000Y-114880000D01*
X160576844Y-102799000D02*
X158349000Y-105026844D01*
X173609470Y-102799000D02*
X160576844Y-102799000D01*
%TO.N,Net-(J1-Pin_2)*%
X180000000Y-105880000D02*
X187540000Y-113420000D01*
%TO.N,Analog OUT*%
X158349000Y-105026844D02*
X158349000Y-109531000D01*
%TO.N,Net-(J1-Pin_2)*%
X187540000Y-113420000D02*
X187540000Y-131000000D01*
%TO.N,Net-(J2-Pin_2)*%
X171870000Y-105690000D02*
X172060000Y-105880000D01*
%TO.N,Net-(U1A--)*%
X160030000Y-105770000D02*
X159950000Y-105690000D01*
%TD*%
%TA.AperFunction,Conductor*%
%TO.N,GND*%
G36*
X153260000Y-101746988D02*
G01*
X153202993Y-101714075D01*
X153075826Y-101680000D01*
X152944174Y-101680000D01*
X152817007Y-101714075D01*
X152760000Y-101746988D01*
X152760000Y-100073012D01*
X152817007Y-100105925D01*
X152944174Y-100140000D01*
X153075826Y-100140000D01*
X153202993Y-100105925D01*
X153260000Y-100073012D01*
X153260000Y-101746988D01*
G37*
%TD.AperFunction*%
%TA.AperFunction,Conductor*%
G36*
X204842539Y-75120185D02*
G01*
X204888294Y-75172989D01*
X204899500Y-75224500D01*
X204899500Y-134275500D01*
X204879815Y-134342539D01*
X204827011Y-134388294D01*
X204775500Y-134399500D01*
X149224500Y-134399500D01*
X149157461Y-134379815D01*
X149111706Y-134327011D01*
X149100500Y-134275500D01*
X149100500Y-108910645D01*
X151549500Y-108910645D01*
X151549500Y-110689363D01*
X151564953Y-110806753D01*
X151564956Y-110806762D01*
X151625464Y-110952841D01*
X151721718Y-111078282D01*
X151847159Y-111174536D01*
X151847160Y-111174536D01*
X151847161Y-111174537D01*
X151864495Y-111181717D01*
X151918899Y-111225558D01*
X151940964Y-111291852D01*
X151923685Y-111359551D01*
X151904727Y-111383956D01*
X151893622Y-111395061D01*
X151759421Y-111579771D01*
X151655770Y-111783196D01*
X151585215Y-112000339D01*
X151549500Y-112225837D01*
X151549500Y-112454162D01*
X151585215Y-112679660D01*
X151655770Y-112896803D01*
X151759421Y-113100228D01*
X151893621Y-113284937D01*
X152055063Y-113446379D01*
X152055069Y-113446383D01*
X152142191Y-113509683D01*
X152184857Y-113565013D01*
X152190835Y-113634627D01*
X152158228Y-113696421D01*
X152142191Y-113710317D01*
X152055069Y-113773616D01*
X152055060Y-113773623D01*
X151893622Y-113935061D01*
X151759421Y-114119771D01*
X151655770Y-114323196D01*
X151585215Y-114540339D01*
X151549500Y-114765837D01*
X151549500Y-114994162D01*
X151585215Y-115219660D01*
X151655770Y-115436803D01*
X151698335Y-115520340D01*
X151759421Y-115640228D01*
X151893621Y-115824937D01*
X152055063Y-115986379D01*
X152055069Y-115986383D01*
X152142191Y-116049683D01*
X152184857Y-116105013D01*
X152190835Y-116174627D01*
X152158228Y-116236421D01*
X152142191Y-116250317D01*
X152055069Y-116313616D01*
X152055060Y-116313623D01*
X151893622Y-116475061D01*
X151759421Y-116659771D01*
X151655770Y-116863196D01*
X151585215Y-117080339D01*
X151549500Y-117305837D01*
X151549500Y-117534162D01*
X151585215Y-117759660D01*
X151655770Y-117976803D01*
X151698335Y-118060340D01*
X151759421Y-118180228D01*
X151893621Y-118364937D01*
X152055063Y-118526379D01*
X152055069Y-118526383D01*
X152142191Y-118589683D01*
X152184857Y-118645013D01*
X152190835Y-118714627D01*
X152158228Y-118776421D01*
X152142191Y-118790317D01*
X152055069Y-118853616D01*
X152055060Y-118853623D01*
X151893622Y-119015061D01*
X151759421Y-119199771D01*
X151655770Y-119403196D01*
X151585215Y-119620339D01*
X151549500Y-119845837D01*
X151549500Y-120074162D01*
X151585215Y-120299660D01*
X151655770Y-120516803D01*
X151698335Y-120600340D01*
X151759421Y-120720228D01*
X151893621Y-120904937D01*
X152055063Y-121066379D01*
X152055069Y-121066383D01*
X152142191Y-121129683D01*
X152184857Y-121185013D01*
X152190835Y-121254627D01*
X152158228Y-121316421D01*
X152142191Y-121330317D01*
X152055069Y-121393616D01*
X152055060Y-121393623D01*
X151893622Y-121555061D01*
X151759421Y-121739771D01*
X151655770Y-121943196D01*
X151585215Y-122160339D01*
X151549500Y-122385837D01*
X151549500Y-122614162D01*
X151585215Y-122839660D01*
X151655770Y-123056803D01*
X151759421Y-123260228D01*
X151893621Y-123444937D01*
X152055063Y-123606379D01*
X152239772Y-123740579D01*
X152335884Y-123789550D01*
X152443196Y-123844229D01*
X152443198Y-123844229D01*
X152443201Y-123844231D01*
X152559592Y-123882049D01*
X152660339Y-123914784D01*
X152885838Y-123950500D01*
X152885843Y-123950500D01*
X153114162Y-123950500D01*
X153339660Y-123914784D01*
X153556799Y-123844231D01*
X153760228Y-123740579D01*
X153944937Y-123606379D01*
X154106379Y-123444937D01*
X154240579Y-123260228D01*
X154344231Y-123056799D01*
X154414784Y-122839660D01*
X154450500Y-122614162D01*
X154450500Y-122385837D01*
X154414784Y-122160339D01*
X154371477Y-122027055D01*
X154344231Y-121943201D01*
X154344229Y-121943198D01*
X154344229Y-121943196D01*
X154240578Y-121739771D01*
X154211848Y-121700228D01*
X154106379Y-121555063D01*
X153944937Y-121393621D01*
X153857807Y-121330317D01*
X153815143Y-121274988D01*
X153809164Y-121205374D01*
X153841770Y-121143579D01*
X153857807Y-121129683D01*
X153944937Y-121066379D01*
X154106379Y-120904937D01*
X154240579Y-120720228D01*
X154344231Y-120516799D01*
X154414784Y-120299660D01*
X154450500Y-120074162D01*
X154450500Y-119845837D01*
X154414784Y-119620339D01*
X154344229Y-119403196D01*
X154240578Y-119199771D01*
X154211848Y-119160228D01*
X154106379Y-119015063D01*
X153944937Y-118853621D01*
X153857807Y-118790317D01*
X153815143Y-118734988D01*
X153809164Y-118665374D01*
X153841770Y-118603579D01*
X153857807Y-118589683D01*
X153944937Y-118526379D01*
X154106379Y-118364937D01*
X154240579Y-118180228D01*
X154344231Y-117976799D01*
X154414784Y-117759660D01*
X154450500Y-117534162D01*
X154450500Y-117305837D01*
X154414784Y-117080339D01*
X154344229Y-116863196D01*
X154240578Y-116659771D01*
X154211848Y-116620228D01*
X154106379Y-116475063D01*
X153944937Y-116313621D01*
X153857807Y-116250317D01*
X153815143Y-116194988D01*
X153809164Y-116125374D01*
X153841770Y-116063579D01*
X153857807Y-116049683D01*
X153944937Y-115986379D01*
X154106379Y-115824937D01*
X154240579Y-115640228D01*
X154344231Y-115436799D01*
X154414784Y-115219660D01*
X154450500Y-114994162D01*
X154450500Y-114765854D01*
X154450500Y-114765843D01*
X154450498Y-114765832D01*
X154450400Y-114764586D01*
X154450500Y-114764109D01*
X154450500Y-114760971D01*
X154451159Y-114760971D01*
X154464756Y-114696207D01*
X154486333Y-114667165D01*
X155633498Y-113520000D01*
X158854638Y-113520000D01*
X158859548Y-113551002D01*
X158917914Y-113730637D01*
X159003670Y-113898940D01*
X159114685Y-114051741D01*
X159114689Y-114051746D01*
X159248253Y-114185310D01*
X159248258Y-114185314D01*
X159401059Y-114296329D01*
X159569362Y-114382085D01*
X159748997Y-114440451D01*
X159780000Y-114445362D01*
X159780000Y-114445361D01*
X160280000Y-114445361D01*
X160311002Y-114440451D01*
X160490637Y-114382085D01*
X160658940Y-114296329D01*
X160811741Y-114185314D01*
X160811746Y-114185310D01*
X160945310Y-114051746D01*
X160945314Y-114051741D01*
X161056329Y-113898940D01*
X161142085Y-113730637D01*
X161200451Y-113551002D01*
X161205362Y-113520000D01*
X160280000Y-113520000D01*
X160280000Y-114445361D01*
X159780000Y-114445361D01*
X159780000Y-113520000D01*
X158854638Y-113520000D01*
X155633498Y-113520000D01*
X155929576Y-113223922D01*
X159680000Y-113223922D01*
X159680000Y-113316078D01*
X159703852Y-113405095D01*
X159749930Y-113484905D01*
X159815095Y-113550070D01*
X159894905Y-113596148D01*
X159983922Y-113620000D01*
X160076078Y-113620000D01*
X160165095Y-113596148D01*
X160244905Y-113550070D01*
X160310070Y-113484905D01*
X160356148Y-113405095D01*
X160380000Y-113316078D01*
X160380000Y-113223922D01*
X160356148Y-113134905D01*
X160310070Y-113055095D01*
X160274975Y-113020000D01*
X160280000Y-113020000D01*
X161205362Y-113020000D01*
X161200451Y-112988997D01*
X161142085Y-112809362D01*
X161056329Y-112641059D01*
X160945314Y-112488258D01*
X160945310Y-112488253D01*
X160811746Y-112354689D01*
X160811741Y-112354685D01*
X160658940Y-112243670D01*
X160490635Y-112157913D01*
X160311004Y-112099549D01*
X160310995Y-112099547D01*
X160280000Y-112094637D01*
X160280000Y-113020000D01*
X160274975Y-113020000D01*
X160244905Y-112989930D01*
X160165095Y-112943852D01*
X160076078Y-112920000D01*
X159983922Y-112920000D01*
X159894905Y-112943852D01*
X159815095Y-112989930D01*
X159749930Y-113055095D01*
X159703852Y-113134905D01*
X159680000Y-113223922D01*
X155929576Y-113223922D01*
X156133498Y-113020000D01*
X158854638Y-113020000D01*
X159780000Y-113020000D01*
X159780000Y-112094637D01*
X159779999Y-112094637D01*
X159749004Y-112099547D01*
X159748995Y-112099549D01*
X159569364Y-112157913D01*
X159401059Y-112243670D01*
X159248258Y-112354685D01*
X159248253Y-112354689D01*
X159114689Y-112488253D01*
X159114685Y-112488258D01*
X159003670Y-112641059D01*
X158917914Y-112809362D01*
X158859548Y-112988997D01*
X158854638Y-113020000D01*
X156133498Y-113020000D01*
X159048463Y-110105036D01*
X159048464Y-110105035D01*
X159147013Y-109957547D01*
X159214894Y-109793666D01*
X159217107Y-109782544D01*
X159249499Y-109619695D01*
X159249500Y-109619693D01*
X159249500Y-109454249D01*
X159269185Y-109387210D01*
X159321989Y-109341455D01*
X159391147Y-109331511D01*
X159429793Y-109343764D01*
X159476769Y-109367699D01*
X159530774Y-109395217D01*
X159530777Y-109395217D01*
X159530781Y-109395220D01*
X159665245Y-109438910D01*
X159725465Y-109458477D01*
X159826557Y-109474488D01*
X159927648Y-109490500D01*
X159927649Y-109490500D01*
X160132351Y-109490500D01*
X160132352Y-109490500D01*
X160334534Y-109458477D01*
X160529219Y-109395220D01*
X160711610Y-109302287D01*
X160860218Y-109194318D01*
X160877213Y-109181971D01*
X160877215Y-109181968D01*
X160877219Y-109181966D01*
X161021966Y-109037219D01*
X161021968Y-109037215D01*
X161021971Y-109037213D01*
X161074732Y-108964590D01*
X161142287Y-108871610D01*
X161235220Y-108689219D01*
X161298477Y-108494534D01*
X161330500Y-108292352D01*
X161330500Y-108214362D01*
X161350185Y-108147323D01*
X161366819Y-108126681D01*
X162451063Y-107042437D01*
X163554127Y-105939372D01*
X163615448Y-105905889D01*
X163685140Y-105910873D01*
X163741073Y-105952745D01*
X163758731Y-105990317D01*
X163760017Y-105989900D01*
X163824781Y-106189223D01*
X163917715Y-106371613D01*
X164038028Y-106537213D01*
X164093181Y-106592366D01*
X164126666Y-106653689D01*
X164129500Y-106680047D01*
X164129500Y-129658696D01*
X164164103Y-129832658D01*
X164164105Y-129832666D01*
X164187429Y-129888976D01*
X164187433Y-129888985D01*
X164189354Y-129893621D01*
X164231987Y-129996547D01*
X164273562Y-130058768D01*
X164313340Y-130118301D01*
X164330537Y-130144038D01*
X164330538Y-130144039D01*
X164973662Y-130787162D01*
X165007147Y-130848485D01*
X165009358Y-130880971D01*
X165009500Y-130880971D01*
X165009500Y-130883061D01*
X165009601Y-130884546D01*
X165009500Y-130885832D01*
X165009500Y-131114162D01*
X165045215Y-131339660D01*
X165115770Y-131556803D01*
X165219421Y-131760228D01*
X165353621Y-131944937D01*
X165515063Y-132106379D01*
X165699772Y-132240579D01*
X165795884Y-132289550D01*
X165903196Y-132344229D01*
X165903198Y-132344229D01*
X165903201Y-132344231D01*
X166019592Y-132382049D01*
X166120339Y-132414784D01*
X166345838Y-132450500D01*
X166345843Y-132450500D01*
X166574162Y-132450500D01*
X166799660Y-132414784D01*
X167016799Y-132344231D01*
X167220228Y-132240579D01*
X167404937Y-132106379D01*
X167492135Y-132019180D01*
X167553454Y-131985698D01*
X167623146Y-131990682D01*
X167679080Y-132032553D01*
X167695995Y-132063531D01*
X167706645Y-132092086D01*
X167706649Y-132092093D01*
X167792809Y-132207187D01*
X167792812Y-132207190D01*
X167907906Y-132293350D01*
X167907913Y-132293354D01*
X168042620Y-132343596D01*
X168042627Y-132343598D01*
X168102155Y-132349999D01*
X168102172Y-132350000D01*
X168750000Y-132350000D01*
X168750000Y-131433012D01*
X168807007Y-131465925D01*
X168934174Y-131500000D01*
X169065826Y-131500000D01*
X169192993Y-131465925D01*
X169250000Y-131433012D01*
X169250000Y-132350000D01*
X169897828Y-132350000D01*
X169897844Y-132349999D01*
X169957372Y-132343598D01*
X169957379Y-132343596D01*
X170092086Y-132293354D01*
X170092093Y-132293350D01*
X170207187Y-132207190D01*
X170207190Y-132207187D01*
X170293350Y-132092093D01*
X170293354Y-132092086D01*
X170343596Y-131957379D01*
X170343598Y-131957372D01*
X170349999Y-131897844D01*
X170350000Y-131897827D01*
X170350000Y-131250000D01*
X169433012Y-131250000D01*
X169465925Y-131192993D01*
X169500000Y-131065826D01*
X169500000Y-130934174D01*
X169465925Y-130807007D01*
X169433012Y-130750000D01*
X170350000Y-130750000D01*
X170350000Y-130102172D01*
X170349999Y-130102155D01*
X170343598Y-130042627D01*
X170343596Y-130042620D01*
X170293354Y-129907913D01*
X170293350Y-129907906D01*
X170207190Y-129792812D01*
X170207187Y-129792809D01*
X170092093Y-129706649D01*
X170092086Y-129706645D01*
X169957379Y-129656403D01*
X169957372Y-129656401D01*
X169897844Y-129650000D01*
X169250000Y-129650000D01*
X169250000Y-130566988D01*
X169192993Y-130534075D01*
X169065826Y-130500000D01*
X168934174Y-130500000D01*
X168807007Y-130534075D01*
X168750000Y-130566988D01*
X168750000Y-129650000D01*
X168102155Y-129650000D01*
X168042627Y-129656401D01*
X168042620Y-129656403D01*
X167907913Y-129706645D01*
X167907906Y-129706649D01*
X167792812Y-129792809D01*
X167792809Y-129792812D01*
X167706649Y-129907906D01*
X167706643Y-129907918D01*
X167695994Y-129936469D01*
X167654123Y-129992403D01*
X167588658Y-130016819D01*
X167520385Y-130001967D01*
X167492132Y-129980816D01*
X167404939Y-129893623D01*
X167404938Y-129893622D01*
X167404937Y-129893621D01*
X167220228Y-129759421D01*
X167016803Y-129655770D01*
X166799660Y-129585215D01*
X166574162Y-129549500D01*
X166574157Y-129549500D01*
X166345843Y-129549500D01*
X166345833Y-129549500D01*
X166344546Y-129549601D01*
X166344066Y-129549500D01*
X166340971Y-129549500D01*
X166340971Y-129548849D01*
X166276172Y-129535223D01*
X166247162Y-129513662D01*
X165966819Y-129233319D01*
X165933334Y-129171996D01*
X165930500Y-129145638D01*
X165930500Y-113395102D01*
X170995000Y-113395102D01*
X170995000Y-113604897D01*
X171035925Y-113810641D01*
X171035927Y-113810649D01*
X171116207Y-114004464D01*
X171150563Y-114055882D01*
X171670000Y-113536445D01*
X171670000Y-113551344D01*
X171696578Y-113650534D01*
X171747923Y-113739465D01*
X171820535Y-113812077D01*
X171909466Y-113863422D01*
X172008656Y-113890000D01*
X172023553Y-113890000D01*
X171504116Y-114409434D01*
X171504117Y-114409435D01*
X171555528Y-114443788D01*
X171555534Y-114443791D01*
X171749350Y-114524072D01*
X171749358Y-114524074D01*
X171955102Y-114564999D01*
X171955106Y-114565000D01*
X172164894Y-114565000D01*
X172164897Y-114564999D01*
X172370641Y-114524074D01*
X172370649Y-114524072D01*
X172564465Y-114443791D01*
X172564473Y-114443787D01*
X172615881Y-114409435D01*
X172615882Y-114409434D01*
X172096448Y-113890000D01*
X172111344Y-113890000D01*
X172210534Y-113863422D01*
X172299465Y-113812077D01*
X172372077Y-113739465D01*
X172423422Y-113650534D01*
X172450000Y-113551344D01*
X172450000Y-113536448D01*
X172969434Y-114055882D01*
X172969435Y-114055881D01*
X173003787Y-114004473D01*
X173003791Y-114004465D01*
X173084072Y-113810649D01*
X173084074Y-113810641D01*
X173124999Y-113604897D01*
X173125000Y-113604894D01*
X173125000Y-113395106D01*
X173124999Y-113395102D01*
X173084074Y-113189358D01*
X173084072Y-113189350D01*
X173003791Y-112995534D01*
X173003788Y-112995528D01*
X172969435Y-112944117D01*
X172969434Y-112944116D01*
X172450000Y-113463551D01*
X172450000Y-113448656D01*
X172423422Y-113349466D01*
X172372077Y-113260535D01*
X172299465Y-113187923D01*
X172210534Y-113136578D01*
X172111344Y-113110000D01*
X172096447Y-113110000D01*
X172615882Y-112590563D01*
X172564464Y-112556207D01*
X172370649Y-112475927D01*
X172370641Y-112475925D01*
X172164897Y-112435000D01*
X171955102Y-112435000D01*
X171749358Y-112475925D01*
X171749350Y-112475927D01*
X171555535Y-112556207D01*
X171555532Y-112556209D01*
X171504117Y-112590564D01*
X172023554Y-113110000D01*
X172008656Y-113110000D01*
X171909466Y-113136578D01*
X171820535Y-113187923D01*
X171747923Y-113260535D01*
X171696578Y-113349466D01*
X171670000Y-113448656D01*
X171670000Y-113463553D01*
X171150564Y-112944117D01*
X171116209Y-112995532D01*
X171116207Y-112995535D01*
X171035927Y-113189350D01*
X171035925Y-113189358D01*
X170995000Y-113395102D01*
X165930500Y-113395102D01*
X165930500Y-106714500D01*
X165950185Y-106647461D01*
X166002989Y-106601706D01*
X166054500Y-106590500D01*
X170822437Y-106590500D01*
X170889476Y-106610185D01*
X170935231Y-106662989D01*
X170936997Y-106667045D01*
X170970464Y-106747841D01*
X171066718Y-106873282D01*
X171192159Y-106969536D01*
X171338238Y-107030044D01*
X171455639Y-107045500D01*
X171735736Y-107045499D01*
X171802773Y-107065183D01*
X171848528Y-107117987D01*
X171858472Y-107187146D01*
X171829447Y-107250701D01*
X171774053Y-107287430D01*
X171612598Y-107339890D01*
X171449141Y-107423177D01*
X171300734Y-107531000D01*
X171300729Y-107531004D01*
X171171004Y-107660729D01*
X171171000Y-107660734D01*
X171063177Y-107809141D01*
X170979890Y-107972600D01*
X170923197Y-108147081D01*
X170894500Y-108328267D01*
X170894500Y-108511732D01*
X170922612Y-108689223D01*
X170923198Y-108692922D01*
X170979889Y-108867397D01*
X171001922Y-108910640D01*
X171063177Y-109030858D01*
X171171000Y-109179265D01*
X171171004Y-109179270D01*
X171300729Y-109308995D01*
X171300734Y-109308999D01*
X171408383Y-109387210D01*
X171449145Y-109416825D01*
X171612603Y-109500111D01*
X171787078Y-109556802D01*
X171820431Y-109562084D01*
X171854791Y-109567527D01*
X171917926Y-109597456D01*
X171954857Y-109656768D01*
X171953859Y-109726630D01*
X171915249Y-109784863D01*
X171854791Y-109812473D01*
X171787081Y-109823197D01*
X171612600Y-109879890D01*
X171449143Y-109963176D01*
X171300734Y-110071000D01*
X171300729Y-110071004D01*
X171171004Y-110200729D01*
X171171000Y-110200734D01*
X171063177Y-110349141D01*
X170979890Y-110512600D01*
X170923197Y-110687081D01*
X170894500Y-110868267D01*
X170894500Y-111051732D01*
X170923197Y-111232918D01*
X170923198Y-111232922D01*
X170975881Y-111395063D01*
X170979890Y-111407399D01*
X171063177Y-111570858D01*
X171171000Y-111719265D01*
X171171004Y-111719270D01*
X171300729Y-111848995D01*
X171300734Y-111848999D01*
X171430183Y-111943048D01*
X171449145Y-111956825D01*
X171612603Y-112040111D01*
X171787078Y-112096802D01*
X171854794Y-112107527D01*
X171968268Y-112125500D01*
X171968273Y-112125500D01*
X172151732Y-112125500D01*
X172252390Y-112109556D01*
X172332922Y-112096802D01*
X172507397Y-112040111D01*
X172670855Y-111956825D01*
X172819272Y-111848994D01*
X172948994Y-111719272D01*
X173056825Y-111570855D01*
X173140111Y-111407397D01*
X173196802Y-111232922D01*
X173216135Y-111110852D01*
X173246062Y-111047721D01*
X173250908Y-111042590D01*
X175426464Y-108867035D01*
X175460038Y-108816788D01*
X175525013Y-108719547D01*
X175554997Y-108647159D01*
X175592895Y-108555666D01*
X175627500Y-108381691D01*
X175627500Y-108204308D01*
X175627500Y-105788267D01*
X178834500Y-105788267D01*
X178834500Y-105971732D01*
X178860325Y-106134784D01*
X178863198Y-106152922D01*
X178896951Y-106256803D01*
X178919890Y-106327399D01*
X179003177Y-106490858D01*
X179111000Y-106639265D01*
X179111004Y-106639270D01*
X179240729Y-106768995D01*
X179240734Y-106768999D01*
X179370183Y-106863048D01*
X179389145Y-106876825D01*
X179483719Y-106925013D01*
X179552598Y-106960109D01*
X179552600Y-106960109D01*
X179552603Y-106960111D01*
X179653382Y-106992856D01*
X179727071Y-107016800D01*
X179727072Y-107016800D01*
X179727078Y-107016802D01*
X179794795Y-107027526D01*
X179857926Y-107057454D01*
X179894858Y-107116765D01*
X179893862Y-107186628D01*
X179855253Y-107244861D01*
X179794794Y-107272472D01*
X179727080Y-107283197D01*
X179552600Y-107339890D01*
X179389141Y-107423177D01*
X179240734Y-107531000D01*
X179240729Y-107531004D01*
X179111004Y-107660729D01*
X179111000Y-107660734D01*
X179003177Y-107809141D01*
X178919890Y-107972600D01*
X178863197Y-108147081D01*
X178834500Y-108328267D01*
X178834500Y-108511732D01*
X178862612Y-108689223D01*
X178863198Y-108692922D01*
X178919889Y-108867397D01*
X178941922Y-108910640D01*
X179003177Y-109030858D01*
X179111000Y-109179265D01*
X179111004Y-109179270D01*
X179240729Y-109308995D01*
X179240734Y-109308999D01*
X179348383Y-109387210D01*
X179389145Y-109416825D01*
X179552603Y-109500111D01*
X179727078Y-109556802D01*
X179760431Y-109562084D01*
X179794791Y-109567527D01*
X179857926Y-109597456D01*
X179894857Y-109656768D01*
X179893859Y-109726630D01*
X179855249Y-109784863D01*
X179794791Y-109812473D01*
X179727081Y-109823197D01*
X179552600Y-109879890D01*
X179389143Y-109963176D01*
X179240734Y-110071000D01*
X179240729Y-110071004D01*
X179111004Y-110200729D01*
X179111000Y-110200734D01*
X179003177Y-110349141D01*
X178919890Y-110512600D01*
X178863197Y-110687081D01*
X178834500Y-110868267D01*
X178834500Y-111051732D01*
X178863197Y-111232918D01*
X178863198Y-111232922D01*
X178915881Y-111395063D01*
X178919890Y-111407399D01*
X179003177Y-111570858D01*
X179111000Y-111719265D01*
X179111004Y-111719270D01*
X179240729Y-111848995D01*
X179240734Y-111848999D01*
X179370183Y-111943048D01*
X179389145Y-111956825D01*
X179552603Y-112040111D01*
X179727078Y-112096802D01*
X179760431Y-112102084D01*
X179794791Y-112107527D01*
X179857926Y-112137456D01*
X179894857Y-112196768D01*
X179893859Y-112266630D01*
X179855249Y-112324863D01*
X179794791Y-112352473D01*
X179727081Y-112363197D01*
X179552600Y-112419890D01*
X179389141Y-112503177D01*
X179240734Y-112611000D01*
X179240729Y-112611004D01*
X179111004Y-112740729D01*
X179111000Y-112740734D01*
X179003177Y-112889141D01*
X178919890Y-113052600D01*
X178863197Y-113227081D01*
X178834500Y-113408267D01*
X178834500Y-113591732D01*
X178863197Y-113772918D01*
X178863198Y-113772922D01*
X178919889Y-113947397D01*
X178975164Y-114055881D01*
X179003177Y-114110858D01*
X179111000Y-114259265D01*
X179111004Y-114259270D01*
X179240729Y-114388995D01*
X179240734Y-114388999D01*
X179318312Y-114445362D01*
X179389145Y-114496825D01*
X179552603Y-114580111D01*
X179727078Y-114636802D01*
X179795026Y-114647563D01*
X179908268Y-114665500D01*
X179908273Y-114665500D01*
X180091732Y-114665500D01*
X180192390Y-114649556D01*
X180272922Y-114636802D01*
X180447397Y-114580111D01*
X180610855Y-114496825D01*
X180759272Y-114388994D01*
X180888994Y-114259272D01*
X180996825Y-114110855D01*
X181080111Y-113947397D01*
X181136802Y-113772922D01*
X181156186Y-113650534D01*
X181165500Y-113591732D01*
X181165500Y-113408267D01*
X181136802Y-113227081D01*
X181136802Y-113227078D01*
X181080111Y-113052603D01*
X180996825Y-112889145D01*
X180965453Y-112845965D01*
X180888999Y-112740734D01*
X180888995Y-112740729D01*
X180759270Y-112611004D01*
X180759265Y-112611000D01*
X180610858Y-112503177D01*
X180610857Y-112503176D01*
X180610855Y-112503175D01*
X180447397Y-112419889D01*
X180272922Y-112363198D01*
X180272920Y-112363197D01*
X180272918Y-112363197D01*
X180205208Y-112352473D01*
X180142073Y-112322544D01*
X180105142Y-112263232D01*
X180106140Y-112193370D01*
X180144750Y-112135137D01*
X180205208Y-112107527D01*
X180228451Y-112103845D01*
X180272922Y-112096802D01*
X180447397Y-112040111D01*
X180610855Y-111956825D01*
X180759272Y-111848994D01*
X180888994Y-111719272D01*
X180996825Y-111570855D01*
X181080111Y-111407397D01*
X181136802Y-111232922D01*
X181156135Y-111110857D01*
X181165500Y-111051732D01*
X181165500Y-110868267D01*
X181137165Y-110689370D01*
X181136802Y-110687078D01*
X181080111Y-110512603D01*
X180996825Y-110349145D01*
X180905318Y-110223196D01*
X180888999Y-110200734D01*
X180888995Y-110200729D01*
X180759270Y-110071004D01*
X180759265Y-110071000D01*
X180610857Y-109963176D01*
X180447399Y-109879890D01*
X180447398Y-109879889D01*
X180447397Y-109879889D01*
X180272922Y-109823198D01*
X180272920Y-109823197D01*
X180272918Y-109823197D01*
X180205208Y-109812473D01*
X180142073Y-109782544D01*
X180105142Y-109723232D01*
X180106140Y-109653370D01*
X180144750Y-109595137D01*
X180205208Y-109567527D01*
X180228451Y-109563845D01*
X180272922Y-109556802D01*
X180447397Y-109500111D01*
X180610855Y-109416825D01*
X180759272Y-109308994D01*
X180888994Y-109179272D01*
X180996825Y-109030855D01*
X181080111Y-108867397D01*
X181136802Y-108692922D01*
X181137389Y-108689219D01*
X181153781Y-108585719D01*
X181183710Y-108522584D01*
X181243021Y-108485652D01*
X181312884Y-108486650D01*
X181363935Y-108517435D01*
X186603181Y-113756680D01*
X186636666Y-113818003D01*
X186639500Y-113844361D01*
X186639500Y-129798503D01*
X186630794Y-129828148D01*
X186624118Y-129858320D01*
X186620705Y-129862508D01*
X186619815Y-129865542D01*
X186602866Y-129886498D01*
X186597406Y-129891917D01*
X186595063Y-129893621D01*
X186507868Y-129980816D01*
X186507552Y-129981130D01*
X186477043Y-129997647D01*
X186446543Y-130014301D01*
X186446313Y-130014284D01*
X186446109Y-130014395D01*
X186411577Y-130011800D01*
X186376852Y-130009317D01*
X186376665Y-130009177D01*
X186376436Y-130009160D01*
X186348831Y-129988340D01*
X186320918Y-129967445D01*
X186320773Y-129967179D01*
X186320653Y-129967089D01*
X186320505Y-129966690D01*
X186304004Y-129936467D01*
X186293355Y-129907915D01*
X186293350Y-129907906D01*
X186207190Y-129792812D01*
X186207187Y-129792809D01*
X186092093Y-129706649D01*
X186092086Y-129706645D01*
X185957379Y-129656403D01*
X185957372Y-129656401D01*
X185897844Y-129650000D01*
X185250000Y-129650000D01*
X185250000Y-130566988D01*
X185192993Y-130534075D01*
X185065826Y-130500000D01*
X184934174Y-130500000D01*
X184807007Y-130534075D01*
X184750000Y-130566988D01*
X184750000Y-129650000D01*
X184102155Y-129650000D01*
X184042627Y-129656401D01*
X184042620Y-129656403D01*
X183907913Y-129706645D01*
X183907906Y-129706649D01*
X183792812Y-129792809D01*
X183792809Y-129792812D01*
X183706649Y-129907906D01*
X183706645Y-129907913D01*
X183656403Y-130042620D01*
X183656401Y-130042627D01*
X183650000Y-130102155D01*
X183650000Y-130750000D01*
X184566988Y-130750000D01*
X184534075Y-130807007D01*
X184500000Y-130934174D01*
X184500000Y-131065826D01*
X184534075Y-131192993D01*
X184566988Y-131250000D01*
X183650000Y-131250000D01*
X183650000Y-131897844D01*
X183656401Y-131957372D01*
X183656403Y-131957379D01*
X183706645Y-132092086D01*
X183706649Y-132092093D01*
X183792809Y-132207187D01*
X183792812Y-132207190D01*
X183907906Y-132293350D01*
X183907913Y-132293354D01*
X184042620Y-132343596D01*
X184042627Y-132343598D01*
X184102155Y-132349999D01*
X184102172Y-132350000D01*
X184750000Y-132350000D01*
X184750000Y-131433012D01*
X184807007Y-131465925D01*
X184934174Y-131500000D01*
X185065826Y-131500000D01*
X185192993Y-131465925D01*
X185250000Y-131433012D01*
X185250000Y-132350000D01*
X185897828Y-132350000D01*
X185897844Y-132349999D01*
X185957372Y-132343598D01*
X185957379Y-132343596D01*
X186092086Y-132293354D01*
X186092093Y-132293350D01*
X186207187Y-132207190D01*
X186207190Y-132207187D01*
X186293350Y-132092093D01*
X186293353Y-132092088D01*
X186304003Y-132063533D01*
X186345873Y-132007599D01*
X186411337Y-131983180D01*
X186479610Y-131998030D01*
X186507867Y-132019183D01*
X186595063Y-132106379D01*
X186779772Y-132240579D01*
X186875884Y-132289550D01*
X186983196Y-132344229D01*
X186983198Y-132344229D01*
X186983201Y-132344231D01*
X187099592Y-132382049D01*
X187200339Y-132414784D01*
X187425838Y-132450500D01*
X187425843Y-132450500D01*
X187654162Y-132450500D01*
X187879660Y-132414784D01*
X188096799Y-132344231D01*
X188300228Y-132240579D01*
X188484937Y-132106379D01*
X188646379Y-131944937D01*
X188780579Y-131760228D01*
X188884231Y-131556799D01*
X188954784Y-131339660D01*
X188978014Y-131192993D01*
X188990500Y-131114162D01*
X188990500Y-130885837D01*
X188954784Y-130660339D01*
X188884229Y-130443196D01*
X188780578Y-130239771D01*
X188711024Y-130144039D01*
X188646379Y-130055063D01*
X188484937Y-129893621D01*
X188484935Y-129893620D01*
X188483958Y-129892785D01*
X188483689Y-129892373D01*
X188481492Y-129890176D01*
X188481953Y-129889714D01*
X188445771Y-129834273D01*
X188440500Y-129798503D01*
X188440500Y-113331306D01*
X188440499Y-113331304D01*
X188405896Y-113157341D01*
X188405893Y-113157332D01*
X188338016Y-112993459D01*
X188338009Y-112993446D01*
X188239465Y-112845966D01*
X188202861Y-112809362D01*
X188114035Y-112720536D01*
X181190926Y-105797426D01*
X181180760Y-105778809D01*
X181166621Y-105762992D01*
X181159403Y-105739696D01*
X181157441Y-105736103D01*
X181156162Y-105729317D01*
X181136802Y-105607078D01*
X181129900Y-105585837D01*
X199809500Y-105585837D01*
X199809500Y-105814162D01*
X199845215Y-106039660D01*
X199915770Y-106256803D01*
X200019421Y-106460228D01*
X200153621Y-106644937D01*
X200315063Y-106806379D01*
X200315069Y-106806383D01*
X200402191Y-106869683D01*
X200444857Y-106925013D01*
X200450835Y-106994627D01*
X200418228Y-107056421D01*
X200402191Y-107070317D01*
X200315069Y-107133616D01*
X200315060Y-107133623D01*
X200153622Y-107295061D01*
X200019421Y-107479771D01*
X199915770Y-107683196D01*
X199845215Y-107900339D01*
X199809500Y-108125837D01*
X199809500Y-108354162D01*
X199845215Y-108579660D01*
X199915770Y-108796803D01*
X199973776Y-108910645D01*
X200019421Y-109000228D01*
X200153621Y-109184937D01*
X200315063Y-109346379D01*
X200315069Y-109346383D01*
X200402191Y-109409683D01*
X200444857Y-109465013D01*
X200450835Y-109534627D01*
X200418228Y-109596421D01*
X200402191Y-109610317D01*
X200315069Y-109673616D01*
X200315060Y-109673623D01*
X200153622Y-109835061D01*
X200019421Y-110019771D01*
X199915770Y-110223196D01*
X199845215Y-110440339D01*
X199809500Y-110665837D01*
X199809500Y-110894162D01*
X199845215Y-111119660D01*
X199915770Y-111336803D01*
X199951740Y-111407397D01*
X200019421Y-111540228D01*
X200153621Y-111724937D01*
X200315063Y-111886379D01*
X200315069Y-111886383D01*
X200402191Y-111949683D01*
X200444857Y-112005013D01*
X200450835Y-112074627D01*
X200418228Y-112136421D01*
X200402191Y-112150317D01*
X200315069Y-112213616D01*
X200315060Y-112213623D01*
X200153622Y-112375061D01*
X200019421Y-112559771D01*
X199915770Y-112763196D01*
X199845215Y-112980339D01*
X199809500Y-113205837D01*
X199809500Y-113434162D01*
X199845215Y-113659660D01*
X199915770Y-113876803D01*
X200007016Y-114055882D01*
X200019421Y-114080228D01*
X200153621Y-114264937D01*
X200315063Y-114426379D01*
X200315069Y-114426383D01*
X200402191Y-114489683D01*
X200444857Y-114545013D01*
X200450835Y-114614627D01*
X200418228Y-114676421D01*
X200402191Y-114690317D01*
X200315069Y-114753616D01*
X200315060Y-114753623D01*
X200153622Y-114915061D01*
X200019421Y-115099771D01*
X199915770Y-115303196D01*
X199845215Y-115520339D01*
X199809500Y-115745837D01*
X199809500Y-115974162D01*
X199845215Y-116199660D01*
X199915770Y-116416803D01*
X200019421Y-116620228D01*
X200153621Y-116804937D01*
X200315063Y-116966379D01*
X200315069Y-116966383D01*
X200402191Y-117029683D01*
X200444857Y-117085013D01*
X200450835Y-117154627D01*
X200418228Y-117216421D01*
X200402191Y-117230317D01*
X200315069Y-117293616D01*
X200315060Y-117293623D01*
X200153622Y-117455061D01*
X200019421Y-117639771D01*
X199915770Y-117843196D01*
X199845215Y-118060339D01*
X199809500Y-118285837D01*
X199809500Y-118514162D01*
X199845215Y-118739660D01*
X199915770Y-118956803D01*
X200019421Y-119160228D01*
X200153621Y-119344937D01*
X200315063Y-119506379D01*
X200315069Y-119506383D01*
X200402191Y-119569683D01*
X200444857Y-119625013D01*
X200450835Y-119694627D01*
X200418228Y-119756421D01*
X200402191Y-119770317D01*
X200315069Y-119833616D01*
X200315060Y-119833623D01*
X200153622Y-119995061D01*
X200019421Y-120179771D01*
X199915770Y-120383196D01*
X199845215Y-120600339D01*
X199809500Y-120825837D01*
X199809500Y-121054162D01*
X199845215Y-121279660D01*
X199915770Y-121496803D01*
X200019421Y-121700228D01*
X200153622Y-121884938D01*
X200164724Y-121896040D01*
X200198209Y-121957363D01*
X200193225Y-122027055D01*
X200151353Y-122082988D01*
X200124499Y-122098281D01*
X200107160Y-122105463D01*
X199981718Y-122201718D01*
X199885463Y-122327160D01*
X199824956Y-122473237D01*
X199824955Y-122473239D01*
X199809501Y-122590629D01*
X199809501Y-122590636D01*
X199809500Y-122590645D01*
X199809500Y-124369363D01*
X199824953Y-124486753D01*
X199824956Y-124486762D01*
X199885464Y-124632841D01*
X199981718Y-124758282D01*
X200107159Y-124854536D01*
X200253238Y-124915044D01*
X200370639Y-124930500D01*
X202149360Y-124930499D01*
X202149363Y-124930499D01*
X202266753Y-124915046D01*
X202266757Y-124915044D01*
X202266762Y-124915044D01*
X202412841Y-124854536D01*
X202538282Y-124758282D01*
X202634536Y-124632841D01*
X202695044Y-124486762D01*
X202710500Y-124369361D01*
X202710499Y-122590640D01*
X202710499Y-122590639D01*
X202710499Y-122590636D01*
X202695046Y-122473246D01*
X202695044Y-122473239D01*
X202695044Y-122473238D01*
X202634536Y-122327159D01*
X202538282Y-122201718D01*
X202412841Y-122105464D01*
X202412839Y-122105463D01*
X202395501Y-122098281D01*
X202341099Y-122054438D01*
X202319036Y-121988143D01*
X202336317Y-121920444D01*
X202355279Y-121896037D01*
X202366374Y-121884942D01*
X202366374Y-121884941D01*
X202366379Y-121884937D01*
X202500579Y-121700228D01*
X202604231Y-121496799D01*
X202674784Y-121279660D01*
X202678749Y-121254627D01*
X202710500Y-121054162D01*
X202710500Y-120825837D01*
X202674784Y-120600339D01*
X202604229Y-120383196D01*
X202500578Y-120179771D01*
X202423848Y-120074162D01*
X202366379Y-119995063D01*
X202204937Y-119833621D01*
X202117807Y-119770317D01*
X202075143Y-119714988D01*
X202069164Y-119645374D01*
X202101770Y-119583579D01*
X202117807Y-119569683D01*
X202204937Y-119506379D01*
X202366379Y-119344937D01*
X202500579Y-119160228D01*
X202604231Y-118956799D01*
X202674784Y-118739660D01*
X202678749Y-118714627D01*
X202710500Y-118514162D01*
X202710500Y-118285837D01*
X202674784Y-118060339D01*
X202604229Y-117843196D01*
X202500578Y-117639771D01*
X202423848Y-117534162D01*
X202366379Y-117455063D01*
X202204937Y-117293621D01*
X202117807Y-117230317D01*
X202075143Y-117174988D01*
X202069164Y-117105374D01*
X202101770Y-117043579D01*
X202117807Y-117029683D01*
X202204937Y-116966379D01*
X202366379Y-116804937D01*
X202500579Y-116620228D01*
X202604231Y-116416799D01*
X202674784Y-116199660D01*
X202678749Y-116174627D01*
X202710500Y-115974162D01*
X202710500Y-115745837D01*
X202674784Y-115520339D01*
X202604229Y-115303196D01*
X202500578Y-115099771D01*
X202423848Y-114994162D01*
X202366379Y-114915063D01*
X202204937Y-114753621D01*
X202117807Y-114690317D01*
X202075143Y-114634988D01*
X202069164Y-114565374D01*
X202101770Y-114503579D01*
X202117807Y-114489683D01*
X202204937Y-114426379D01*
X202366379Y-114264937D01*
X202500579Y-114080228D01*
X202604231Y-113876799D01*
X202674784Y-113659660D01*
X202678749Y-113634627D01*
X202710500Y-113434162D01*
X202710500Y-113205837D01*
X202674784Y-112980339D01*
X202631123Y-112845965D01*
X202604231Y-112763201D01*
X202604229Y-112763198D01*
X202604229Y-112763196D01*
X202516268Y-112590564D01*
X202500579Y-112559772D01*
X202366379Y-112375063D01*
X202204937Y-112213621D01*
X202117807Y-112150317D01*
X202075143Y-112094988D01*
X202069164Y-112025374D01*
X202101770Y-111963579D01*
X202117807Y-111949683D01*
X202204937Y-111886379D01*
X202366379Y-111724937D01*
X202500579Y-111540228D01*
X202604231Y-111336799D01*
X202674784Y-111119660D01*
X202685543Y-111051732D01*
X202710500Y-110894162D01*
X202710500Y-110665837D01*
X202674784Y-110440339D01*
X202604229Y-110223196D01*
X202544023Y-110105035D01*
X202500579Y-110019772D01*
X202366379Y-109835063D01*
X202204937Y-109673621D01*
X202117807Y-109610317D01*
X202075143Y-109554988D01*
X202069164Y-109485374D01*
X202101770Y-109423579D01*
X202117807Y-109409683D01*
X202204937Y-109346379D01*
X202366379Y-109184937D01*
X202500579Y-109000228D01*
X202604231Y-108796799D01*
X202674784Y-108579660D01*
X202683961Y-108521718D01*
X202710500Y-108354162D01*
X202710500Y-108125837D01*
X202674784Y-107900339D01*
X202604229Y-107683196D01*
X202500578Y-107479771D01*
X202459460Y-107423177D01*
X202366379Y-107295063D01*
X202204937Y-107133621D01*
X202117807Y-107070317D01*
X202075143Y-107014988D01*
X202069164Y-106945374D01*
X202101770Y-106883579D01*
X202117807Y-106869683D01*
X202204937Y-106806379D01*
X202366379Y-106644937D01*
X202500579Y-106460228D01*
X202604231Y-106256799D01*
X202674784Y-106039660D01*
X202685543Y-105971732D01*
X202710500Y-105814162D01*
X202710500Y-105585837D01*
X202674784Y-105360339D01*
X202604229Y-105143196D01*
X202549550Y-105035884D01*
X202500579Y-104939772D01*
X202366379Y-104755063D01*
X202204937Y-104593621D01*
X202020228Y-104459421D01*
X202007243Y-104452805D01*
X201816803Y-104355770D01*
X201599660Y-104285215D01*
X201374162Y-104249500D01*
X201374157Y-104249500D01*
X201145843Y-104249500D01*
X201145838Y-104249500D01*
X200920339Y-104285215D01*
X200703196Y-104355770D01*
X200499771Y-104459421D01*
X200315061Y-104593622D01*
X200153622Y-104755061D01*
X200019421Y-104939771D01*
X199915770Y-105143196D01*
X199845215Y-105360339D01*
X199809500Y-105585837D01*
X181129900Y-105585837D01*
X181080111Y-105432603D01*
X181080109Y-105432600D01*
X181080109Y-105432598D01*
X181043291Y-105360339D01*
X180996825Y-105269145D01*
X180983048Y-105250183D01*
X180888999Y-105120734D01*
X180888995Y-105120729D01*
X180759270Y-104991004D01*
X180759265Y-104991000D01*
X180610858Y-104883177D01*
X180610857Y-104883176D01*
X180610855Y-104883175D01*
X180447397Y-104799889D01*
X180272922Y-104743198D01*
X180272920Y-104743197D01*
X180272918Y-104743197D01*
X180091732Y-104714500D01*
X180091727Y-104714500D01*
X179908273Y-104714500D01*
X179908268Y-104714500D01*
X179727081Y-104743197D01*
X179552600Y-104799890D01*
X179389141Y-104883177D01*
X179240734Y-104991000D01*
X179240729Y-104991004D01*
X179111004Y-105120729D01*
X179111000Y-105120734D01*
X179003177Y-105269141D01*
X178919890Y-105432600D01*
X178863197Y-105607081D01*
X178834500Y-105788267D01*
X175627500Y-105788267D01*
X175627500Y-103827839D01*
X175627500Y-103827838D01*
X175592895Y-103653864D01*
X175549088Y-103548106D01*
X175525013Y-103489983D01*
X175446871Y-103373036D01*
X175440340Y-103363261D01*
X175426466Y-103342496D01*
X174183505Y-102099535D01*
X174183500Y-102099531D01*
X174129092Y-102063178D01*
X174129086Y-102063175D01*
X174124429Y-102060063D01*
X174036017Y-102000987D01*
X173954076Y-101967046D01*
X173872136Y-101933105D01*
X173872128Y-101933103D01*
X173698166Y-101898500D01*
X173698162Y-101898500D01*
X173698161Y-101898500D01*
X160665536Y-101898500D01*
X160488152Y-101898500D01*
X160488147Y-101898500D01*
X160314185Y-101933103D01*
X160314173Y-101933106D01*
X160232236Y-101967045D01*
X160232237Y-101967046D01*
X160150299Y-102000985D01*
X160061884Y-102060063D01*
X160061883Y-102060064D01*
X160002805Y-102099537D01*
X157649537Y-104452805D01*
X157626985Y-104486557D01*
X157626981Y-104486563D01*
X157624307Y-104490566D01*
X157550987Y-104600297D01*
X157519354Y-104676666D01*
X157516542Y-104683452D01*
X157516541Y-104683456D01*
X157483105Y-104764177D01*
X157483103Y-104764185D01*
X157455271Y-104904104D01*
X157455272Y-104904105D01*
X157448500Y-104938153D01*
X157448500Y-109106637D01*
X157428815Y-109173676D01*
X157412181Y-109194318D01*
X154604799Y-112001699D01*
X154543476Y-112035184D01*
X154473784Y-112030200D01*
X154417851Y-111988328D01*
X154399187Y-111952337D01*
X154365609Y-111848995D01*
X154344231Y-111783201D01*
X154344229Y-111783198D01*
X154344229Y-111783196D01*
X154240578Y-111579771D01*
X154106379Y-111395063D01*
X154095275Y-111383959D01*
X154061790Y-111322636D01*
X154066774Y-111252944D01*
X154108646Y-111197011D01*
X154135499Y-111181718D01*
X154152841Y-111174536D01*
X154278282Y-111078282D01*
X154374536Y-110952841D01*
X154435044Y-110806762D01*
X154450500Y-110689361D01*
X154450499Y-108910640D01*
X154450499Y-108910639D01*
X154450499Y-108910636D01*
X154435046Y-108793246D01*
X154435044Y-108793239D01*
X154435044Y-108793238D01*
X154374536Y-108647159D01*
X154278282Y-108521718D01*
X154152841Y-108425464D01*
X154047173Y-108381695D01*
X154006762Y-108364956D01*
X154006760Y-108364955D01*
X153889370Y-108349501D01*
X153889367Y-108349500D01*
X153889361Y-108349500D01*
X153889354Y-108349500D01*
X152110636Y-108349500D01*
X151993246Y-108364953D01*
X151993237Y-108364956D01*
X151847160Y-108425463D01*
X151721718Y-108521718D01*
X151625463Y-108647160D01*
X151564956Y-108793237D01*
X151564955Y-108793239D01*
X151549501Y-108910629D01*
X151549501Y-108910636D01*
X151549500Y-108910645D01*
X149100500Y-108910645D01*
X149100500Y-86050645D01*
X151559500Y-86050645D01*
X151559500Y-87829363D01*
X151574953Y-87946753D01*
X151574956Y-87946762D01*
X151635464Y-88092841D01*
X151731718Y-88218282D01*
X151857159Y-88314536D01*
X151857160Y-88314536D01*
X151857161Y-88314537D01*
X151874495Y-88321717D01*
X151928899Y-88365558D01*
X151950964Y-88431852D01*
X151933685Y-88499551D01*
X151914727Y-88523956D01*
X151903622Y-88535061D01*
X151769421Y-88719771D01*
X151665770Y-88923196D01*
X151595215Y-89140339D01*
X151559500Y-89365837D01*
X151559500Y-89594162D01*
X151595215Y-89819660D01*
X151665770Y-90036803D01*
X151754019Y-90210000D01*
X151769421Y-90240228D01*
X151903621Y-90424937D01*
X152065063Y-90586379D01*
X152065069Y-90586383D01*
X152152191Y-90649683D01*
X152194857Y-90705013D01*
X152200835Y-90774627D01*
X152168228Y-90836421D01*
X152152191Y-90850317D01*
X152065069Y-90913616D01*
X152065060Y-90913623D01*
X151903622Y-91075061D01*
X151769421Y-91259771D01*
X151665770Y-91463196D01*
X151595215Y-91680339D01*
X151559500Y-91905837D01*
X151559500Y-92134162D01*
X151595215Y-92359660D01*
X151665770Y-92576803D01*
X151754019Y-92750000D01*
X151769421Y-92780228D01*
X151903621Y-92964937D01*
X152065063Y-93126379D01*
X152065069Y-93126383D01*
X152152191Y-93189683D01*
X152194857Y-93245013D01*
X152200835Y-93314627D01*
X152168228Y-93376421D01*
X152152191Y-93390317D01*
X152065069Y-93453616D01*
X152065060Y-93453623D01*
X151903622Y-93615061D01*
X151769421Y-93799771D01*
X151665770Y-94003196D01*
X151595215Y-94220339D01*
X151559500Y-94445837D01*
X151559500Y-94674162D01*
X151595215Y-94899660D01*
X151665770Y-95116803D01*
X151754019Y-95290000D01*
X151769421Y-95320228D01*
X151903621Y-95504937D01*
X152065063Y-95666379D01*
X152065069Y-95666383D01*
X152152191Y-95729683D01*
X152194857Y-95785013D01*
X152200835Y-95854627D01*
X152168228Y-95916421D01*
X152152191Y-95930317D01*
X152065069Y-95993616D01*
X152065060Y-95993623D01*
X151903622Y-96155061D01*
X151769421Y-96339771D01*
X151665770Y-96543196D01*
X151595215Y-96760339D01*
X151559500Y-96985837D01*
X151559500Y-97214162D01*
X151595215Y-97439660D01*
X151665770Y-97656803D01*
X151754019Y-97830000D01*
X151769421Y-97860228D01*
X151903621Y-98044937D01*
X152065063Y-98206379D01*
X152237681Y-98331794D01*
X152280346Y-98387124D01*
X152286325Y-98456738D01*
X152253719Y-98518533D01*
X152237681Y-98532430D01*
X152130535Y-98610276D01*
X151980276Y-98760535D01*
X151980272Y-98760540D01*
X151855379Y-98932442D01*
X151758904Y-99121782D01*
X151693242Y-99323870D01*
X151693242Y-99323873D01*
X151682769Y-99390000D01*
X152576988Y-99390000D01*
X152544075Y-99447007D01*
X152510000Y-99574174D01*
X152510000Y-99705826D01*
X152544075Y-99832993D01*
X152576988Y-99890000D01*
X151682769Y-99890000D01*
X151693242Y-99956126D01*
X151693242Y-99956129D01*
X151758904Y-100158217D01*
X151855379Y-100347557D01*
X151980272Y-100519459D01*
X151980276Y-100519464D01*
X152130535Y-100669723D01*
X152130540Y-100669727D01*
X152302444Y-100794622D01*
X152312048Y-100799516D01*
X152362844Y-100847491D01*
X152379638Y-100915312D01*
X152357100Y-100981447D01*
X152312048Y-101020484D01*
X152302444Y-101025377D01*
X152130540Y-101150272D01*
X152130535Y-101150276D01*
X151980276Y-101300535D01*
X151980272Y-101300540D01*
X151855379Y-101472442D01*
X151758904Y-101661782D01*
X151693242Y-101863870D01*
X151693242Y-101863873D01*
X151682769Y-101930000D01*
X152576988Y-101930000D01*
X152544075Y-101987007D01*
X152510000Y-102114174D01*
X152510000Y-102245826D01*
X152544075Y-102372993D01*
X152576988Y-102430000D01*
X151682769Y-102430000D01*
X151693242Y-102496126D01*
X151693242Y-102496129D01*
X151758904Y-102698217D01*
X151855379Y-102887557D01*
X151980272Y-103059459D01*
X151980276Y-103059464D01*
X152130539Y-103209727D01*
X152237681Y-103287569D01*
X152280347Y-103342898D01*
X152286326Y-103412512D01*
X152253721Y-103474307D01*
X152237682Y-103488205D01*
X152065061Y-103613622D01*
X151903622Y-103775061D01*
X151769421Y-103959771D01*
X151665770Y-104163196D01*
X151595215Y-104380339D01*
X151559500Y-104605837D01*
X151559500Y-104834162D01*
X151595215Y-105059660D01*
X151665770Y-105276803D01*
X151769421Y-105480228D01*
X151903621Y-105664937D01*
X152065063Y-105826379D01*
X152249772Y-105960579D01*
X152316413Y-105994534D01*
X152453196Y-106064229D01*
X152453198Y-106064229D01*
X152453201Y-106064231D01*
X152569592Y-106102049D01*
X152670339Y-106134784D01*
X152895838Y-106170500D01*
X152895843Y-106170500D01*
X153124162Y-106170500D01*
X153349660Y-106134784D01*
X153566799Y-106064231D01*
X153770228Y-105960579D01*
X153954937Y-105826379D01*
X154116379Y-105664937D01*
X154250579Y-105480228D01*
X154354231Y-105276799D01*
X154424784Y-105059660D01*
X154460500Y-104834162D01*
X154460500Y-104605837D01*
X154424784Y-104380339D01*
X154354229Y-104163196D01*
X154250578Y-103959771D01*
X154215275Y-103911181D01*
X154116379Y-103775063D01*
X153954937Y-103613621D01*
X153782317Y-103488204D01*
X153739653Y-103432874D01*
X153733674Y-103363261D01*
X153766280Y-103301466D01*
X153782319Y-103287569D01*
X153889460Y-103209727D01*
X154039723Y-103059464D01*
X154039727Y-103059459D01*
X154164620Y-102887557D01*
X154261095Y-102698217D01*
X154326757Y-102496129D01*
X154326757Y-102496126D01*
X154337231Y-102430000D01*
X153443012Y-102430000D01*
X153475925Y-102372993D01*
X153510000Y-102245826D01*
X153510000Y-102114174D01*
X153475925Y-101987007D01*
X153443012Y-101930000D01*
X154337231Y-101930000D01*
X154326757Y-101863873D01*
X154326757Y-101863870D01*
X154261095Y-101661782D01*
X154164620Y-101472442D01*
X154039727Y-101300540D01*
X154039723Y-101300535D01*
X153889464Y-101150276D01*
X153889459Y-101150272D01*
X153717558Y-101025379D01*
X153707954Y-101020486D01*
X153657157Y-100972512D01*
X153640361Y-100904692D01*
X153662897Y-100838556D01*
X153707954Y-100799514D01*
X153717558Y-100794620D01*
X153889459Y-100669727D01*
X153889464Y-100669723D01*
X154039723Y-100519464D01*
X154039727Y-100519459D01*
X154164620Y-100347557D01*
X154261095Y-100158217D01*
X154326757Y-99956129D01*
X154326757Y-99956126D01*
X154337231Y-99890000D01*
X153443012Y-99890000D01*
X153475925Y-99832993D01*
X153510000Y-99705826D01*
X153510000Y-99574174D01*
X153475925Y-99447007D01*
X153443012Y-99390000D01*
X154337231Y-99390000D01*
X154326757Y-99323873D01*
X154326757Y-99323870D01*
X154261095Y-99121782D01*
X154164620Y-98932442D01*
X154039727Y-98760540D01*
X154039723Y-98760535D01*
X153889464Y-98610276D01*
X153889459Y-98610272D01*
X153782319Y-98532430D01*
X153739653Y-98477100D01*
X153733674Y-98407487D01*
X153766280Y-98345692D01*
X153782310Y-98331800D01*
X153954937Y-98206379D01*
X154116379Y-98044937D01*
X154250579Y-97860228D01*
X154354231Y-97656799D01*
X154424784Y-97439660D01*
X154460500Y-97214162D01*
X154460500Y-96985837D01*
X154424784Y-96760339D01*
X154354229Y-96543196D01*
X154250578Y-96339771D01*
X154116379Y-96155063D01*
X153954937Y-95993621D01*
X153867807Y-95930317D01*
X153825143Y-95874988D01*
X153819164Y-95805374D01*
X153851770Y-95743579D01*
X153867807Y-95729683D01*
X153954937Y-95666379D01*
X154116379Y-95504937D01*
X154250579Y-95320228D01*
X154354231Y-95116799D01*
X154424784Y-94899660D01*
X154460500Y-94674162D01*
X154460500Y-94445837D01*
X154424784Y-94220339D01*
X154354229Y-94003196D01*
X154250578Y-93799771D01*
X154116379Y-93615063D01*
X153954937Y-93453621D01*
X153867807Y-93390317D01*
X153825143Y-93334988D01*
X153819164Y-93265374D01*
X153851770Y-93203579D01*
X153867807Y-93189683D01*
X153954937Y-93126379D01*
X154116379Y-92964937D01*
X154250579Y-92780228D01*
X154354231Y-92576799D01*
X154424784Y-92359660D01*
X154460500Y-92134162D01*
X154460500Y-91905837D01*
X154424784Y-91680339D01*
X154354229Y-91463196D01*
X154250578Y-91259771D01*
X154116379Y-91075063D01*
X153954937Y-90913621D01*
X153867807Y-90850317D01*
X153825143Y-90794988D01*
X153819164Y-90725374D01*
X153851770Y-90663579D01*
X153867807Y-90649683D01*
X153954937Y-90586379D01*
X154116379Y-90424937D01*
X154250579Y-90240228D01*
X154354231Y-90036799D01*
X154424784Y-89819660D01*
X154460500Y-89594162D01*
X154460500Y-89365837D01*
X154424784Y-89140339D01*
X154354229Y-88923196D01*
X154250578Y-88719771D01*
X154116379Y-88535063D01*
X154105275Y-88523959D01*
X154071790Y-88462636D01*
X154076774Y-88392944D01*
X154118646Y-88337011D01*
X154145499Y-88321718D01*
X154162841Y-88314536D01*
X154288282Y-88218282D01*
X154384536Y-88092841D01*
X154445044Y-87946762D01*
X154460500Y-87829361D01*
X154460499Y-86050640D01*
X154460499Y-86050639D01*
X154460499Y-86050636D01*
X154445046Y-85933246D01*
X154445044Y-85933239D01*
X154445044Y-85933238D01*
X154384536Y-85787159D01*
X154288282Y-85661718D01*
X154162841Y-85565464D01*
X154016762Y-85504956D01*
X154016760Y-85504955D01*
X153899370Y-85489501D01*
X153899367Y-85489500D01*
X153899361Y-85489500D01*
X153899354Y-85489500D01*
X152120636Y-85489500D01*
X152003246Y-85504953D01*
X152003237Y-85504956D01*
X151857160Y-85565463D01*
X151731718Y-85661718D01*
X151635463Y-85787160D01*
X151574956Y-85933237D01*
X151574955Y-85933239D01*
X151559501Y-86050629D01*
X151559501Y-86050636D01*
X151559500Y-86050645D01*
X149100500Y-86050645D01*
X149100500Y-78665837D01*
X199819500Y-78665837D01*
X199819500Y-78894162D01*
X199855215Y-79119660D01*
X199925770Y-79336803D01*
X200029421Y-79540228D01*
X200163621Y-79724937D01*
X200325063Y-79886379D01*
X200325069Y-79886383D01*
X200412191Y-79949683D01*
X200454857Y-80005013D01*
X200460835Y-80074627D01*
X200428228Y-80136421D01*
X200412191Y-80150317D01*
X200325069Y-80213616D01*
X200325060Y-80213623D01*
X200163622Y-80375061D01*
X200029421Y-80559771D01*
X199925770Y-80763196D01*
X199855215Y-80980339D01*
X199819500Y-81205837D01*
X199819500Y-81434162D01*
X199855215Y-81659660D01*
X199925770Y-81876803D01*
X200029421Y-82080228D01*
X200163621Y-82264937D01*
X200325063Y-82426379D01*
X200325069Y-82426383D01*
X200412191Y-82489683D01*
X200454857Y-82545013D01*
X200460835Y-82614627D01*
X200428228Y-82676421D01*
X200412191Y-82690317D01*
X200325069Y-82753616D01*
X200325060Y-82753623D01*
X200163622Y-82915061D01*
X200029421Y-83099771D01*
X199925770Y-83303196D01*
X199855215Y-83520339D01*
X199819500Y-83745837D01*
X199819500Y-83974162D01*
X199855215Y-84199660D01*
X199925770Y-84416803D01*
X200029421Y-84620228D01*
X200163621Y-84804937D01*
X200325063Y-84966379D01*
X200325069Y-84966383D01*
X200412191Y-85029683D01*
X200454857Y-85085013D01*
X200460835Y-85154627D01*
X200428228Y-85216421D01*
X200412191Y-85230317D01*
X200325069Y-85293616D01*
X200325060Y-85293623D01*
X200163622Y-85455061D01*
X200029421Y-85639771D01*
X199925770Y-85843196D01*
X199855215Y-86060339D01*
X199819500Y-86285837D01*
X199819500Y-86514162D01*
X199855215Y-86739660D01*
X199925770Y-86956803D01*
X200029421Y-87160228D01*
X200163621Y-87344937D01*
X200325063Y-87506379D01*
X200325069Y-87506383D01*
X200412191Y-87569683D01*
X200454857Y-87625013D01*
X200460835Y-87694627D01*
X200428228Y-87756421D01*
X200412191Y-87770317D01*
X200325069Y-87833616D01*
X200325060Y-87833623D01*
X200163622Y-87995061D01*
X200029421Y-88179771D01*
X199925770Y-88383196D01*
X199855215Y-88600339D01*
X199819500Y-88825837D01*
X199819500Y-89054162D01*
X199855215Y-89279660D01*
X199925770Y-89496803D01*
X200029421Y-89700228D01*
X200163621Y-89884937D01*
X200325063Y-90046379D01*
X200325069Y-90046383D01*
X200412191Y-90109683D01*
X200454857Y-90165013D01*
X200460835Y-90234627D01*
X200428228Y-90296421D01*
X200412191Y-90310317D01*
X200325069Y-90373616D01*
X200325060Y-90373623D01*
X200163622Y-90535061D01*
X200029421Y-90719771D01*
X199925770Y-90923196D01*
X199855215Y-91140339D01*
X199819500Y-91365837D01*
X199819500Y-91594162D01*
X199855215Y-91819660D01*
X199925770Y-92036803D01*
X200029421Y-92240228D01*
X200163621Y-92424937D01*
X200325063Y-92586379D01*
X200325069Y-92586383D01*
X200412191Y-92649683D01*
X200454857Y-92705013D01*
X200460835Y-92774627D01*
X200428228Y-92836421D01*
X200412191Y-92850317D01*
X200325069Y-92913616D01*
X200325060Y-92913623D01*
X200163622Y-93075061D01*
X200029421Y-93259771D01*
X199925770Y-93463196D01*
X199855215Y-93680339D01*
X199819500Y-93905837D01*
X199819500Y-94134162D01*
X199855215Y-94359660D01*
X199925770Y-94576803D01*
X200029421Y-94780228D01*
X200163621Y-94964937D01*
X200325063Y-95126379D01*
X200325069Y-95126383D01*
X200412191Y-95189683D01*
X200454857Y-95245013D01*
X200460835Y-95314627D01*
X200428228Y-95376421D01*
X200412191Y-95390317D01*
X200325069Y-95453616D01*
X200325060Y-95453623D01*
X200163622Y-95615061D01*
X200029421Y-95799771D01*
X199925770Y-96003196D01*
X199855215Y-96220339D01*
X199819500Y-96445837D01*
X199819500Y-96674162D01*
X199855215Y-96899660D01*
X199925770Y-97116803D01*
X200029421Y-97320228D01*
X200163621Y-97504937D01*
X200325063Y-97666379D01*
X200325069Y-97666383D01*
X200412191Y-97729683D01*
X200454857Y-97785013D01*
X200460835Y-97854627D01*
X200428228Y-97916421D01*
X200412191Y-97930317D01*
X200325069Y-97993616D01*
X200325060Y-97993623D01*
X200163622Y-98155061D01*
X200029421Y-98339771D01*
X199925770Y-98543196D01*
X199855215Y-98760339D01*
X199819500Y-98985837D01*
X199819500Y-99214162D01*
X199855215Y-99439660D01*
X199925770Y-99656803D01*
X200029421Y-99860228D01*
X200163622Y-100044938D01*
X200174724Y-100056040D01*
X200208209Y-100117363D01*
X200203225Y-100187055D01*
X200161353Y-100242988D01*
X200134499Y-100258281D01*
X200117160Y-100265463D01*
X199991718Y-100361718D01*
X199895463Y-100487160D01*
X199834956Y-100633237D01*
X199834955Y-100633239D01*
X199819501Y-100750629D01*
X199819501Y-100750636D01*
X199819500Y-100750645D01*
X199819500Y-102529363D01*
X199834953Y-102646753D01*
X199834956Y-102646762D01*
X199895464Y-102792841D01*
X199991718Y-102918282D01*
X200117159Y-103014536D01*
X200263238Y-103075044D01*
X200380639Y-103090500D01*
X202159360Y-103090499D01*
X202159363Y-103090499D01*
X202276753Y-103075046D01*
X202276757Y-103075044D01*
X202276762Y-103075044D01*
X202422841Y-103014536D01*
X202548282Y-102918282D01*
X202644536Y-102792841D01*
X202705044Y-102646762D01*
X202720500Y-102529361D01*
X202720499Y-100750640D01*
X202720499Y-100750639D01*
X202720499Y-100750636D01*
X202705046Y-100633246D01*
X202705044Y-100633239D01*
X202705044Y-100633238D01*
X202644536Y-100487159D01*
X202548282Y-100361718D01*
X202422841Y-100265464D01*
X202422839Y-100265463D01*
X202405501Y-100258281D01*
X202351099Y-100214438D01*
X202329036Y-100148143D01*
X202346317Y-100080444D01*
X202365279Y-100056037D01*
X202376374Y-100044942D01*
X202376374Y-100044941D01*
X202376379Y-100044937D01*
X202510579Y-99860228D01*
X202614231Y-99656799D01*
X202684784Y-99439660D01*
X202720500Y-99214162D01*
X202720500Y-98985837D01*
X202684784Y-98760339D01*
X202636024Y-98610272D01*
X202614231Y-98543201D01*
X202614229Y-98543198D01*
X202614229Y-98543196D01*
X202510578Y-98339771D01*
X202376379Y-98155063D01*
X202214937Y-97993621D01*
X202127807Y-97930317D01*
X202085143Y-97874988D01*
X202079164Y-97805374D01*
X202111770Y-97743579D01*
X202127807Y-97729683D01*
X202214937Y-97666379D01*
X202376379Y-97504937D01*
X202510579Y-97320228D01*
X202614231Y-97116799D01*
X202684784Y-96899660D01*
X202720500Y-96674162D01*
X202720500Y-96445837D01*
X202684784Y-96220339D01*
X202614229Y-96003196D01*
X202548903Y-95874988D01*
X202510579Y-95799772D01*
X202376379Y-95615063D01*
X202214937Y-95453621D01*
X202127807Y-95390317D01*
X202085143Y-95334988D01*
X202079164Y-95265374D01*
X202111770Y-95203579D01*
X202127807Y-95189683D01*
X202214937Y-95126379D01*
X202376379Y-94964937D01*
X202510579Y-94780228D01*
X202614231Y-94576799D01*
X202684784Y-94359660D01*
X202720500Y-94134162D01*
X202720500Y-93905837D01*
X202684784Y-93680339D01*
X202614229Y-93463196D01*
X202548903Y-93334988D01*
X202510579Y-93259772D01*
X202376379Y-93075063D01*
X202214937Y-92913621D01*
X202127807Y-92850317D01*
X202085143Y-92794988D01*
X202079164Y-92725374D01*
X202111770Y-92663579D01*
X202127807Y-92649683D01*
X202214937Y-92586379D01*
X202376379Y-92424937D01*
X202510579Y-92240228D01*
X202614231Y-92036799D01*
X202684784Y-91819660D01*
X202720500Y-91594162D01*
X202720500Y-91365837D01*
X202684784Y-91140339D01*
X202614229Y-90923196D01*
X202548903Y-90794988D01*
X202510579Y-90719772D01*
X202376379Y-90535063D01*
X202214937Y-90373621D01*
X202127807Y-90310317D01*
X202085143Y-90254988D01*
X202079164Y-90185374D01*
X202111770Y-90123579D01*
X202127807Y-90109683D01*
X202214937Y-90046379D01*
X202376379Y-89884937D01*
X202510579Y-89700228D01*
X202614231Y-89496799D01*
X202684784Y-89279660D01*
X202720500Y-89054162D01*
X202720500Y-88825837D01*
X202684784Y-88600339D01*
X202630039Y-88431852D01*
X202614231Y-88383201D01*
X202614229Y-88383198D01*
X202614229Y-88383196D01*
X202559550Y-88275884D01*
X202510579Y-88179772D01*
X202376379Y-87995063D01*
X202214937Y-87833621D01*
X202127807Y-87770317D01*
X202085143Y-87714988D01*
X202079164Y-87645374D01*
X202111770Y-87583579D01*
X202127807Y-87569683D01*
X202214937Y-87506379D01*
X202376379Y-87344937D01*
X202510579Y-87160228D01*
X202614231Y-86956799D01*
X202684784Y-86739660D01*
X202720500Y-86514162D01*
X202720500Y-86285837D01*
X202684784Y-86060339D01*
X202652049Y-85959592D01*
X202614231Y-85843201D01*
X202614229Y-85843198D01*
X202614229Y-85843196D01*
X202510578Y-85639771D01*
X202376379Y-85455063D01*
X202214937Y-85293621D01*
X202127807Y-85230317D01*
X202085143Y-85174988D01*
X202079164Y-85105374D01*
X202111770Y-85043579D01*
X202127807Y-85029683D01*
X202214937Y-84966379D01*
X202376379Y-84804937D01*
X202510579Y-84620228D01*
X202614231Y-84416799D01*
X202684784Y-84199660D01*
X202720500Y-83974162D01*
X202720500Y-83745837D01*
X202684784Y-83520339D01*
X202614229Y-83303196D01*
X202510578Y-83099771D01*
X202376379Y-82915063D01*
X202214937Y-82753621D01*
X202127807Y-82690317D01*
X202085143Y-82634988D01*
X202079164Y-82565374D01*
X202111770Y-82503579D01*
X202127807Y-82489683D01*
X202214937Y-82426379D01*
X202376379Y-82264937D01*
X202510579Y-82080228D01*
X202614231Y-81876799D01*
X202684784Y-81659660D01*
X202720500Y-81434162D01*
X202720500Y-81205837D01*
X202684784Y-80980339D01*
X202614229Y-80763196D01*
X202510578Y-80559771D01*
X202376379Y-80375063D01*
X202214937Y-80213621D01*
X202127807Y-80150317D01*
X202085143Y-80094988D01*
X202079164Y-80025374D01*
X202111770Y-79963579D01*
X202127807Y-79949683D01*
X202214937Y-79886379D01*
X202376379Y-79724937D01*
X202510579Y-79540228D01*
X202614231Y-79336799D01*
X202684784Y-79119660D01*
X202720500Y-78894162D01*
X202720500Y-78665837D01*
X202684784Y-78440339D01*
X202614229Y-78223196D01*
X202510578Y-78019771D01*
X202376379Y-77835063D01*
X202214937Y-77673621D01*
X202030228Y-77539421D01*
X201826803Y-77435770D01*
X201609660Y-77365215D01*
X201384162Y-77329500D01*
X201384157Y-77329500D01*
X201155843Y-77329500D01*
X201155838Y-77329500D01*
X200930339Y-77365215D01*
X200713196Y-77435770D01*
X200509771Y-77539421D01*
X200325061Y-77673622D01*
X200163622Y-77835061D01*
X200029421Y-78019771D01*
X199925770Y-78223196D01*
X199855215Y-78440339D01*
X199819500Y-78665837D01*
X149100500Y-78665837D01*
X149100500Y-75224500D01*
X149120185Y-75157461D01*
X149172989Y-75111706D01*
X149224500Y-75100500D01*
X204775500Y-75100500D01*
X204842539Y-75120185D01*
G37*
%TD.AperFunction*%
%TD*%
M02*
