%TF.GenerationSoftware,KiCad,Pcbnew,9.0.0*%
%TF.CreationDate,2025-03-04T19:19:51+01:00*%
%TF.ProjectId,ProgrammingBoard,50726f67-7261-46d6-9d69-6e67426f6172,rev?*%
%TF.SameCoordinates,Original*%
%TF.FileFunction,Legend,Top*%
%TF.FilePolarity,Positive*%
%FSLAX46Y46*%
G04 Gerber Fmt 4.6, Leading zero omitted, Abs format (unit mm)*
G04 Created by KiCad (PCBNEW 9.0.0) date 2025-03-04 19:19:51*
%MOMM*%
%LPD*%
G01*
G04 APERTURE LIST*
%ADD10C,0.150000*%
%ADD11C,0.127000*%
%ADD12C,0.200000*%
%ADD13C,0.120000*%
G04 APERTURE END LIST*
D10*
X174703095Y-103537819D02*
X174703095Y-104347342D01*
X174703095Y-104347342D02*
X174750714Y-104442580D01*
X174750714Y-104442580D02*
X174798333Y-104490200D01*
X174798333Y-104490200D02*
X174893571Y-104537819D01*
X174893571Y-104537819D02*
X175084047Y-104537819D01*
X175084047Y-104537819D02*
X175179285Y-104490200D01*
X175179285Y-104490200D02*
X175226904Y-104442580D01*
X175226904Y-104442580D02*
X175274523Y-104347342D01*
X175274523Y-104347342D02*
X175274523Y-103537819D01*
X176274523Y-104537819D02*
X175703095Y-104537819D01*
X175988809Y-104537819D02*
X175988809Y-103537819D01*
X175988809Y-103537819D02*
X175893571Y-103680676D01*
X175893571Y-103680676D02*
X175798333Y-103775914D01*
X175798333Y-103775914D02*
X175703095Y-103823533D01*
X162323333Y-108064819D02*
X161990000Y-107588628D01*
X161751905Y-108064819D02*
X161751905Y-107064819D01*
X161751905Y-107064819D02*
X162132857Y-107064819D01*
X162132857Y-107064819D02*
X162228095Y-107112438D01*
X162228095Y-107112438D02*
X162275714Y-107160057D01*
X162275714Y-107160057D02*
X162323333Y-107255295D01*
X162323333Y-107255295D02*
X162323333Y-107398152D01*
X162323333Y-107398152D02*
X162275714Y-107493390D01*
X162275714Y-107493390D02*
X162228095Y-107541009D01*
X162228095Y-107541009D02*
X162132857Y-107588628D01*
X162132857Y-107588628D02*
X161751905Y-107588628D01*
X162704286Y-107160057D02*
X162751905Y-107112438D01*
X162751905Y-107112438D02*
X162847143Y-107064819D01*
X162847143Y-107064819D02*
X163085238Y-107064819D01*
X163085238Y-107064819D02*
X163180476Y-107112438D01*
X163180476Y-107112438D02*
X163228095Y-107160057D01*
X163228095Y-107160057D02*
X163275714Y-107255295D01*
X163275714Y-107255295D02*
X163275714Y-107350533D01*
X163275714Y-107350533D02*
X163228095Y-107493390D01*
X163228095Y-107493390D02*
X162656667Y-108064819D01*
X162656667Y-108064819D02*
X163275714Y-108064819D01*
X162404819Y-110896666D02*
X161928628Y-111229999D01*
X162404819Y-111468094D02*
X161404819Y-111468094D01*
X161404819Y-111468094D02*
X161404819Y-111087142D01*
X161404819Y-111087142D02*
X161452438Y-110991904D01*
X161452438Y-110991904D02*
X161500057Y-110944285D01*
X161500057Y-110944285D02*
X161595295Y-110896666D01*
X161595295Y-110896666D02*
X161738152Y-110896666D01*
X161738152Y-110896666D02*
X161833390Y-110944285D01*
X161833390Y-110944285D02*
X161881009Y-110991904D01*
X161881009Y-110991904D02*
X161928628Y-111087142D01*
X161928628Y-111087142D02*
X161928628Y-111468094D01*
X162404819Y-109944285D02*
X162404819Y-110515713D01*
X162404819Y-110229999D02*
X161404819Y-110229999D01*
X161404819Y-110229999D02*
X161547676Y-110325237D01*
X161547676Y-110325237D02*
X161642914Y-110420475D01*
X161642914Y-110420475D02*
X161690533Y-110515713D01*
X152676666Y-84064819D02*
X152676666Y-84779104D01*
X152676666Y-84779104D02*
X152629047Y-84921961D01*
X152629047Y-84921961D02*
X152533809Y-85017200D01*
X152533809Y-85017200D02*
X152390952Y-85064819D01*
X152390952Y-85064819D02*
X152295714Y-85064819D01*
X153581428Y-84064819D02*
X153390952Y-84064819D01*
X153390952Y-84064819D02*
X153295714Y-84112438D01*
X153295714Y-84112438D02*
X153248095Y-84160057D01*
X153248095Y-84160057D02*
X153152857Y-84302914D01*
X153152857Y-84302914D02*
X153105238Y-84493390D01*
X153105238Y-84493390D02*
X153105238Y-84874342D01*
X153105238Y-84874342D02*
X153152857Y-84969580D01*
X153152857Y-84969580D02*
X153200476Y-85017200D01*
X153200476Y-85017200D02*
X153295714Y-85064819D01*
X153295714Y-85064819D02*
X153486190Y-85064819D01*
X153486190Y-85064819D02*
X153581428Y-85017200D01*
X153581428Y-85017200D02*
X153629047Y-84969580D01*
X153629047Y-84969580D02*
X153676666Y-84874342D01*
X153676666Y-84874342D02*
X153676666Y-84636247D01*
X153676666Y-84636247D02*
X153629047Y-84541009D01*
X153629047Y-84541009D02*
X153581428Y-84493390D01*
X153581428Y-84493390D02*
X153486190Y-84445771D01*
X153486190Y-84445771D02*
X153295714Y-84445771D01*
X153295714Y-84445771D02*
X153200476Y-84493390D01*
X153200476Y-84493390D02*
X153152857Y-84541009D01*
X153152857Y-84541009D02*
X153105238Y-84636247D01*
X152666666Y-106924819D02*
X152666666Y-107639104D01*
X152666666Y-107639104D02*
X152619047Y-107781961D01*
X152619047Y-107781961D02*
X152523809Y-107877200D01*
X152523809Y-107877200D02*
X152380952Y-107924819D01*
X152380952Y-107924819D02*
X152285714Y-107924819D01*
X153619047Y-106924819D02*
X153142857Y-106924819D01*
X153142857Y-106924819D02*
X153095238Y-107401009D01*
X153095238Y-107401009D02*
X153142857Y-107353390D01*
X153142857Y-107353390D02*
X153238095Y-107305771D01*
X153238095Y-107305771D02*
X153476190Y-107305771D01*
X153476190Y-107305771D02*
X153571428Y-107353390D01*
X153571428Y-107353390D02*
X153619047Y-107401009D01*
X153619047Y-107401009D02*
X153666666Y-107496247D01*
X153666666Y-107496247D02*
X153666666Y-107734342D01*
X153666666Y-107734342D02*
X153619047Y-107829580D01*
X153619047Y-107829580D02*
X153571428Y-107877200D01*
X153571428Y-107877200D02*
X153476190Y-107924819D01*
X153476190Y-107924819D02*
X153238095Y-107924819D01*
X153238095Y-107924819D02*
X153142857Y-107877200D01*
X153142857Y-107877200D02*
X153095238Y-107829580D01*
X200936666Y-103424819D02*
X200936666Y-104139104D01*
X200936666Y-104139104D02*
X200889047Y-104281961D01*
X200889047Y-104281961D02*
X200793809Y-104377200D01*
X200793809Y-104377200D02*
X200650952Y-104424819D01*
X200650952Y-104424819D02*
X200555714Y-104424819D01*
X201841428Y-103758152D02*
X201841428Y-104424819D01*
X201603333Y-103377200D02*
X201365238Y-104091485D01*
X201365238Y-104091485D02*
X201984285Y-104091485D01*
X200926666Y-125264819D02*
X200926666Y-125979104D01*
X200926666Y-125979104D02*
X200879047Y-126121961D01*
X200879047Y-126121961D02*
X200783809Y-126217200D01*
X200783809Y-126217200D02*
X200640952Y-126264819D01*
X200640952Y-126264819D02*
X200545714Y-126264819D01*
X201307619Y-125264819D02*
X201926666Y-125264819D01*
X201926666Y-125264819D02*
X201593333Y-125645771D01*
X201593333Y-125645771D02*
X201736190Y-125645771D01*
X201736190Y-125645771D02*
X201831428Y-125693390D01*
X201831428Y-125693390D02*
X201879047Y-125741009D01*
X201879047Y-125741009D02*
X201926666Y-125836247D01*
X201926666Y-125836247D02*
X201926666Y-126074342D01*
X201926666Y-126074342D02*
X201879047Y-126169580D01*
X201879047Y-126169580D02*
X201831428Y-126217200D01*
X201831428Y-126217200D02*
X201736190Y-126264819D01*
X201736190Y-126264819D02*
X201450476Y-126264819D01*
X201450476Y-126264819D02*
X201355238Y-126217200D01*
X201355238Y-126217200D02*
X201307619Y-126169580D01*
X171224819Y-131333333D02*
X171939104Y-131333333D01*
X171939104Y-131333333D02*
X172081961Y-131380952D01*
X172081961Y-131380952D02*
X172177200Y-131476190D01*
X172177200Y-131476190D02*
X172224819Y-131619047D01*
X172224819Y-131619047D02*
X172224819Y-131714285D01*
X171320057Y-130904761D02*
X171272438Y-130857142D01*
X171272438Y-130857142D02*
X171224819Y-130761904D01*
X171224819Y-130761904D02*
X171224819Y-130523809D01*
X171224819Y-130523809D02*
X171272438Y-130428571D01*
X171272438Y-130428571D02*
X171320057Y-130380952D01*
X171320057Y-130380952D02*
X171415295Y-130333333D01*
X171415295Y-130333333D02*
X171510533Y-130333333D01*
X171510533Y-130333333D02*
X171653390Y-130380952D01*
X171653390Y-130380952D02*
X172224819Y-130952380D01*
X172224819Y-130952380D02*
X172224819Y-130333333D01*
X181684819Y-131333333D02*
X182399104Y-131333333D01*
X182399104Y-131333333D02*
X182541961Y-131380952D01*
X182541961Y-131380952D02*
X182637200Y-131476190D01*
X182637200Y-131476190D02*
X182684819Y-131619047D01*
X182684819Y-131619047D02*
X182684819Y-131714285D01*
X182684819Y-130333333D02*
X182684819Y-130904761D01*
X182684819Y-130619047D02*
X181684819Y-130619047D01*
X181684819Y-130619047D02*
X181827676Y-130714285D01*
X181827676Y-130714285D02*
X181922914Y-130809523D01*
X181922914Y-130809523D02*
X181970533Y-130904761D01*
D11*
%TO.C,U1*%
X172855000Y-104895000D02*
X179205000Y-104895000D01*
X172855000Y-114485000D02*
X179205000Y-114485000D01*
D12*
X171095000Y-105880000D02*
G75*
G02*
X170895000Y-105880000I-100000J0D01*
G01*
X170895000Y-105880000D02*
G75*
G02*
X171095000Y-105880000I100000J0D01*
G01*
D13*
%TO.C,R2*%
X164410000Y-106610000D02*
X160570000Y-106610000D01*
X164410000Y-104770000D02*
X160570000Y-104770000D01*
%TO.C,R1*%
X160950000Y-108810000D02*
X160950000Y-112650000D01*
X159110000Y-108810000D02*
X159110000Y-112650000D01*
%TO.C,J6*%
X151680000Y-85610000D02*
X153010000Y-85610000D01*
X151680000Y-86940000D02*
X151680000Y-85610000D01*
X151680000Y-88210000D02*
X151680000Y-106050000D01*
X151680000Y-88210000D02*
X154340000Y-88210000D01*
X151680000Y-106050000D02*
X154340000Y-106050000D01*
X154340000Y-88210000D02*
X154340000Y-106050000D01*
%TO.C,J5*%
X151670000Y-108470000D02*
X153000000Y-108470000D01*
X151670000Y-109800000D02*
X151670000Y-108470000D01*
X151670000Y-111070000D02*
X151670000Y-123830000D01*
X151670000Y-111070000D02*
X154330000Y-111070000D01*
X151670000Y-123830000D02*
X154330000Y-123830000D01*
X154330000Y-111070000D02*
X154330000Y-123830000D01*
%TO.C,J4*%
X202600000Y-102970000D02*
X201270000Y-102970000D01*
X202600000Y-101640000D02*
X202600000Y-102970000D01*
X202600000Y-100370000D02*
X202600000Y-77450000D01*
X202600000Y-100370000D02*
X199940000Y-100370000D01*
X202600000Y-77450000D02*
X199940000Y-77450000D01*
X199940000Y-100370000D02*
X199940000Y-77450000D01*
%TO.C,J3*%
X202590000Y-124810000D02*
X201260000Y-124810000D01*
X202590000Y-123480000D02*
X202590000Y-124810000D01*
X202590000Y-122210000D02*
X202590000Y-104370000D01*
X202590000Y-122210000D02*
X199930000Y-122210000D01*
X202590000Y-104370000D02*
X199930000Y-104370000D01*
X199930000Y-122210000D02*
X199930000Y-104370000D01*
%TO.C,J2*%
X167730000Y-129670000D02*
X165130000Y-129670000D01*
X167730000Y-129670000D02*
X167730000Y-132330000D01*
X165130000Y-129670000D02*
X165130000Y-132330000D01*
X170330000Y-131000000D02*
X170330000Y-132330000D01*
X170330000Y-132330000D02*
X169000000Y-132330000D01*
X167730000Y-132330000D02*
X165130000Y-132330000D01*
%TO.C,J1*%
X186270000Y-132330000D02*
X188870000Y-132330000D01*
X186270000Y-132330000D02*
X186270000Y-129670000D01*
X188870000Y-132330000D02*
X188870000Y-129670000D01*
X183670000Y-131000000D02*
X183670000Y-129670000D01*
X183670000Y-129670000D02*
X185000000Y-129670000D01*
X186270000Y-129670000D02*
X188870000Y-129670000D01*
%TD*%
M02*
