M48
; DRILL file {KiCad 9.0.0} date 2025-03-04T19:19:58+0100
; FORMAT={-:-/ absolute / metric / decimal}
; #@! TF.CreationDate,2025-03-04T19:19:58+01:00
; #@! TF.GenerationSoftware,Kicad,Pcbnew,9.0.0
; #@! TF.FileFunction,Plated,1,2,PTH
FMAT,2
METRIC
; #@! TA.AperFunction,Plated,PTH,ComponentDrill
T1C0.700
; #@! TA.AperFunction,Plated,PTH,ComponentDrill
T2C0.780
; #@! TA.AperFunction,Plated,PTH,ComponentDrill
T3C1.000
%
G90
G05
T1
X159.95Y-105.69
X160.03Y-108.19
X160.03Y-113.27
X165.03Y-105.69
T2
X172.06Y-105.88
X172.06Y-108.42
X172.06Y-110.96
X172.06Y-113.5
X180.0Y-105.88
X180.0Y-108.42
X180.0Y-110.96
X180.0Y-113.5
T3
X153.0Y-109.8
X153.0Y-112.34
X153.0Y-114.88
X153.0Y-117.42
X153.0Y-119.96
X153.0Y-122.5
X153.01Y-86.94
X153.01Y-89.48
X153.01Y-92.02
X153.01Y-94.56
X153.01Y-97.1
X153.01Y-99.64
X153.01Y-102.18
X153.01Y-104.72
X166.46Y-131.0
X169.0Y-131.0
X185.0Y-131.0
X187.54Y-131.0
X201.26Y-105.7
X201.26Y-108.24
X201.26Y-110.78
X201.26Y-113.32
X201.26Y-115.86
X201.26Y-118.4
X201.26Y-120.94
X201.26Y-123.48
X201.27Y-78.78
X201.27Y-81.32
X201.27Y-83.86
X201.27Y-86.4
X201.27Y-88.94
X201.27Y-91.48
X201.27Y-94.02
X201.27Y-96.56
X201.27Y-99.1
X201.27Y-101.64
M30
