%TF.GenerationSoftware,KiCad,Pcbnew,9.0.0*%
%TF.CreationDate,2025-08-30T10:43:31+02:00*%
%TF.ProjectId,36mm PCB,33366d6d-2050-4434-922e-6b696361645f,rev?*%
%TF.SameCoordinates,Original*%
%TF.FileFunction,Copper,L6,Inr*%
%TF.FilePolarity,Positive*%
%FSLAX46Y46*%
G04 Gerber Fmt 4.6, Leading zero omitted, Abs format (unit mm)*
G04 Created by KiCad (PCBNEW 9.0.0) date 2025-08-30 10:43:31*
%MOMM*%
%LPD*%
G01*
G04 APERTURE LIST*
G04 Aperture macros list*
%AMRoundRect*
0 Rectangle with rounded corners*
0 $1 Rounding radius*
0 $2 $3 $4 $5 $6 $7 $8 $9 X,Y pos of 4 corners*
0 Add a 4 corners polygon primitive as box body*
4,1,4,$2,$3,$4,$5,$6,$7,$8,$9,$2,$3,0*
0 Add four circle primitives for the rounded corners*
1,1,$1+$1,$2,$3*
1,1,$1+$1,$4,$5*
1,1,$1+$1,$6,$7*
1,1,$1+$1,$8,$9*
0 Add four rect primitives between the rounded corners*
20,1,$1+$1,$2,$3,$4,$5,0*
20,1,$1+$1,$4,$5,$6,$7,0*
20,1,$1+$1,$6,$7,$8,$9,0*
20,1,$1+$1,$8,$9,$2,$3,0*%
G04 Aperture macros list end*
%TA.AperFunction,ComponentPad*%
%ADD10RoundRect,0.150000X-0.850000X-0.350000X0.850000X-0.350000X0.850000X0.350000X-0.850000X0.350000X0*%
%TD*%
%TA.AperFunction,ComponentPad*%
%ADD11C,0.500000*%
%TD*%
%TA.AperFunction,ComponentPad*%
%ADD12C,1.000000*%
%TD*%
%TA.AperFunction,ComponentPad*%
%ADD13RoundRect,0.150000X0.591910X-0.441184X0.042506X0.737016X-0.591910X0.441184X-0.042506X-0.737016X0*%
%TD*%
%TA.AperFunction,ViaPad*%
%ADD14C,0.500000*%
%TD*%
G04 APERTURE END LIST*
D10*
%TO.N,GND*%
%TO.C,TP15*%
X190057772Y-114509534D03*
%TD*%
D11*
%TO.N,+3.3V*%
%TO.C,IC6*%
X208542772Y-116831554D03*
%TO.N,I2C1_SDA*%
X210542772Y-117156554D03*
%TO.N,I2C1_SCL*%
X209867772Y-117481554D03*
%TO.N,GND*%
X209117772Y-117264534D03*
%TD*%
D10*
%TO.N,+3V0*%
%TO.C,TP14*%
X187632772Y-114509534D03*
%TD*%
D12*
%TO.N,SYS_SWCLK*%
%TO.C,TP18*%
X205490000Y-120600000D03*
%TD*%
D13*
%TO.N,Net-(C12-Pad2)*%
%TO.C,SW5*%
X189455162Y-120320686D03*
X187849213Y-116876717D03*
%TO.N,+3V0*%
X188186331Y-120912350D03*
X186580382Y-117468382D03*
%TD*%
D12*
%TO.N,SYS_SWDIO*%
%TO.C,TP17*%
X204370000Y-121300000D03*
%TD*%
D14*
%TO.N,I2C1_SDA*%
X199551130Y-123259000D03*
%TO.N,I2C1_SCL*%
X199570000Y-122409000D03*
%TO.N,+3V0*%
X193690000Y-125990000D03*
%TO.N,ADCVBAT*%
X209540000Y-123710000D03*
X194733732Y-116563689D03*
X193750000Y-117280000D03*
%TO.N,+3V0*%
X195190000Y-117600000D03*
%TO.N,GND*%
X206025478Y-118734534D03*
X205110000Y-124060000D03*
X208977772Y-119704534D03*
X209010000Y-123300000D03*
%TO.N,+3.3V*%
X204460000Y-124650000D03*
X199600000Y-121490000D03*
X208490000Y-118950000D03*
X196520000Y-116840000D03*
X212277772Y-118194534D03*
X199590000Y-124350000D03*
%TO.N,NRST*%
X210255935Y-121716592D03*
%TO.N,+3V0*%
X200510000Y-120300000D03*
X208175685Y-122940000D03*
X191740000Y-117240000D03*
%TO.N,Stat*%
X194347311Y-117022689D03*
X196120000Y-126550000D03*
%TO.N,Net-(IC1-MOT2)*%
X202410000Y-118475000D03*
%TO.N,Net-(IC1-MOT1)*%
X204047772Y-120424534D03*
%TO.N,I2C1_SDA*%
X206700000Y-121480000D03*
X196210000Y-117930000D03*
%TO.N,I2C1_SCL*%
X206760000Y-120680000D03*
X198740000Y-118630806D03*
%TO.N,GPIO_Output_Mono*%
X207480000Y-122360000D03*
X192020000Y-115300000D03*
%TO.N,GPIO_EXTI1*%
X205070000Y-122470000D03*
X191370000Y-115300000D03*
%TO.N,GPIO_EXTI9*%
X190680000Y-115700000D03*
X207510000Y-120870000D03*
%TO.N,Tim2_CH3*%
X206492157Y-123967843D03*
X207880000Y-119350000D03*
X210950000Y-122540000D03*
%TO.N,Tim2_CH1*%
X209535196Y-120866133D03*
X205797213Y-123980000D03*
X213391860Y-118690000D03*
%TO.N,Net-(Q4-D_1)*%
X211037772Y-120374534D03*
%TO.N,Net-(Q3-D_1)*%
X210257772Y-119214534D03*
%TO.N,VDD PROG*%
X204770000Y-119390000D03*
%TD*%
%TA.AperFunction,Conductor*%
%TO.N,+3.3V*%
G36*
X186478019Y-114004719D02*
G01*
X186523774Y-114057523D01*
X186533718Y-114126681D01*
X186532596Y-114133233D01*
X186532272Y-114134861D01*
X186532272Y-114884212D01*
X186546804Y-114957269D01*
X186546805Y-114957273D01*
X186557572Y-114973387D01*
X186602171Y-115040135D01*
X186669000Y-115084788D01*
X186685032Y-115095500D01*
X186685036Y-115095501D01*
X186758093Y-115110033D01*
X186758096Y-115110034D01*
X186758098Y-115110034D01*
X188507448Y-115110034D01*
X188507449Y-115110033D01*
X188580512Y-115095500D01*
X188663373Y-115040135D01*
X188718738Y-114957274D01*
X188720110Y-114950379D01*
X188723655Y-114932558D01*
X188756040Y-114870647D01*
X188816755Y-114836073D01*
X188886525Y-114839812D01*
X188943197Y-114880678D01*
X188966889Y-114932558D01*
X188971804Y-114957269D01*
X188971805Y-114957273D01*
X188982572Y-114973387D01*
X189027171Y-115040135D01*
X189094000Y-115084788D01*
X189110032Y-115095500D01*
X189110036Y-115095501D01*
X189183093Y-115110033D01*
X189183096Y-115110034D01*
X190585683Y-115110034D01*
X190652722Y-115129719D01*
X190698477Y-115182523D01*
X190708421Y-115251681D01*
X190679396Y-115315237D01*
X190620618Y-115353011D01*
X190617806Y-115353800D01*
X190544712Y-115373386D01*
X190544711Y-115373386D01*
X190544709Y-115373387D01*
X190544706Y-115373388D01*
X190464794Y-115419526D01*
X190464785Y-115419533D01*
X190399533Y-115484785D01*
X190399526Y-115484794D01*
X190353388Y-115564706D01*
X190353387Y-115564709D01*
X190353386Y-115564711D01*
X190353386Y-115564712D01*
X190329500Y-115653856D01*
X190329500Y-115746144D01*
X190352109Y-115830524D01*
X190353387Y-115835290D01*
X190353388Y-115835293D01*
X190399526Y-115915205D01*
X190399529Y-115915209D01*
X190399531Y-115915212D01*
X190464788Y-115980469D01*
X190464791Y-115980470D01*
X190464794Y-115980473D01*
X190544706Y-116026611D01*
X190544707Y-116026611D01*
X190544712Y-116026614D01*
X190633856Y-116050500D01*
X190633858Y-116050500D01*
X190726142Y-116050500D01*
X190726144Y-116050500D01*
X190815288Y-116026614D01*
X190895212Y-115980469D01*
X190960469Y-115915212D01*
X191006614Y-115835288D01*
X191030500Y-115746144D01*
X191030500Y-115723486D01*
X191050185Y-115656447D01*
X191102989Y-115610692D01*
X191172147Y-115600748D01*
X191216503Y-115616101D01*
X191234708Y-115626612D01*
X191234709Y-115626612D01*
X191234712Y-115626614D01*
X191323856Y-115650500D01*
X191323858Y-115650500D01*
X191416142Y-115650500D01*
X191416144Y-115650500D01*
X191505288Y-115626614D01*
X191585212Y-115580469D01*
X191607319Y-115558362D01*
X191668642Y-115524877D01*
X191738334Y-115529861D01*
X191782681Y-115558362D01*
X191804788Y-115580469D01*
X191804791Y-115580470D01*
X191804794Y-115580473D01*
X191884706Y-115626611D01*
X191884707Y-115626611D01*
X191884712Y-115626614D01*
X191973856Y-115650500D01*
X191973858Y-115650500D01*
X192066142Y-115650500D01*
X192066144Y-115650500D01*
X192155288Y-115626614D01*
X192235212Y-115580469D01*
X192300469Y-115515212D01*
X192346614Y-115435288D01*
X192346614Y-115435285D01*
X192348380Y-115432228D01*
X192398948Y-115384013D01*
X192467555Y-115370791D01*
X192532419Y-115396759D01*
X192572947Y-115453673D01*
X192575188Y-115460845D01*
X192628203Y-115650499D01*
X192650409Y-115729936D01*
X192650411Y-115729945D01*
X192811861Y-116194433D01*
X192811870Y-116194456D01*
X192890104Y-116381266D01*
X192890106Y-116381271D01*
X192896505Y-116396554D01*
X192898214Y-116409527D01*
X192911767Y-116433003D01*
X192914818Y-116440288D01*
X192914822Y-116440295D01*
X192922247Y-116458031D01*
X192926265Y-116463996D01*
X192933361Y-116473206D01*
X192938095Y-116478604D01*
X192953351Y-116490310D01*
X192953354Y-116490313D01*
X192959616Y-116495118D01*
X192978860Y-116514218D01*
X192990980Y-116519185D01*
X193001375Y-116527161D01*
X193001376Y-116527162D01*
X193027575Y-116534182D01*
X193052667Y-116544465D01*
X193065766Y-116544415D01*
X193078423Y-116547807D01*
X193105315Y-116544266D01*
X193132430Y-116544164D01*
X193144512Y-116539105D01*
X193149223Y-116538484D01*
X193157504Y-116537395D01*
X193180992Y-116523834D01*
X193206007Y-116513362D01*
X193215235Y-116504063D01*
X195226343Y-115342949D01*
X195294240Y-115326477D01*
X195350339Y-115342949D01*
X201144816Y-118688392D01*
X201183715Y-118710850D01*
X201205485Y-118726811D01*
X201208694Y-118729752D01*
X201229688Y-118737393D01*
X201249035Y-118748563D01*
X201266804Y-118750902D01*
X201283648Y-118757033D01*
X201286893Y-118756891D01*
X201293800Y-118758595D01*
X201295720Y-118758891D01*
X201295693Y-118759062D01*
X201354728Y-118773631D01*
X201402744Y-118824387D01*
X201416302Y-118881732D01*
X201407771Y-119984533D01*
X201407772Y-119984534D01*
X201659469Y-119984534D01*
X201726508Y-120004219D01*
X201772263Y-120057023D01*
X201783469Y-120108534D01*
X201783469Y-122279830D01*
X201779710Y-122295388D01*
X201783469Y-122319345D01*
X201783469Y-122343590D01*
X201783470Y-122343596D01*
X201783943Y-122344738D01*
X201791880Y-122372957D01*
X201792072Y-122374181D01*
X201792075Y-122374190D01*
X201799673Y-122386629D01*
X201799673Y-122386630D01*
X201804714Y-122394884D01*
X201813993Y-122417284D01*
X201825306Y-122428597D01*
X201833000Y-122441193D01*
X201833002Y-122441195D01*
X201833650Y-122442255D01*
X201833652Y-122442258D01*
X201853247Y-122456538D01*
X201870395Y-122473686D01*
X201885180Y-122479810D01*
X201898114Y-122489236D01*
X201921686Y-122494931D01*
X201944087Y-122504210D01*
X201960088Y-122504210D01*
X201974445Y-122507679D01*
X201975167Y-122507853D01*
X201975645Y-122507968D01*
X201975646Y-122507969D01*
X201975646Y-122507968D01*
X201975647Y-122507969D01*
X201990051Y-122505708D01*
X202009271Y-122504210D01*
X202023850Y-122504210D01*
X202023851Y-122504210D01*
X202024994Y-122503736D01*
X202053232Y-122495793D01*
X202080551Y-122491506D01*
X202185540Y-122475033D01*
X202397469Y-122435888D01*
X202462613Y-122423856D01*
X204719500Y-122423856D01*
X204719500Y-122516144D01*
X204738256Y-122586144D01*
X204743387Y-122605290D01*
X204743388Y-122605293D01*
X204789526Y-122685205D01*
X204789529Y-122685209D01*
X204789531Y-122685212D01*
X204854788Y-122750469D01*
X204854791Y-122750470D01*
X204854794Y-122750473D01*
X204934706Y-122796611D01*
X204934707Y-122796611D01*
X204934712Y-122796614D01*
X205023856Y-122820500D01*
X205023858Y-122820500D01*
X205116142Y-122820500D01*
X205116144Y-122820500D01*
X205205288Y-122796614D01*
X205285212Y-122750469D01*
X205350469Y-122685212D01*
X205396614Y-122605288D01*
X205420500Y-122516144D01*
X205420500Y-122423856D01*
X205396614Y-122334712D01*
X205390888Y-122324794D01*
X205350473Y-122254794D01*
X205350470Y-122254791D01*
X205350469Y-122254788D01*
X205285212Y-122189531D01*
X205285209Y-122189529D01*
X205285205Y-122189526D01*
X205205293Y-122143388D01*
X205205290Y-122143387D01*
X205205289Y-122143386D01*
X205205288Y-122143386D01*
X205116144Y-122119500D01*
X205023856Y-122119500D01*
X204934712Y-122143386D01*
X204934711Y-122143386D01*
X204934709Y-122143387D01*
X204934706Y-122143388D01*
X204854794Y-122189526D01*
X204854785Y-122189533D01*
X204789533Y-122254785D01*
X204789526Y-122254794D01*
X204743388Y-122334706D01*
X204743387Y-122334709D01*
X204743386Y-122334711D01*
X204743386Y-122334712D01*
X204719500Y-122423856D01*
X202462613Y-122423856D01*
X202524926Y-122412347D01*
X202862506Y-122340518D01*
X202977732Y-122312729D01*
X202980460Y-122312127D01*
X203030280Y-122300068D01*
X203030281Y-122300070D01*
X203045439Y-122296401D01*
X203045543Y-122296406D01*
X203045537Y-122296378D01*
X203047878Y-122295812D01*
X203069036Y-122290711D01*
X203069038Y-122290709D01*
X203081483Y-122287708D01*
X203081743Y-122287615D01*
X203115610Y-122279421D01*
X203277092Y-122210484D01*
X203424893Y-122115701D01*
X203554911Y-121997700D01*
X203663540Y-121859755D01*
X203731509Y-121735427D01*
X203780939Y-121686047D01*
X203849219Y-121671229D01*
X203914671Y-121695679D01*
X203927992Y-121707228D01*
X204001284Y-121780520D01*
X204001286Y-121780521D01*
X204001290Y-121780524D01*
X204124884Y-121851880D01*
X204138216Y-121859577D01*
X204290943Y-121900500D01*
X204290945Y-121900500D01*
X204449055Y-121900500D01*
X204449057Y-121900500D01*
X204601784Y-121859577D01*
X204738716Y-121780520D01*
X204850520Y-121668716D01*
X204929577Y-121531784D01*
X204955817Y-121433856D01*
X206349500Y-121433856D01*
X206349500Y-121526144D01*
X206371693Y-121608971D01*
X206373387Y-121615290D01*
X206373388Y-121615293D01*
X206419526Y-121695205D01*
X206419529Y-121695209D01*
X206419531Y-121695212D01*
X206484788Y-121760469D01*
X206484791Y-121760470D01*
X206484794Y-121760473D01*
X206564706Y-121806611D01*
X206564707Y-121806611D01*
X206564712Y-121806614D01*
X206653856Y-121830500D01*
X206653858Y-121830500D01*
X206746142Y-121830500D01*
X206746144Y-121830500D01*
X206835288Y-121806614D01*
X206915212Y-121760469D01*
X206980469Y-121695212D01*
X206994767Y-121670448D01*
X209905435Y-121670448D01*
X209905435Y-121762736D01*
X209923592Y-121830500D01*
X209929322Y-121851882D01*
X209929323Y-121851885D01*
X209975461Y-121931797D01*
X209975464Y-121931801D01*
X209975466Y-121931804D01*
X210040723Y-121997061D01*
X210040726Y-121997062D01*
X210040729Y-121997065D01*
X210120641Y-122043203D01*
X210120642Y-122043203D01*
X210120647Y-122043206D01*
X210209791Y-122067092D01*
X210209793Y-122067092D01*
X210302077Y-122067092D01*
X210302079Y-122067092D01*
X210391223Y-122043206D01*
X210471147Y-121997061D01*
X210536404Y-121931804D01*
X210582549Y-121851880D01*
X210606435Y-121762736D01*
X210606435Y-121670448D01*
X210582549Y-121581304D01*
X210576102Y-121570137D01*
X210536408Y-121501386D01*
X210536405Y-121501383D01*
X210536404Y-121501380D01*
X210471147Y-121436123D01*
X210471144Y-121436121D01*
X210471140Y-121436118D01*
X210391228Y-121389980D01*
X210391225Y-121389979D01*
X210391224Y-121389978D01*
X210391223Y-121389978D01*
X210302079Y-121366092D01*
X210209791Y-121366092D01*
X210120647Y-121389978D01*
X210120646Y-121389978D01*
X210120644Y-121389979D01*
X210120641Y-121389980D01*
X210040729Y-121436118D01*
X210040720Y-121436125D01*
X209975468Y-121501377D01*
X209975461Y-121501386D01*
X209929323Y-121581298D01*
X209929322Y-121581301D01*
X209929321Y-121581303D01*
X209929321Y-121581304D01*
X209905435Y-121670448D01*
X206994767Y-121670448D01*
X207026614Y-121615288D01*
X207050500Y-121526144D01*
X207050500Y-121433856D01*
X207026614Y-121344712D01*
X207026611Y-121344706D01*
X206980473Y-121264794D01*
X206980470Y-121264791D01*
X206980469Y-121264788D01*
X206915212Y-121199531D01*
X206915209Y-121199529D01*
X206910418Y-121195853D01*
X206893007Y-121172008D01*
X206873511Y-121149854D01*
X206872640Y-121144114D01*
X206869216Y-121139424D01*
X206867460Y-121109954D01*
X206863036Y-121080774D01*
X206865407Y-121075474D01*
X206865062Y-121069678D01*
X206879517Y-121043939D01*
X206891572Y-121016998D01*
X206897347Y-121012191D01*
X206899276Y-121008758D01*
X206918067Y-120993681D01*
X206920936Y-120991805D01*
X206975212Y-120960469D01*
X206987151Y-120948529D01*
X206997904Y-120941502D01*
X207019539Y-120934968D01*
X207039378Y-120924134D01*
X207052346Y-120925060D01*
X207064790Y-120921303D01*
X207086523Y-120927503D01*
X207109070Y-120929115D01*
X207119478Y-120936905D01*
X207131979Y-120940472D01*
X207146909Y-120957437D01*
X207165006Y-120970983D01*
X207176330Y-120990869D01*
X207178138Y-120992923D01*
X207178369Y-120994449D01*
X207180307Y-120997852D01*
X207183390Y-121005297D01*
X207229526Y-121085205D01*
X207229529Y-121085209D01*
X207229531Y-121085212D01*
X207294788Y-121150469D01*
X207294791Y-121150470D01*
X207294794Y-121150473D01*
X207374706Y-121196611D01*
X207374707Y-121196611D01*
X207374712Y-121196614D01*
X207463856Y-121220500D01*
X207463858Y-121220500D01*
X207556142Y-121220500D01*
X207556144Y-121220500D01*
X207645288Y-121196614D01*
X207725212Y-121150469D01*
X207790469Y-121085212D01*
X207836614Y-121005288D01*
X207860500Y-120916144D01*
X207860500Y-120823856D01*
X207859464Y-120819989D01*
X209184696Y-120819989D01*
X209184696Y-120912277D01*
X209206508Y-120993681D01*
X209208583Y-121001423D01*
X209208584Y-121001426D01*
X209254722Y-121081338D01*
X209254725Y-121081342D01*
X209254727Y-121081345D01*
X209319984Y-121146602D01*
X209319987Y-121146603D01*
X209319990Y-121146606D01*
X209399902Y-121192744D01*
X209399903Y-121192744D01*
X209399908Y-121192747D01*
X209489052Y-121216633D01*
X209489054Y-121216633D01*
X209581338Y-121216633D01*
X209581340Y-121216633D01*
X209670484Y-121192747D01*
X209750408Y-121146602D01*
X209815665Y-121081345D01*
X209861810Y-121001421D01*
X209885696Y-120912277D01*
X209885696Y-120819989D01*
X209861810Y-120730845D01*
X209859096Y-120726144D01*
X209815669Y-120650927D01*
X209815666Y-120650924D01*
X209815665Y-120650921D01*
X209750408Y-120585664D01*
X209750405Y-120585662D01*
X209750401Y-120585659D01*
X209670489Y-120539521D01*
X209670486Y-120539520D01*
X209670485Y-120539519D01*
X209670484Y-120539519D01*
X209581340Y-120515633D01*
X209489052Y-120515633D01*
X209399908Y-120539519D01*
X209399907Y-120539519D01*
X209399905Y-120539520D01*
X209399902Y-120539521D01*
X209319990Y-120585659D01*
X209319981Y-120585666D01*
X209254729Y-120650918D01*
X209254722Y-120650927D01*
X209208584Y-120730839D01*
X209208583Y-120730842D01*
X209208582Y-120730844D01*
X209208582Y-120730845D01*
X209184696Y-120819989D01*
X207859464Y-120819989D01*
X207836614Y-120734712D01*
X207836611Y-120734706D01*
X207790473Y-120654794D01*
X207790470Y-120654791D01*
X207790469Y-120654788D01*
X207725212Y-120589531D01*
X207725209Y-120589529D01*
X207725205Y-120589526D01*
X207645293Y-120543388D01*
X207645290Y-120543387D01*
X207645289Y-120543386D01*
X207645288Y-120543386D01*
X207556144Y-120519500D01*
X207463856Y-120519500D01*
X207374712Y-120543386D01*
X207374711Y-120543386D01*
X207374709Y-120543387D01*
X207374706Y-120543388D01*
X207294794Y-120589526D01*
X207294782Y-120589536D01*
X207291932Y-120592386D01*
X207288938Y-120594020D01*
X207288342Y-120594478D01*
X207288270Y-120594385D01*
X207230607Y-120625868D01*
X207160916Y-120620879D01*
X207104985Y-120579005D01*
X207089691Y-120552143D01*
X207086615Y-120544716D01*
X207086614Y-120544712D01*
X207086611Y-120544706D01*
X207086610Y-120544704D01*
X207040473Y-120464794D01*
X207040470Y-120464791D01*
X207040469Y-120464788D01*
X206975212Y-120399531D01*
X206975209Y-120399529D01*
X206975205Y-120399526D01*
X206895293Y-120353388D01*
X206895290Y-120353387D01*
X206895289Y-120353386D01*
X206895288Y-120353386D01*
X206806144Y-120329500D01*
X206713856Y-120329500D01*
X206624712Y-120353386D01*
X206624711Y-120353386D01*
X206624709Y-120353387D01*
X206624706Y-120353388D01*
X206544794Y-120399526D01*
X206544785Y-120399533D01*
X206479533Y-120464785D01*
X206479526Y-120464794D01*
X206433388Y-120544706D01*
X206433387Y-120544709D01*
X206433386Y-120544711D01*
X206433386Y-120544712D01*
X206409500Y-120633856D01*
X206409500Y-120726144D01*
X206429162Y-120799525D01*
X206433387Y-120815290D01*
X206433388Y-120815293D01*
X206479526Y-120895205D01*
X206479529Y-120895209D01*
X206479531Y-120895212D01*
X206544788Y-120960469D01*
X206544790Y-120960470D01*
X206549579Y-120964145D01*
X206590782Y-121020573D01*
X206594937Y-121090319D01*
X206560725Y-121151239D01*
X206536096Y-121169906D01*
X206484793Y-121199527D01*
X206484785Y-121199533D01*
X206419533Y-121264785D01*
X206419526Y-121264794D01*
X206373388Y-121344706D01*
X206373387Y-121344709D01*
X206373386Y-121344711D01*
X206373386Y-121344712D01*
X206349500Y-121433856D01*
X204955817Y-121433856D01*
X204970500Y-121379057D01*
X204970500Y-121220943D01*
X204969458Y-121217055D01*
X204969920Y-121203608D01*
X204977805Y-121179807D01*
X204981665Y-121155030D01*
X204988604Y-121147208D01*
X204991893Y-121137283D01*
X205011395Y-121121522D01*
X205028037Y-121102767D01*
X205038103Y-121099939D01*
X205046236Y-121093367D01*
X205071163Y-121090652D01*
X205095303Y-121083871D01*
X205106138Y-121086842D01*
X205115695Y-121085802D01*
X205131998Y-121093934D01*
X205155846Y-121100475D01*
X205231433Y-121144114D01*
X205258216Y-121159577D01*
X205410943Y-121200500D01*
X205410945Y-121200500D01*
X205569055Y-121200500D01*
X205569057Y-121200500D01*
X205721784Y-121159577D01*
X205858716Y-121080520D01*
X205970520Y-120968716D01*
X206049577Y-120831784D01*
X206090500Y-120679057D01*
X206090500Y-120520943D01*
X206049577Y-120368216D01*
X206026584Y-120328390D01*
X205970524Y-120231290D01*
X205970518Y-120231282D01*
X205903452Y-120164216D01*
X205869967Y-120102893D01*
X205874951Y-120033201D01*
X205903452Y-119988854D01*
X205907772Y-119984534D01*
X205907772Y-119303856D01*
X207529500Y-119303856D01*
X207529500Y-119396144D01*
X207547142Y-119461986D01*
X207553387Y-119485290D01*
X207553388Y-119485293D01*
X207599526Y-119565205D01*
X207599529Y-119565209D01*
X207599531Y-119565212D01*
X207664788Y-119630469D01*
X207664791Y-119630470D01*
X207664794Y-119630473D01*
X207744706Y-119676611D01*
X207744707Y-119676611D01*
X207744712Y-119676614D01*
X207833856Y-119700500D01*
X207833858Y-119700500D01*
X207926142Y-119700500D01*
X207926144Y-119700500D01*
X208015288Y-119676614D01*
X208046852Y-119658390D01*
X208627272Y-119658390D01*
X208627272Y-119750678D01*
X208648794Y-119831000D01*
X208651159Y-119839824D01*
X208651160Y-119839827D01*
X208697298Y-119919739D01*
X208697301Y-119919743D01*
X208697303Y-119919746D01*
X208762560Y-119985003D01*
X208762563Y-119985004D01*
X208762566Y-119985007D01*
X208842478Y-120031145D01*
X208842479Y-120031145D01*
X208842484Y-120031148D01*
X208931628Y-120055034D01*
X208931630Y-120055034D01*
X209023914Y-120055034D01*
X209023916Y-120055034D01*
X209113060Y-120031148D01*
X209192984Y-119985003D01*
X209258241Y-119919746D01*
X209304386Y-119839822D01*
X209328272Y-119750678D01*
X209328272Y-119658390D01*
X209304386Y-119569246D01*
X209304212Y-119568944D01*
X209258245Y-119489328D01*
X209258242Y-119489325D01*
X209258241Y-119489322D01*
X209192984Y-119424065D01*
X209192981Y-119424063D01*
X209192977Y-119424060D01*
X209113065Y-119377922D01*
X209113062Y-119377921D01*
X209113061Y-119377920D01*
X209113060Y-119377920D01*
X209023916Y-119354034D01*
X208931628Y-119354034D01*
X208842484Y-119377920D01*
X208842483Y-119377920D01*
X208842481Y-119377921D01*
X208842478Y-119377922D01*
X208762566Y-119424060D01*
X208762557Y-119424067D01*
X208697305Y-119489319D01*
X208697298Y-119489328D01*
X208651160Y-119569240D01*
X208651159Y-119569243D01*
X208651158Y-119569245D01*
X208651158Y-119569246D01*
X208627272Y-119658390D01*
X208046852Y-119658390D01*
X208095212Y-119630469D01*
X208160469Y-119565212D01*
X208206614Y-119485288D01*
X208230500Y-119396144D01*
X208230500Y-119303856D01*
X208206614Y-119214712D01*
X208198330Y-119200364D01*
X208179870Y-119168390D01*
X209907272Y-119168390D01*
X209907272Y-119260678D01*
X209930190Y-119346211D01*
X209931159Y-119349824D01*
X209931160Y-119349827D01*
X209977298Y-119429739D01*
X209977301Y-119429743D01*
X209977303Y-119429746D01*
X210042560Y-119495003D01*
X210042563Y-119495004D01*
X210042566Y-119495007D01*
X210122478Y-119541145D01*
X210122479Y-119541145D01*
X210122484Y-119541148D01*
X210211628Y-119565034D01*
X210211630Y-119565034D01*
X210303914Y-119565034D01*
X210303916Y-119565034D01*
X210393060Y-119541148D01*
X210472984Y-119495003D01*
X210538241Y-119429746D01*
X210584386Y-119349822D01*
X210584387Y-119349815D01*
X210587494Y-119342318D01*
X210589090Y-119342979D01*
X210620319Y-119291725D01*
X210683162Y-119261186D01*
X210752538Y-119269470D01*
X210806423Y-119313947D01*
X210825361Y-119359273D01*
X210842269Y-119444273D01*
X210842271Y-119444278D01*
X210891305Y-119562658D01*
X210891310Y-119562667D01*
X210962495Y-119669202D01*
X210962498Y-119669206D01*
X211053099Y-119759807D01*
X211053103Y-119759810D01*
X211108659Y-119796932D01*
X211153464Y-119850544D01*
X211162171Y-119919869D01*
X211132016Y-119982897D01*
X211072573Y-120019616D01*
X211039768Y-120024034D01*
X210991628Y-120024034D01*
X210902484Y-120047920D01*
X210902483Y-120047920D01*
X210902481Y-120047921D01*
X210902478Y-120047922D01*
X210822566Y-120094060D01*
X210822557Y-120094067D01*
X210757305Y-120159319D01*
X210757298Y-120159328D01*
X210711160Y-120239240D01*
X210711159Y-120239243D01*
X210711158Y-120239245D01*
X210711158Y-120239246D01*
X210687272Y-120328390D01*
X210687272Y-120420678D01*
X210703785Y-120482307D01*
X210711159Y-120509824D01*
X210711160Y-120509827D01*
X210757298Y-120589739D01*
X210757301Y-120589743D01*
X210757303Y-120589746D01*
X210822560Y-120655003D01*
X210822563Y-120655004D01*
X210822566Y-120655007D01*
X210902478Y-120701145D01*
X210902479Y-120701145D01*
X210902484Y-120701148D01*
X210991628Y-120725034D01*
X210991630Y-120725034D01*
X211083914Y-120725034D01*
X211083916Y-120725034D01*
X211173060Y-120701148D01*
X211252984Y-120655003D01*
X211318241Y-120589746D01*
X211364386Y-120509822D01*
X211388272Y-120420678D01*
X211388272Y-120328390D01*
X211364386Y-120239246D01*
X211364383Y-120239240D01*
X211318245Y-120159328D01*
X211318242Y-120159325D01*
X211318241Y-120159322D01*
X211268638Y-120109719D01*
X211235153Y-120048396D01*
X211240137Y-119978704D01*
X211282009Y-119922771D01*
X211347473Y-119898354D01*
X211380511Y-119900421D01*
X211403701Y-119905034D01*
X211403703Y-119905034D01*
X211531843Y-119905034D01*
X211616387Y-119888216D01*
X211657516Y-119880035D01*
X211775899Y-119830999D01*
X211882441Y-119759810D01*
X211973048Y-119669203D01*
X212044237Y-119562661D01*
X212093273Y-119444278D01*
X212102848Y-119396142D01*
X212118272Y-119318605D01*
X212118272Y-119190462D01*
X212093274Y-119064795D01*
X212093273Y-119064794D01*
X212093273Y-119064790D01*
X212055346Y-118973226D01*
X212044238Y-118946409D01*
X212044233Y-118946400D01*
X211973048Y-118839865D01*
X211973045Y-118839861D01*
X211882444Y-118749260D01*
X211882440Y-118749257D01*
X211775905Y-118678072D01*
X211775896Y-118678067D01*
X211657516Y-118629033D01*
X211657510Y-118629031D01*
X211531843Y-118604034D01*
X211531841Y-118604034D01*
X211403703Y-118604034D01*
X211403701Y-118604034D01*
X211278033Y-118629031D01*
X211278027Y-118629033D01*
X211159647Y-118678067D01*
X211159638Y-118678072D01*
X211053103Y-118749257D01*
X211053099Y-118749260D01*
X210962498Y-118839861D01*
X210962495Y-118839865D01*
X210891310Y-118946400D01*
X210891305Y-118946409D01*
X210842271Y-119064789D01*
X210842269Y-119064795D01*
X210834495Y-119103879D01*
X210802110Y-119165790D01*
X210741394Y-119200364D01*
X210671624Y-119196623D01*
X210614952Y-119155757D01*
X210593103Y-119111780D01*
X210590986Y-119103879D01*
X210584386Y-119079246D01*
X210584383Y-119079240D01*
X210538245Y-118999328D01*
X210538242Y-118999325D01*
X210538241Y-118999322D01*
X210472984Y-118934065D01*
X210472981Y-118934063D01*
X210472977Y-118934060D01*
X210393065Y-118887922D01*
X210393062Y-118887921D01*
X210393061Y-118887920D01*
X210393060Y-118887920D01*
X210303916Y-118864034D01*
X210211628Y-118864034D01*
X210122484Y-118887920D01*
X210122483Y-118887920D01*
X210122481Y-118887921D01*
X210122478Y-118887922D01*
X210042566Y-118934060D01*
X210042557Y-118934067D01*
X209977305Y-118999319D01*
X209977298Y-118999328D01*
X209931160Y-119079240D01*
X209931159Y-119079243D01*
X209931158Y-119079245D01*
X209931158Y-119079246D01*
X209907272Y-119168390D01*
X208179870Y-119168390D01*
X208160473Y-119134794D01*
X208160470Y-119134791D01*
X208160469Y-119134788D01*
X208095212Y-119069531D01*
X208095209Y-119069529D01*
X208095205Y-119069526D01*
X208015293Y-119023388D01*
X208015290Y-119023387D01*
X208015289Y-119023386D01*
X208015288Y-119023386D01*
X207926144Y-118999500D01*
X207833856Y-118999500D01*
X207744712Y-119023386D01*
X207744711Y-119023386D01*
X207744709Y-119023387D01*
X207744706Y-119023388D01*
X207664794Y-119069526D01*
X207664785Y-119069533D01*
X207599533Y-119134785D01*
X207599526Y-119134794D01*
X207553388Y-119214706D01*
X207553387Y-119214709D01*
X207553386Y-119214711D01*
X207553386Y-119214712D01*
X207529500Y-119303856D01*
X205907772Y-119303856D01*
X205907772Y-119209034D01*
X205927457Y-119141995D01*
X205980261Y-119096240D01*
X206031772Y-119085034D01*
X206071620Y-119085034D01*
X206071622Y-119085034D01*
X206160766Y-119061148D01*
X206240690Y-119015003D01*
X206305947Y-118949746D01*
X206352092Y-118869822D01*
X206375978Y-118780678D01*
X206375978Y-118688390D01*
X206352092Y-118599246D01*
X206343672Y-118584662D01*
X206305951Y-118519328D01*
X206305948Y-118519325D01*
X206305947Y-118519322D01*
X206240690Y-118454065D01*
X206240687Y-118454063D01*
X206240683Y-118454060D01*
X206160771Y-118407922D01*
X206160768Y-118407921D01*
X206160767Y-118407920D01*
X206160766Y-118407920D01*
X206071622Y-118384034D01*
X206031772Y-118384034D01*
X206023086Y-118381483D01*
X206014125Y-118382772D01*
X205990084Y-118371793D01*
X205964733Y-118364349D01*
X205958805Y-118357508D01*
X205950569Y-118353747D01*
X205936279Y-118331512D01*
X205918978Y-118311545D01*
X205916690Y-118301030D01*
X205912795Y-118294969D01*
X205907772Y-118260034D01*
X205907772Y-118057590D01*
X205927457Y-117990551D01*
X205980261Y-117944796D01*
X206031772Y-117933590D01*
X206074760Y-117933590D01*
X206074762Y-117933590D01*
X206148454Y-117903066D01*
X206204856Y-117846664D01*
X206235380Y-117772972D01*
X206235380Y-116958346D01*
X206255065Y-116891307D01*
X206307869Y-116845552D01*
X206359380Y-116834346D01*
X207545529Y-116834346D01*
X207567534Y-116838226D01*
X207585035Y-116834346D01*
X207602956Y-116834346D01*
X207623596Y-116825796D01*
X207645407Y-116820961D01*
X207660087Y-116810681D01*
X207676648Y-116803822D01*
X207684773Y-116795696D01*
X207701328Y-116781803D01*
X207946931Y-116609832D01*
X208003842Y-116569983D01*
X208070048Y-116547656D01*
X208074965Y-116547558D01*
X208779341Y-116547558D01*
X208782130Y-116548376D01*
X208784954Y-116547685D01*
X208815455Y-116558162D01*
X208846380Y-116567243D01*
X208849117Y-116569725D01*
X208851034Y-116570384D01*
X208858498Y-116578233D01*
X208876634Y-116594681D01*
X208880577Y-116599671D01*
X208927662Y-116673746D01*
X209004032Y-116755910D01*
X209007114Y-116759811D01*
X209018391Y-116787791D01*
X209031869Y-116814773D01*
X209031317Y-116819864D01*
X209033232Y-116824615D01*
X209027592Y-116854245D01*
X209024343Y-116884236D01*
X209021125Y-116888221D01*
X209020168Y-116893253D01*
X208999401Y-116915133D01*
X208980456Y-116938603D01*
X208972102Y-116943897D01*
X208972070Y-116943931D01*
X208972035Y-116943939D01*
X208971823Y-116944074D01*
X208902563Y-116984062D01*
X208902557Y-116984067D01*
X208837305Y-117049319D01*
X208837298Y-117049328D01*
X208791160Y-117129240D01*
X208791159Y-117129243D01*
X208791158Y-117129245D01*
X208791158Y-117129246D01*
X208767272Y-117218390D01*
X208767272Y-117310678D01*
X208787131Y-117384794D01*
X208791159Y-117399824D01*
X208791160Y-117399827D01*
X208837298Y-117479739D01*
X208837301Y-117479743D01*
X208837303Y-117479746D01*
X208902560Y-117545003D01*
X208902563Y-117545004D01*
X208902566Y-117545007D01*
X208982478Y-117591145D01*
X208982479Y-117591145D01*
X208982484Y-117591148D01*
X209071628Y-117615034D01*
X209071630Y-117615034D01*
X209163914Y-117615034D01*
X209163916Y-117615034D01*
X209253060Y-117591148D01*
X209332984Y-117545003D01*
X209332989Y-117544997D01*
X209339430Y-117540056D01*
X209340907Y-117541981D01*
X209391418Y-117514389D01*
X209461110Y-117519362D01*
X209517051Y-117561223D01*
X209537570Y-117603454D01*
X209540121Y-117612972D01*
X209541159Y-117616846D01*
X209541160Y-117616847D01*
X209587298Y-117696759D01*
X209587301Y-117696763D01*
X209587303Y-117696766D01*
X209652560Y-117762023D01*
X209652563Y-117762024D01*
X209652566Y-117762027D01*
X209732478Y-117808165D01*
X209732479Y-117808165D01*
X209732484Y-117808168D01*
X209821628Y-117832054D01*
X209821630Y-117832054D01*
X209913914Y-117832054D01*
X209913916Y-117832054D01*
X210003060Y-117808168D01*
X210082984Y-117762023D01*
X210148241Y-117696766D01*
X210194386Y-117616842D01*
X210212130Y-117550618D01*
X210248493Y-117490961D01*
X210311340Y-117460431D01*
X210380716Y-117468725D01*
X210393904Y-117475327D01*
X210398077Y-117477737D01*
X210407481Y-117483167D01*
X210407483Y-117483167D01*
X210407484Y-117483168D01*
X210496628Y-117507054D01*
X210496630Y-117507054D01*
X210588914Y-117507054D01*
X210588916Y-117507054D01*
X210678060Y-117483168D01*
X210678066Y-117483164D01*
X210680232Y-117482268D01*
X210682212Y-117482055D01*
X210685911Y-117481064D01*
X210686065Y-117481640D01*
X210749702Y-117474799D01*
X210812181Y-117506074D01*
X210847833Y-117566163D01*
X210851685Y-117596829D01*
X210851685Y-117772973D01*
X210869181Y-117815212D01*
X210882209Y-117846664D01*
X210938611Y-117903066D01*
X211012303Y-117933590D01*
X211092067Y-117933590D01*
X213774735Y-117933590D01*
X213841774Y-117953275D01*
X213887529Y-118006079D01*
X213897473Y-118075237D01*
X213892097Y-118097617D01*
X213804435Y-118354647D01*
X213764164Y-118411744D01*
X213699417Y-118438004D01*
X213630751Y-118425091D01*
X213611583Y-118412993D01*
X213607067Y-118409527D01*
X213527153Y-118363388D01*
X213527150Y-118363387D01*
X213527149Y-118363386D01*
X213527148Y-118363386D01*
X213438004Y-118339500D01*
X213345716Y-118339500D01*
X213256572Y-118363386D01*
X213256571Y-118363386D01*
X213256569Y-118363387D01*
X213256566Y-118363388D01*
X213176654Y-118409526D01*
X213176645Y-118409533D01*
X213111393Y-118474785D01*
X213111386Y-118474794D01*
X213065248Y-118554706D01*
X213065247Y-118554709D01*
X213065246Y-118554711D01*
X213065246Y-118554712D01*
X213041360Y-118643856D01*
X213041360Y-118736144D01*
X213053292Y-118780676D01*
X213065247Y-118825290D01*
X213065248Y-118825293D01*
X213111386Y-118905205D01*
X213111389Y-118905209D01*
X213111391Y-118905212D01*
X213176648Y-118970469D01*
X213176651Y-118970470D01*
X213176654Y-118970473D01*
X213256566Y-119016611D01*
X213256567Y-119016611D01*
X213256572Y-119016614D01*
X213345716Y-119040500D01*
X213345724Y-119040500D01*
X213353776Y-119041561D01*
X213353444Y-119044078D01*
X213408298Y-119060185D01*
X213454053Y-119112989D01*
X213463997Y-119182147D01*
X213453936Y-119216268D01*
X213205472Y-119757064D01*
X213202686Y-119762741D01*
X212858379Y-120421396D01*
X212855308Y-120426923D01*
X212477867Y-121067185D01*
X212474518Y-121072548D01*
X212064939Y-121692725D01*
X212061321Y-121697911D01*
X211620655Y-122296409D01*
X211616778Y-122301403D01*
X211492839Y-122452905D01*
X211435155Y-122492330D01*
X211365313Y-122494309D01*
X211305488Y-122458215D01*
X211280141Y-122412042D01*
X211279722Y-122412216D01*
X211278141Y-122408400D01*
X211277088Y-122406481D01*
X211276997Y-122406142D01*
X211276614Y-122404712D01*
X211276611Y-122404706D01*
X211230473Y-122324794D01*
X211230470Y-122324791D01*
X211230469Y-122324788D01*
X211165212Y-122259531D01*
X211165209Y-122259529D01*
X211165205Y-122259526D01*
X211085293Y-122213388D01*
X211085290Y-122213387D01*
X211085289Y-122213386D01*
X211085288Y-122213386D01*
X210996144Y-122189500D01*
X210903856Y-122189500D01*
X210814712Y-122213386D01*
X210814711Y-122213386D01*
X210814709Y-122213387D01*
X210814706Y-122213388D01*
X210734794Y-122259526D01*
X210734785Y-122259533D01*
X210669533Y-122324785D01*
X210669526Y-122324794D01*
X210623388Y-122404706D01*
X210623387Y-122404709D01*
X210623386Y-122404711D01*
X210623386Y-122404712D01*
X210599500Y-122493856D01*
X210599500Y-122586144D01*
X210619589Y-122661118D01*
X210623387Y-122675290D01*
X210623388Y-122675293D01*
X210669526Y-122755205D01*
X210669529Y-122755209D01*
X210669531Y-122755212D01*
X210734788Y-122820469D01*
X210734791Y-122820470D01*
X210734794Y-122820473D01*
X210814706Y-122866611D01*
X210814708Y-122866612D01*
X210814709Y-122866612D01*
X210814712Y-122866614D01*
X210892628Y-122887491D01*
X210952286Y-122923854D01*
X210982816Y-122986701D01*
X210974522Y-123056077D01*
X210952382Y-123090570D01*
X210642737Y-123431972D01*
X210638371Y-123436546D01*
X210111644Y-123960898D01*
X210107050Y-123965243D01*
X210043911Y-124021991D01*
X209980893Y-124052165D01*
X209911565Y-124043477D01*
X209857940Y-123998688D01*
X209837042Y-123932016D01*
X209853636Y-123867765D01*
X209866614Y-123845288D01*
X209890500Y-123756144D01*
X209890500Y-123663856D01*
X209866614Y-123574712D01*
X209866611Y-123574706D01*
X209820473Y-123494794D01*
X209820470Y-123494791D01*
X209820469Y-123494788D01*
X209755212Y-123429531D01*
X209755209Y-123429529D01*
X209755205Y-123429526D01*
X209675293Y-123383388D01*
X209675290Y-123383387D01*
X209675289Y-123383386D01*
X209675288Y-123383386D01*
X209586144Y-123359500D01*
X209493856Y-123359500D01*
X209485729Y-123359500D01*
X209485729Y-123356645D01*
X209430332Y-123347999D01*
X209378082Y-123301612D01*
X209363639Y-123261428D01*
X209362603Y-123261706D01*
X209360500Y-123253856D01*
X209336614Y-123164712D01*
X209336611Y-123164706D01*
X209290473Y-123084794D01*
X209290470Y-123084791D01*
X209290469Y-123084788D01*
X209225212Y-123019531D01*
X209225209Y-123019529D01*
X209225205Y-123019526D01*
X209145293Y-122973388D01*
X209145290Y-122973387D01*
X209145289Y-122973386D01*
X209145288Y-122973386D01*
X209056144Y-122949500D01*
X208963856Y-122949500D01*
X208874712Y-122973386D01*
X208874711Y-122973386D01*
X208874709Y-122973387D01*
X208874706Y-122973388D01*
X208794794Y-123019526D01*
X208794785Y-123019533D01*
X208737866Y-123076453D01*
X208676543Y-123109938D01*
X208606851Y-123104954D01*
X208550918Y-123063082D01*
X208526501Y-122997618D01*
X208526185Y-122988772D01*
X208526185Y-122893858D01*
X208526185Y-122893856D01*
X208502299Y-122804712D01*
X208502296Y-122804706D01*
X208456158Y-122724794D01*
X208456155Y-122724791D01*
X208456154Y-122724788D01*
X208390897Y-122659531D01*
X208390894Y-122659529D01*
X208390890Y-122659526D01*
X208310978Y-122613388D01*
X208310975Y-122613387D01*
X208310974Y-122613386D01*
X208310973Y-122613386D01*
X208221829Y-122589500D01*
X208129541Y-122589500D01*
X208040395Y-122613386D01*
X207985192Y-122645259D01*
X207917291Y-122661732D01*
X207851264Y-122638880D01*
X207808074Y-122583959D01*
X207801432Y-122514405D01*
X207804791Y-122503214D01*
X207804510Y-122503139D01*
X207806614Y-122495288D01*
X207830500Y-122406144D01*
X207830500Y-122313856D01*
X207806614Y-122224712D01*
X207800076Y-122213388D01*
X207760473Y-122144794D01*
X207760470Y-122144791D01*
X207760469Y-122144788D01*
X207695212Y-122079531D01*
X207695209Y-122079529D01*
X207695205Y-122079526D01*
X207615293Y-122033388D01*
X207615290Y-122033387D01*
X207615289Y-122033386D01*
X207615288Y-122033386D01*
X207526144Y-122009500D01*
X207433856Y-122009500D01*
X207344712Y-122033386D01*
X207344711Y-122033386D01*
X207344709Y-122033387D01*
X207344706Y-122033388D01*
X207264794Y-122079526D01*
X207264785Y-122079533D01*
X207199533Y-122144785D01*
X207199526Y-122144794D01*
X207153388Y-122224706D01*
X207153387Y-122224709D01*
X207153386Y-122224711D01*
X207153386Y-122224712D01*
X207129500Y-122313856D01*
X207129500Y-122406144D01*
X207153290Y-122494931D01*
X207153387Y-122495290D01*
X207153388Y-122495293D01*
X207199526Y-122575205D01*
X207199529Y-122575209D01*
X207199531Y-122575212D01*
X207264788Y-122640469D01*
X207264791Y-122640470D01*
X207264794Y-122640473D01*
X207344706Y-122686611D01*
X207344707Y-122686611D01*
X207344712Y-122686614D01*
X207433856Y-122710500D01*
X207433858Y-122710500D01*
X207526142Y-122710500D01*
X207526144Y-122710500D01*
X207615288Y-122686614D01*
X207670494Y-122654739D01*
X207738390Y-122638267D01*
X207804418Y-122661118D01*
X207847610Y-122716038D01*
X207854253Y-122785591D01*
X207850895Y-122796785D01*
X207851175Y-122796861D01*
X207849071Y-122804711D01*
X207849071Y-122804712D01*
X207825185Y-122893856D01*
X207825185Y-122986144D01*
X207845800Y-123063082D01*
X207849072Y-123075290D01*
X207849073Y-123075293D01*
X207895211Y-123155205D01*
X207895214Y-123155209D01*
X207895216Y-123155212D01*
X207960473Y-123220469D01*
X207960476Y-123220470D01*
X207960479Y-123220473D01*
X208040391Y-123266611D01*
X208040392Y-123266611D01*
X208040397Y-123266614D01*
X208129541Y-123290500D01*
X208129543Y-123290500D01*
X208221827Y-123290500D01*
X208221829Y-123290500D01*
X208310973Y-123266614D01*
X208390897Y-123220469D01*
X208447819Y-123163547D01*
X208509142Y-123130062D01*
X208578834Y-123135046D01*
X208634767Y-123176918D01*
X208659184Y-123242382D01*
X208659500Y-123251228D01*
X208659500Y-123253856D01*
X208659500Y-123346144D01*
X208682497Y-123431972D01*
X208683387Y-123435290D01*
X208683388Y-123435293D01*
X208729526Y-123515205D01*
X208729529Y-123515209D01*
X208729531Y-123515212D01*
X208794788Y-123580469D01*
X208794791Y-123580470D01*
X208794794Y-123580473D01*
X208874706Y-123626611D01*
X208874707Y-123626611D01*
X208874712Y-123626614D01*
X208963856Y-123650500D01*
X208963858Y-123650500D01*
X209064271Y-123650500D01*
X209064271Y-123653362D01*
X209119618Y-123661976D01*
X209171888Y-123708340D01*
X209186360Y-123748571D01*
X209187397Y-123748294D01*
X209189500Y-123756142D01*
X209189500Y-123756144D01*
X209213251Y-123844785D01*
X209213387Y-123845290D01*
X209213388Y-123845293D01*
X209259526Y-123925205D01*
X209259529Y-123925209D01*
X209259531Y-123925212D01*
X209324788Y-123990469D01*
X209324791Y-123990470D01*
X209324794Y-123990473D01*
X209404706Y-124036611D01*
X209404707Y-124036611D01*
X209404712Y-124036614D01*
X209493856Y-124060500D01*
X209493858Y-124060500D01*
X209586141Y-124060500D01*
X209586144Y-124060500D01*
X209675288Y-124036614D01*
X209675291Y-124036611D01*
X209677422Y-124036041D01*
X209747272Y-124037704D01*
X209805135Y-124076866D01*
X209832639Y-124141094D01*
X209821053Y-124209997D01*
X209792405Y-124248040D01*
X209554282Y-124462060D01*
X209549474Y-124466166D01*
X208972091Y-124934168D01*
X208967079Y-124938023D01*
X208366590Y-125375985D01*
X208361388Y-125379579D01*
X207739368Y-125786351D01*
X207733989Y-125789676D01*
X207092039Y-126164215D01*
X207086498Y-126167261D01*
X206426268Y-126508600D01*
X206420580Y-126511359D01*
X205743849Y-126818582D01*
X205738026Y-126821049D01*
X205046483Y-127093388D01*
X205040543Y-127095554D01*
X204336016Y-127332287D01*
X204329973Y-127334147D01*
X203614312Y-127534654D01*
X203608182Y-127536204D01*
X202883232Y-127699970D01*
X202877031Y-127701206D01*
X202144660Y-127827806D01*
X202138404Y-127828724D01*
X201400519Y-127917829D01*
X201394224Y-127918426D01*
X200652808Y-127969799D01*
X200646491Y-127970076D01*
X199903354Y-127983587D01*
X199897032Y-127983540D01*
X199154231Y-127959157D01*
X199147918Y-127958789D01*
X198407284Y-127896568D01*
X198400999Y-127895878D01*
X197664526Y-127795987D01*
X197658284Y-127794978D01*
X197056966Y-127681945D01*
X196927821Y-127657668D01*
X196921652Y-127656344D01*
X196701580Y-127603234D01*
X196199189Y-127481990D01*
X196193082Y-127480351D01*
X195480406Y-127269384D01*
X195474391Y-127267435D01*
X194949852Y-127082595D01*
X194773407Y-127020418D01*
X194767517Y-127018172D01*
X194481082Y-126900500D01*
X194080041Y-126735745D01*
X194074256Y-126733194D01*
X193808611Y-126607876D01*
X193808610Y-126607876D01*
X193726889Y-126569324D01*
X193674657Y-126522918D01*
X193669316Y-126503856D01*
X195769500Y-126503856D01*
X195769500Y-126596143D01*
X195793387Y-126685290D01*
X195793388Y-126685293D01*
X195839526Y-126765205D01*
X195839529Y-126765209D01*
X195839531Y-126765212D01*
X195904788Y-126830469D01*
X195904791Y-126830470D01*
X195904794Y-126830473D01*
X195984706Y-126876611D01*
X195984707Y-126876611D01*
X195984712Y-126876614D01*
X196073856Y-126900500D01*
X196073858Y-126900500D01*
X196166142Y-126900500D01*
X196166144Y-126900500D01*
X196255288Y-126876614D01*
X196335212Y-126830469D01*
X196400469Y-126765212D01*
X196446614Y-126685288D01*
X196470500Y-126596144D01*
X196470500Y-126503856D01*
X196446614Y-126414712D01*
X196446611Y-126414706D01*
X196400473Y-126334794D01*
X196400470Y-126334791D01*
X196400469Y-126334788D01*
X196335212Y-126269531D01*
X196335209Y-126269529D01*
X196335205Y-126269526D01*
X196255293Y-126223388D01*
X196255290Y-126223387D01*
X196255289Y-126223386D01*
X196255288Y-126223386D01*
X196166144Y-126199500D01*
X196073856Y-126199500D01*
X195984712Y-126223386D01*
X195984711Y-126223386D01*
X195984709Y-126223387D01*
X195984706Y-126223388D01*
X195904794Y-126269526D01*
X195904785Y-126269533D01*
X195839533Y-126334785D01*
X195839526Y-126334794D01*
X195793388Y-126414706D01*
X195793387Y-126414709D01*
X195793386Y-126414711D01*
X195793386Y-126414712D01*
X195769500Y-126503856D01*
X193669316Y-126503856D01*
X193655805Y-126455640D01*
X193676319Y-126388850D01*
X193729686Y-126343753D01*
X193747689Y-126337406D01*
X193825288Y-126316614D01*
X193905212Y-126270469D01*
X193970469Y-126205212D01*
X194016614Y-126125288D01*
X194040500Y-126036144D01*
X194040500Y-125943856D01*
X194016614Y-125854712D01*
X194016611Y-125854706D01*
X193970473Y-125774794D01*
X193970470Y-125774791D01*
X193970469Y-125774788D01*
X193905212Y-125709531D01*
X193905209Y-125709529D01*
X193905205Y-125709526D01*
X193825293Y-125663388D01*
X193825290Y-125663387D01*
X193825289Y-125663386D01*
X193825288Y-125663386D01*
X193736144Y-125639500D01*
X193643856Y-125639500D01*
X193554712Y-125663386D01*
X193554711Y-125663386D01*
X193554709Y-125663387D01*
X193554706Y-125663388D01*
X193474794Y-125709526D01*
X193474785Y-125709533D01*
X193409533Y-125774785D01*
X193409526Y-125774794D01*
X193363388Y-125854706D01*
X193363387Y-125854709D01*
X193339500Y-125943856D01*
X193339500Y-126036143D01*
X193363387Y-126125290D01*
X193363387Y-126125291D01*
X193371799Y-126139861D01*
X193388272Y-126207762D01*
X193365419Y-126273788D01*
X193310498Y-126316979D01*
X193240944Y-126323620D01*
X193205861Y-126311167D01*
X192741271Y-126062290D01*
X192735777Y-126059164D01*
X192156174Y-125709533D01*
X192099361Y-125675262D01*
X192094040Y-125671864D01*
X192081482Y-125663387D01*
X191478039Y-125256031D01*
X191472890Y-125252361D01*
X190878875Y-124805659D01*
X190873920Y-124801731D01*
X190535498Y-124519115D01*
X190303435Y-124325319D01*
X190298706Y-124321160D01*
X189966699Y-124013856D01*
X204759500Y-124013856D01*
X204759500Y-124106144D01*
X204780108Y-124183055D01*
X204783387Y-124195290D01*
X204783388Y-124195293D01*
X204829526Y-124275205D01*
X204829529Y-124275209D01*
X204829531Y-124275212D01*
X204894788Y-124340469D01*
X204894791Y-124340470D01*
X204894794Y-124340473D01*
X204974706Y-124386611D01*
X204974707Y-124386611D01*
X204974712Y-124386614D01*
X205063856Y-124410500D01*
X205063858Y-124410500D01*
X205156142Y-124410500D01*
X205156144Y-124410500D01*
X205245288Y-124386614D01*
X205325212Y-124340469D01*
X205390469Y-124275212D01*
X205390471Y-124275207D01*
X205393951Y-124270674D01*
X205450377Y-124229470D01*
X205520123Y-124225313D01*
X205575291Y-124255864D01*
X205575555Y-124255522D01*
X205577842Y-124257276D01*
X205580009Y-124258477D01*
X205582001Y-124260469D01*
X205582004Y-124260470D01*
X205582007Y-124260473D01*
X205661919Y-124306611D01*
X205661920Y-124306611D01*
X205661925Y-124306614D01*
X205751069Y-124330500D01*
X205751071Y-124330500D01*
X205843355Y-124330500D01*
X205843357Y-124330500D01*
X205932501Y-124306614D01*
X206012425Y-124260469D01*
X206063083Y-124209810D01*
X206124404Y-124176326D01*
X206194096Y-124181310D01*
X206238444Y-124209811D01*
X206276945Y-124248312D01*
X206276948Y-124248313D01*
X206276951Y-124248316D01*
X206356863Y-124294454D01*
X206356864Y-124294454D01*
X206356869Y-124294457D01*
X206446013Y-124318343D01*
X206446015Y-124318343D01*
X206538299Y-124318343D01*
X206538301Y-124318343D01*
X206627445Y-124294457D01*
X206707369Y-124248312D01*
X206772626Y-124183055D01*
X206818771Y-124103131D01*
X206842657Y-124013987D01*
X206842657Y-123921699D01*
X206818771Y-123832555D01*
X206809392Y-123816310D01*
X206772630Y-123752637D01*
X206772627Y-123752634D01*
X206772626Y-123752631D01*
X206707369Y-123687374D01*
X206707366Y-123687372D01*
X206707362Y-123687369D01*
X206627450Y-123641231D01*
X206627447Y-123641230D01*
X206627446Y-123641229D01*
X206627445Y-123641229D01*
X206538301Y-123617343D01*
X206446013Y-123617343D01*
X206356869Y-123641229D01*
X206356868Y-123641229D01*
X206356866Y-123641230D01*
X206356863Y-123641231D01*
X206276951Y-123687369D01*
X206276941Y-123687377D01*
X206226286Y-123738032D01*
X206164963Y-123771516D01*
X206095271Y-123766531D01*
X206050925Y-123738031D01*
X206012427Y-123699533D01*
X206012425Y-123699531D01*
X206012422Y-123699529D01*
X206012418Y-123699526D01*
X205932506Y-123653388D01*
X205932503Y-123653387D01*
X205932502Y-123653386D01*
X205932501Y-123653386D01*
X205843357Y-123629500D01*
X205751069Y-123629500D01*
X205661925Y-123653386D01*
X205661924Y-123653386D01*
X205661922Y-123653387D01*
X205661919Y-123653388D01*
X205582007Y-123699526D01*
X205581998Y-123699533D01*
X205516742Y-123764789D01*
X205513254Y-123769335D01*
X205456823Y-123810534D01*
X205387076Y-123814683D01*
X205331921Y-123784135D01*
X205331658Y-123784478D01*
X205329369Y-123782721D01*
X205327203Y-123781522D01*
X205325214Y-123779533D01*
X205325212Y-123779531D01*
X205325209Y-123779529D01*
X205325205Y-123779526D01*
X205245293Y-123733388D01*
X205245290Y-123733387D01*
X205245289Y-123733386D01*
X205245288Y-123733386D01*
X205156144Y-123709500D01*
X205063856Y-123709500D01*
X204974712Y-123733386D01*
X204974711Y-123733386D01*
X204974709Y-123733387D01*
X204974706Y-123733388D01*
X204894794Y-123779526D01*
X204894785Y-123779533D01*
X204829533Y-123844785D01*
X204829526Y-123844794D01*
X204783388Y-123924706D01*
X204783387Y-123924709D01*
X204783386Y-123924711D01*
X204783386Y-123924712D01*
X204759500Y-124013856D01*
X189966699Y-124013856D01*
X189753269Y-123816307D01*
X189748742Y-123811898D01*
X189747411Y-123810534D01*
X189229734Y-123279882D01*
X189225437Y-123275246D01*
X189170493Y-123212856D01*
X199200630Y-123212856D01*
X199200630Y-123305144D01*
X199221595Y-123383388D01*
X199224517Y-123394290D01*
X199224518Y-123394293D01*
X199270656Y-123474205D01*
X199270659Y-123474209D01*
X199270661Y-123474212D01*
X199335918Y-123539469D01*
X199335921Y-123539470D01*
X199335924Y-123539473D01*
X199415836Y-123585611D01*
X199415837Y-123585611D01*
X199415842Y-123585614D01*
X199504986Y-123609500D01*
X199504988Y-123609500D01*
X199597272Y-123609500D01*
X199597274Y-123609500D01*
X199686418Y-123585614D01*
X199766342Y-123539469D01*
X199831599Y-123474212D01*
X199877744Y-123394288D01*
X199901630Y-123305144D01*
X199901630Y-123212856D01*
X199877744Y-123123712D01*
X199877741Y-123123706D01*
X199831603Y-123043794D01*
X199831600Y-123043791D01*
X199831599Y-123043788D01*
X199766342Y-122978531D01*
X199766339Y-122978529D01*
X199766335Y-122978526D01*
X199711442Y-122946833D01*
X199663227Y-122896266D01*
X199650005Y-122827658D01*
X199675973Y-122762794D01*
X199711441Y-122732061D01*
X199785212Y-122689469D01*
X199850469Y-122624212D01*
X199896614Y-122544288D01*
X199920500Y-122455144D01*
X199920500Y-122362856D01*
X199896614Y-122273712D01*
X199888428Y-122259533D01*
X199850473Y-122193794D01*
X199850470Y-122193791D01*
X199850469Y-122193788D01*
X199785212Y-122128531D01*
X199785209Y-122128529D01*
X199785205Y-122128526D01*
X199705293Y-122082388D01*
X199705290Y-122082387D01*
X199705289Y-122082386D01*
X199705288Y-122082386D01*
X199616144Y-122058500D01*
X199523856Y-122058500D01*
X199434712Y-122082386D01*
X199434711Y-122082386D01*
X199434709Y-122082387D01*
X199434706Y-122082388D01*
X199354794Y-122128526D01*
X199354785Y-122128533D01*
X199289533Y-122193785D01*
X199289526Y-122193794D01*
X199243388Y-122273706D01*
X199243387Y-122273709D01*
X199243386Y-122273711D01*
X199243386Y-122273712D01*
X199219500Y-122362856D01*
X199219500Y-122455144D01*
X199235844Y-122516142D01*
X199243387Y-122544290D01*
X199243388Y-122544293D01*
X199289526Y-122624205D01*
X199289529Y-122624209D01*
X199289531Y-122624212D01*
X199354788Y-122689469D01*
X199409688Y-122721166D01*
X199457902Y-122771733D01*
X199471124Y-122840340D01*
X199445156Y-122905204D01*
X199409688Y-122935938D01*
X199335921Y-122978529D01*
X199335915Y-122978533D01*
X199270663Y-123043785D01*
X199270656Y-123043794D01*
X199224518Y-123123706D01*
X199224517Y-123123709D01*
X199224516Y-123123711D01*
X199224516Y-123123712D01*
X199200630Y-123212856D01*
X189170493Y-123212856D01*
X188734244Y-122717488D01*
X188730187Y-122712638D01*
X188672890Y-122640469D01*
X188268043Y-122130540D01*
X188264250Y-122125504D01*
X188213855Y-122054919D01*
X188190921Y-121988920D01*
X188207309Y-121921000D01*
X188257817Y-121872722D01*
X188262368Y-121870485D01*
X188285383Y-121859753D01*
X188906469Y-121570136D01*
X188966547Y-121526085D01*
X189018246Y-121440888D01*
X189033405Y-121342393D01*
X189035263Y-121330322D01*
X189036728Y-121330547D01*
X189050204Y-121275940D01*
X189100960Y-121227923D01*
X189169619Y-121214970D01*
X189234381Y-121241192D01*
X189239842Y-121245848D01*
X189240103Y-121246006D01*
X189240105Y-121246009D01*
X189325301Y-121297708D01*
X189423797Y-121312867D01*
X189496160Y-121295160D01*
X190175300Y-120978472D01*
X190235378Y-120934421D01*
X190287077Y-120849224D01*
X190302236Y-120750729D01*
X190284529Y-120678366D01*
X190273635Y-120655003D01*
X190107225Y-120298134D01*
X190086578Y-120253856D01*
X200159500Y-120253856D01*
X200159500Y-120346144D01*
X200180415Y-120424201D01*
X200183387Y-120435290D01*
X200183388Y-120435293D01*
X200229526Y-120515205D01*
X200229529Y-120515209D01*
X200229531Y-120515212D01*
X200294788Y-120580469D01*
X200294791Y-120580470D01*
X200294794Y-120580473D01*
X200374706Y-120626611D01*
X200374707Y-120626611D01*
X200374712Y-120626614D01*
X200463856Y-120650500D01*
X200463858Y-120650500D01*
X200556142Y-120650500D01*
X200556144Y-120650500D01*
X200645288Y-120626614D01*
X200725212Y-120580469D01*
X200790469Y-120515212D01*
X200836614Y-120435288D01*
X200860500Y-120346144D01*
X200860500Y-120253856D01*
X200836614Y-120164712D01*
X200836328Y-120164216D01*
X200790473Y-120084794D01*
X200790470Y-120084791D01*
X200790469Y-120084788D01*
X200725212Y-120019531D01*
X200725209Y-120019529D01*
X200725205Y-120019526D01*
X200645293Y-119973388D01*
X200645290Y-119973387D01*
X200645289Y-119973386D01*
X200645288Y-119973386D01*
X200556144Y-119949500D01*
X200463856Y-119949500D01*
X200374712Y-119973386D01*
X200374711Y-119973386D01*
X200374709Y-119973387D01*
X200374706Y-119973388D01*
X200294794Y-120019526D01*
X200294785Y-120019533D01*
X200229533Y-120084785D01*
X200229526Y-120084794D01*
X200183388Y-120164706D01*
X200183387Y-120164709D01*
X200183386Y-120164711D01*
X200183386Y-120164712D01*
X200159500Y-120253856D01*
X190086578Y-120253856D01*
X189714271Y-119455443D01*
X189714269Y-119455439D01*
X189683425Y-119413373D01*
X189670219Y-119395363D01*
X189585023Y-119343664D01*
X189535775Y-119336084D01*
X189486528Y-119328505D01*
X189486527Y-119328505D01*
X189472301Y-119331985D01*
X189414164Y-119346211D01*
X189414159Y-119346213D01*
X188735026Y-119662898D01*
X188735022Y-119662900D01*
X188674949Y-119706948D01*
X188674945Y-119706952D01*
X188623247Y-119792146D01*
X188623247Y-119792147D01*
X188606230Y-119902714D01*
X188604764Y-119902488D01*
X188591282Y-119957105D01*
X188540522Y-120005117D01*
X188471862Y-120018064D01*
X188407102Y-119991836D01*
X188401653Y-119987189D01*
X188401389Y-119987029D01*
X188401388Y-119987027D01*
X188316192Y-119935328D01*
X188234603Y-119922771D01*
X188217697Y-119920169D01*
X188217696Y-119920169D01*
X188203470Y-119923649D01*
X188145333Y-119937875D01*
X188145328Y-119937877D01*
X187466195Y-120254562D01*
X187466191Y-120254564D01*
X187406118Y-120298612D01*
X187406113Y-120298617D01*
X187353261Y-120385713D01*
X187349535Y-120389112D01*
X187347859Y-120393872D01*
X187323983Y-120412433D01*
X187301654Y-120432813D01*
X187296681Y-120433659D01*
X187292698Y-120436756D01*
X187262581Y-120439463D01*
X187232775Y-120444536D01*
X187228133Y-120442559D01*
X187223109Y-120443011D01*
X187196305Y-120429003D01*
X187168492Y-120417158D01*
X187164441Y-120412351D01*
X187161185Y-120410650D01*
X187139523Y-120382786D01*
X187057081Y-120238140D01*
X187054091Y-120232568D01*
X186997067Y-120119480D01*
X186719452Y-119568927D01*
X186716766Y-119563245D01*
X186416372Y-118883365D01*
X186413990Y-118877578D01*
X186312376Y-118611695D01*
X186310224Y-118584662D01*
X198389500Y-118584662D01*
X198389500Y-118676950D01*
X198411478Y-118758975D01*
X198413387Y-118766096D01*
X198413388Y-118766099D01*
X198459526Y-118846011D01*
X198459529Y-118846015D01*
X198459531Y-118846018D01*
X198524788Y-118911275D01*
X198524791Y-118911276D01*
X198524794Y-118911279D01*
X198604706Y-118957417D01*
X198604707Y-118957417D01*
X198604712Y-118957420D01*
X198693856Y-118981306D01*
X198693858Y-118981306D01*
X198786142Y-118981306D01*
X198786144Y-118981306D01*
X198875288Y-118957420D01*
X198955212Y-118911275D01*
X199020469Y-118846018D01*
X199066614Y-118766094D01*
X199090500Y-118676950D01*
X199090500Y-118584662D01*
X199066614Y-118495518D01*
X199066611Y-118495512D01*
X199020473Y-118415600D01*
X199020470Y-118415597D01*
X199020469Y-118415594D01*
X198955212Y-118350337D01*
X198955209Y-118350335D01*
X198955205Y-118350332D01*
X198875293Y-118304194D01*
X198875290Y-118304193D01*
X198875289Y-118304192D01*
X198875288Y-118304192D01*
X198786144Y-118280306D01*
X198693856Y-118280306D01*
X198604712Y-118304192D01*
X198604711Y-118304192D01*
X198604709Y-118304193D01*
X198604706Y-118304194D01*
X198524794Y-118350332D01*
X198524785Y-118350339D01*
X198459533Y-118415591D01*
X198459526Y-118415600D01*
X198413388Y-118495512D01*
X198413387Y-118495515D01*
X198413386Y-118495517D01*
X198413386Y-118495518D01*
X198389500Y-118584662D01*
X186310224Y-118584662D01*
X186309651Y-118577466D01*
X186306599Y-118543187D01*
X186306880Y-118542650D01*
X186306832Y-118542046D01*
X186323085Y-118511702D01*
X186339010Y-118481290D01*
X186339535Y-118480991D01*
X186339822Y-118480456D01*
X186369900Y-118463716D01*
X186399740Y-118446741D01*
X186400453Y-118446712D01*
X186400874Y-118446479D01*
X186434895Y-118443610D01*
X186448802Y-118444361D01*
X186450521Y-118445404D01*
X186549017Y-118460563D01*
X186621380Y-118442856D01*
X187300520Y-118126168D01*
X187360598Y-118082117D01*
X187412297Y-117996920D01*
X187427456Y-117898425D01*
X187429314Y-117886354D01*
X187430779Y-117886579D01*
X187444255Y-117831970D01*
X187495012Y-117783954D01*
X187563670Y-117771001D01*
X187628432Y-117797224D01*
X187633892Y-117801879D01*
X187634154Y-117802038D01*
X187634156Y-117802040D01*
X187719352Y-117853739D01*
X187817848Y-117868898D01*
X187890211Y-117851191D01*
X188569351Y-117534503D01*
X188629429Y-117490452D01*
X188681128Y-117405255D01*
X188696287Y-117306760D01*
X188678580Y-117234397D01*
X188659675Y-117193856D01*
X191389500Y-117193856D01*
X191389500Y-117286144D01*
X191412823Y-117373188D01*
X191413387Y-117375290D01*
X191413388Y-117375293D01*
X191459526Y-117455205D01*
X191459529Y-117455209D01*
X191459531Y-117455212D01*
X191524788Y-117520469D01*
X191524791Y-117520470D01*
X191524794Y-117520473D01*
X191604706Y-117566611D01*
X191604707Y-117566611D01*
X191604712Y-117566614D01*
X191693856Y-117590500D01*
X191693858Y-117590500D01*
X191786142Y-117590500D01*
X191786144Y-117590500D01*
X191875288Y-117566614D01*
X191955212Y-117520469D01*
X192020469Y-117455212D01*
X192066614Y-117375288D01*
X192090500Y-117286144D01*
X192090500Y-117233856D01*
X193399500Y-117233856D01*
X193399500Y-117326144D01*
X193419243Y-117399827D01*
X193423387Y-117415290D01*
X193423388Y-117415293D01*
X193469526Y-117495205D01*
X193469529Y-117495209D01*
X193469531Y-117495212D01*
X193534788Y-117560469D01*
X193534791Y-117560470D01*
X193534794Y-117560473D01*
X193614706Y-117606611D01*
X193614707Y-117606611D01*
X193614712Y-117606614D01*
X193703856Y-117630500D01*
X193703858Y-117630500D01*
X193796142Y-117630500D01*
X193796144Y-117630500D01*
X193885288Y-117606614D01*
X193965212Y-117560469D01*
X193971825Y-117553856D01*
X194839500Y-117553856D01*
X194839500Y-117646144D01*
X194857892Y-117714785D01*
X194863387Y-117735290D01*
X194863388Y-117735293D01*
X194909526Y-117815205D01*
X194909529Y-117815209D01*
X194909531Y-117815212D01*
X194974788Y-117880469D01*
X194974791Y-117880470D01*
X194974794Y-117880473D01*
X195054706Y-117926611D01*
X195054707Y-117926611D01*
X195054712Y-117926614D01*
X195143856Y-117950500D01*
X195143858Y-117950500D01*
X195236142Y-117950500D01*
X195236144Y-117950500D01*
X195325288Y-117926614D01*
X195399346Y-117883856D01*
X195859500Y-117883856D01*
X195859500Y-117976144D01*
X195881323Y-118057590D01*
X195883387Y-118065290D01*
X195883388Y-118065293D01*
X195929526Y-118145205D01*
X195929529Y-118145209D01*
X195929531Y-118145212D01*
X195994788Y-118210469D01*
X195994791Y-118210470D01*
X195994794Y-118210473D01*
X196074706Y-118256611D01*
X196074707Y-118256611D01*
X196074712Y-118256614D01*
X196163856Y-118280500D01*
X196163858Y-118280500D01*
X196256142Y-118280500D01*
X196256144Y-118280500D01*
X196345288Y-118256614D01*
X196425212Y-118210469D01*
X196490469Y-118145212D01*
X196536614Y-118065288D01*
X196560500Y-117976144D01*
X196560500Y-117883856D01*
X196536614Y-117794712D01*
X196524063Y-117772973D01*
X196490473Y-117714794D01*
X196490470Y-117714791D01*
X196490469Y-117714788D01*
X196425212Y-117649531D01*
X196425209Y-117649529D01*
X196425205Y-117649526D01*
X196345293Y-117603388D01*
X196345290Y-117603387D01*
X196345289Y-117603386D01*
X196345288Y-117603386D01*
X196256144Y-117579500D01*
X196163856Y-117579500D01*
X196074712Y-117603386D01*
X196074711Y-117603386D01*
X196074709Y-117603387D01*
X196074706Y-117603388D01*
X195994794Y-117649526D01*
X195994785Y-117649533D01*
X195929533Y-117714785D01*
X195929526Y-117714794D01*
X195883388Y-117794706D01*
X195883387Y-117794709D01*
X195883386Y-117794711D01*
X195883386Y-117794712D01*
X195859500Y-117883856D01*
X195399346Y-117883856D01*
X195405212Y-117880469D01*
X195470469Y-117815212D01*
X195516614Y-117735288D01*
X195540500Y-117646144D01*
X195540500Y-117553856D01*
X195516614Y-117464712D01*
X195516611Y-117464706D01*
X195470473Y-117384794D01*
X195470470Y-117384791D01*
X195470469Y-117384788D01*
X195405212Y-117319531D01*
X195405209Y-117319529D01*
X195405205Y-117319526D01*
X195325293Y-117273388D01*
X195325290Y-117273387D01*
X195325289Y-117273386D01*
X195325288Y-117273386D01*
X195236144Y-117249500D01*
X195143856Y-117249500D01*
X195054712Y-117273386D01*
X195054711Y-117273386D01*
X195054709Y-117273387D01*
X195054706Y-117273388D01*
X194974794Y-117319526D01*
X194974785Y-117319533D01*
X194909533Y-117384785D01*
X194909526Y-117384794D01*
X194863388Y-117464706D01*
X194863387Y-117464709D01*
X194863386Y-117464711D01*
X194863386Y-117464712D01*
X194839500Y-117553856D01*
X193971825Y-117553856D01*
X194030469Y-117495212D01*
X194076614Y-117415288D01*
X194076614Y-117415286D01*
X194080174Y-117409121D01*
X194130742Y-117360906D01*
X194199349Y-117347684D01*
X194219643Y-117351344D01*
X194301167Y-117373189D01*
X194301170Y-117373189D01*
X194393453Y-117373189D01*
X194393455Y-117373189D01*
X194482599Y-117349303D01*
X194562523Y-117303158D01*
X194627780Y-117237901D01*
X194673925Y-117157977D01*
X194697811Y-117068833D01*
X194697811Y-117031326D01*
X194717496Y-116964287D01*
X194770300Y-116918532D01*
X194789708Y-116911554D01*
X194869020Y-116890303D01*
X194948944Y-116844158D01*
X195014201Y-116778901D01*
X195060346Y-116698977D01*
X195084232Y-116609833D01*
X195084232Y-116517545D01*
X195060346Y-116428401D01*
X195033135Y-116381271D01*
X195014205Y-116348483D01*
X195014202Y-116348480D01*
X195014201Y-116348477D01*
X194948944Y-116283220D01*
X194948941Y-116283218D01*
X194948937Y-116283215D01*
X194869025Y-116237077D01*
X194869022Y-116237076D01*
X194869021Y-116237075D01*
X194869020Y-116237075D01*
X194779876Y-116213189D01*
X194687588Y-116213189D01*
X194598444Y-116237075D01*
X194598443Y-116237075D01*
X194598441Y-116237076D01*
X194598438Y-116237077D01*
X194518526Y-116283215D01*
X194518517Y-116283222D01*
X194453265Y-116348474D01*
X194453258Y-116348483D01*
X194407120Y-116428395D01*
X194407119Y-116428398D01*
X194407118Y-116428400D01*
X194407118Y-116428401D01*
X194384413Y-116513137D01*
X194383232Y-116517545D01*
X194383232Y-116555051D01*
X194363547Y-116622090D01*
X194310743Y-116667845D01*
X194291326Y-116674826D01*
X194212018Y-116696076D01*
X194212017Y-116696077D01*
X194132105Y-116742215D01*
X194132096Y-116742222D01*
X194066844Y-116807474D01*
X194066840Y-116807480D01*
X194017135Y-116893568D01*
X193966567Y-116941783D01*
X193897960Y-116955004D01*
X193877656Y-116951341D01*
X193849874Y-116943897D01*
X193796144Y-116929500D01*
X193703856Y-116929500D01*
X193614712Y-116953386D01*
X193614711Y-116953386D01*
X193614709Y-116953387D01*
X193614706Y-116953388D01*
X193534794Y-116999526D01*
X193534785Y-116999533D01*
X193469533Y-117064785D01*
X193469526Y-117064794D01*
X193423388Y-117144706D01*
X193423387Y-117144709D01*
X193423386Y-117144711D01*
X193423386Y-117144712D01*
X193399500Y-117233856D01*
X192090500Y-117233856D01*
X192090500Y-117193856D01*
X192066614Y-117104712D01*
X192045899Y-117068833D01*
X192020473Y-117024794D01*
X192020470Y-117024791D01*
X192020469Y-117024788D01*
X191955212Y-116959531D01*
X191955209Y-116959529D01*
X191955205Y-116959526D01*
X191875293Y-116913388D01*
X191875290Y-116913387D01*
X191875289Y-116913386D01*
X191875288Y-116913386D01*
X191786144Y-116889500D01*
X191693856Y-116889500D01*
X191604712Y-116913386D01*
X191604711Y-116913386D01*
X191604709Y-116913387D01*
X191604706Y-116913388D01*
X191524794Y-116959526D01*
X191524785Y-116959533D01*
X191459533Y-117024785D01*
X191459526Y-117024794D01*
X191413388Y-117104706D01*
X191413387Y-117104709D01*
X191413386Y-117104711D01*
X191413386Y-117104712D01*
X191389500Y-117193856D01*
X188659675Y-117193856D01*
X188192914Y-116192882D01*
X188108322Y-116011474D01*
X188108320Y-116011470D01*
X188064272Y-115951397D01*
X188064270Y-115951394D01*
X187979074Y-115899695D01*
X187929826Y-115892115D01*
X187880579Y-115884536D01*
X187880578Y-115884536D01*
X187866352Y-115888016D01*
X187808215Y-115902242D01*
X187808210Y-115902244D01*
X187129077Y-116218929D01*
X187129073Y-116218931D01*
X187069000Y-116262979D01*
X187068996Y-116262983D01*
X187017298Y-116348177D01*
X187017298Y-116348178D01*
X187000281Y-116458745D01*
X186998815Y-116458519D01*
X186985333Y-116513137D01*
X186934572Y-116561149D01*
X186865913Y-116574096D01*
X186801153Y-116547868D01*
X186795704Y-116543221D01*
X186795440Y-116543061D01*
X186795439Y-116543059D01*
X186710243Y-116491360D01*
X186660995Y-116483780D01*
X186611748Y-116476201D01*
X186611747Y-116476201D01*
X186601927Y-116478604D01*
X186539384Y-116493907D01*
X186539379Y-116493909D01*
X185887770Y-116797759D01*
X185818692Y-116808251D01*
X185754908Y-116779731D01*
X185716669Y-116721254D01*
X185714143Y-116711475D01*
X185694899Y-116622090D01*
X185563980Y-116013988D01*
X185562818Y-116007833D01*
X185443626Y-115274173D01*
X185442778Y-115267959D01*
X185361139Y-114529188D01*
X185360606Y-114522891D01*
X185357737Y-114474377D01*
X185337514Y-114132360D01*
X185336568Y-114116353D01*
X185352261Y-114048269D01*
X185402273Y-113999477D01*
X185460352Y-113985034D01*
X186410980Y-113985034D01*
X186478019Y-114004719D01*
G37*
%TD.AperFunction*%
%TD*%
M02*
