%TF.GenerationSoftware,KiCad,Pcbnew,9.0.0*%
%TF.CreationDate,2025-08-30T10:43:30+02:00*%
%TF.ProjectId,36mm PCB,33366d6d-2050-4434-922e-6b696361645f,rev?*%
%TF.SameCoordinates,Original*%
%TF.FileFunction,Copper,L2,Inr*%
%TF.FilePolarity,Positive*%
%FSLAX46Y46*%
G04 Gerber Fmt 4.6, Leading zero omitted, Abs format (unit mm)*
G04 Created by KiCad (PCBNEW 9.0.0) date 2025-08-30 10:43:30*
%MOMM*%
%LPD*%
G01*
G04 APERTURE LIST*
G04 Aperture macros list*
%AMRoundRect*
0 Rectangle with rounded corners*
0 $1 Rounding radius*
0 $2 $3 $4 $5 $6 $7 $8 $9 X,Y pos of 4 corners*
0 Add a 4 corners polygon primitive as box body*
4,1,4,$2,$3,$4,$5,$6,$7,$8,$9,$2,$3,0*
0 Add four circle primitives for the rounded corners*
1,1,$1+$1,$2,$3*
1,1,$1+$1,$4,$5*
1,1,$1+$1,$6,$7*
1,1,$1+$1,$8,$9*
0 Add four rect primitives between the rounded corners*
20,1,$1+$1,$2,$3,$4,$5,0*
20,1,$1+$1,$4,$5,$6,$7,0*
20,1,$1+$1,$6,$7,$8,$9,0*
20,1,$1+$1,$8,$9,$2,$3,0*%
G04 Aperture macros list end*
%TA.AperFunction,ComponentPad*%
%ADD10RoundRect,0.150000X-0.850000X-0.350000X0.850000X-0.350000X0.850000X0.350000X-0.850000X0.350000X0*%
%TD*%
%TA.AperFunction,ComponentPad*%
%ADD11C,0.500000*%
%TD*%
%TA.AperFunction,ComponentPad*%
%ADD12C,1.000000*%
%TD*%
%TA.AperFunction,ComponentPad*%
%ADD13RoundRect,0.150000X0.591910X-0.441184X0.042506X0.737016X-0.591910X0.441184X-0.042506X-0.737016X0*%
%TD*%
%TA.AperFunction,ViaPad*%
%ADD14C,0.500000*%
%TD*%
%TA.AperFunction,Conductor*%
%ADD15C,0.100000*%
%TD*%
G04 APERTURE END LIST*
D10*
%TO.N,GND*%
%TO.C,TP15*%
X190057772Y-114509534D03*
%TD*%
D11*
%TO.N,+3.3V*%
%TO.C,IC6*%
X208542772Y-116831554D03*
%TO.N,I2C1_SDA*%
X210542772Y-117156554D03*
%TO.N,I2C1_SCL*%
X209867772Y-117481554D03*
%TO.N,GND*%
X209117772Y-117264534D03*
%TD*%
D10*
%TO.N,+3V0*%
%TO.C,TP14*%
X187632772Y-114509534D03*
%TD*%
D12*
%TO.N,SYS_SWCLK*%
%TO.C,TP18*%
X205490000Y-120600000D03*
%TD*%
D13*
%TO.N,Net-(C12-Pad2)*%
%TO.C,SW5*%
X189455162Y-120320686D03*
X187849213Y-116876717D03*
%TO.N,+3V0*%
X188186331Y-120912350D03*
X186580382Y-117468382D03*
%TD*%
D12*
%TO.N,SYS_SWDIO*%
%TO.C,TP17*%
X204370000Y-121300000D03*
%TD*%
D14*
%TO.N,I2C1_SDA*%
X199551130Y-123259000D03*
%TO.N,I2C1_SCL*%
X199570000Y-122409000D03*
%TO.N,+3V0*%
X193690000Y-125990000D03*
%TO.N,ADCVBAT*%
X209540000Y-123710000D03*
X194733732Y-116563689D03*
X193750000Y-117280000D03*
%TO.N,+3V0*%
X195190000Y-117600000D03*
%TO.N,GND*%
X206025478Y-118734534D03*
X205110000Y-124060000D03*
X208977772Y-119704534D03*
X209010000Y-123300000D03*
%TO.N,+3.3V*%
X204460000Y-124650000D03*
X199600000Y-121490000D03*
X208490000Y-118950000D03*
X196520000Y-116840000D03*
X212277772Y-118194534D03*
X199590000Y-124350000D03*
%TO.N,NRST*%
X210255935Y-121716592D03*
%TO.N,+3V0*%
X200510000Y-120300000D03*
X208175685Y-122940000D03*
X191740000Y-117240000D03*
%TO.N,Stat*%
X194347311Y-117022689D03*
X196120000Y-126550000D03*
%TO.N,Net-(IC1-MOT2)*%
X202410000Y-118475000D03*
%TO.N,Net-(IC1-MOT1)*%
X204047772Y-120424534D03*
%TO.N,I2C1_SDA*%
X206700000Y-121480000D03*
X196210000Y-117930000D03*
%TO.N,I2C1_SCL*%
X206760000Y-120680000D03*
X198740000Y-118630806D03*
%TO.N,GPIO_Output_Mono*%
X207480000Y-122360000D03*
X192020000Y-115300000D03*
%TO.N,GPIO_EXTI1*%
X205070000Y-122470000D03*
X191370000Y-115300000D03*
%TO.N,GPIO_EXTI9*%
X190680000Y-115700000D03*
X207510000Y-120870000D03*
%TO.N,Tim2_CH3*%
X206492157Y-123967843D03*
X207880000Y-119350000D03*
X210950000Y-122540000D03*
%TO.N,Tim2_CH1*%
X209535196Y-120866133D03*
X205797213Y-123980000D03*
X213391860Y-118690000D03*
%TO.N,Net-(Q4-D_1)*%
X211037772Y-120374534D03*
%TO.N,Net-(Q3-D_1)*%
X210257772Y-119214534D03*
%TO.N,VDD PROG*%
X204770000Y-119390000D03*
%TD*%
D15*
%TO.N,I2C1_SDA*%
X198369000Y-123259000D02*
X198255000Y-123145000D01*
X199551130Y-123259000D02*
X198369000Y-123259000D01*
X198255000Y-123145000D02*
X196210000Y-121100000D01*
%TO.N,I2C1_SCL*%
X199049000Y-122409000D02*
X199570000Y-122409000D01*
X198370000Y-121730000D02*
X199049000Y-122409000D01*
X198370000Y-119000806D02*
X198370000Y-121730000D01*
X198740000Y-118630806D02*
X198370000Y-119000806D01*
%TO.N,Stat*%
X194220000Y-117150000D02*
X194347311Y-117022689D01*
X196120000Y-126550000D02*
X194220000Y-124650000D01*
X194220000Y-124650000D02*
X194220000Y-117150000D01*
%TO.N,I2C1_SDA*%
X198317585Y-123207585D02*
X198255000Y-123145000D01*
X198317585Y-123208999D02*
X198317585Y-123207585D01*
X196210000Y-121100000D02*
X196210000Y-117930000D01*
%TO.N,Tim2_CH3*%
X210950000Y-122990000D02*
X210950000Y-122540000D01*
X209520000Y-124420000D02*
X210950000Y-122990000D01*
X206944314Y-124420000D02*
X209520000Y-124420000D01*
X206492157Y-123967843D02*
X206944314Y-124420000D01*
%TO.N,ADCVBAT*%
X194239211Y-116563689D02*
X194733732Y-116563689D01*
X193750000Y-117280000D02*
X193750000Y-117052900D01*
X193750000Y-117052900D02*
X194239211Y-116563689D01*
%TO.N,Tim2_CH3*%
X207110000Y-119350000D02*
X207880000Y-119350000D01*
X206492157Y-123967843D02*
X206240000Y-123715686D01*
X206240000Y-120220000D02*
X207110000Y-119350000D01*
X206240000Y-123715686D02*
X206240000Y-120220000D01*
%TO.N,Tim2_CH1*%
X213350965Y-119299035D02*
X213391860Y-119204184D01*
X209535196Y-120866133D02*
X209631329Y-120770000D01*
X211203872Y-120775534D02*
X211209406Y-120770000D01*
X211880000Y-120770000D02*
X213350965Y-119299035D01*
X211209406Y-120770000D02*
X211880000Y-120770000D01*
X213391860Y-119204184D02*
X213391860Y-118690000D01*
X209631329Y-120770000D02*
X210866138Y-120770000D01*
X210871672Y-120775534D02*
X211203872Y-120775534D01*
X210866138Y-120770000D02*
X210871672Y-120775534D01*
%TD*%
%TA.AperFunction,Conductor*%
%TO.N,GND*%
G36*
X186541071Y-113999386D02*
G01*
X186555423Y-114034034D01*
X186548387Y-114057227D01*
X186548652Y-114057337D01*
X186547541Y-114060016D01*
X186547166Y-114061254D01*
X186546806Y-114061794D01*
X186546805Y-114061796D01*
X186532272Y-114134856D01*
X186532272Y-114884211D01*
X186546805Y-114957273D01*
X186602170Y-115040135D01*
X186669009Y-115084794D01*
X186685032Y-115095500D01*
X186758098Y-115110034D01*
X188507446Y-115110034D01*
X188580512Y-115095500D01*
X188663373Y-115040135D01*
X188718738Y-114957274D01*
X188733272Y-114884208D01*
X188733272Y-114134860D01*
X188718738Y-114061794D01*
X188718377Y-114061254D01*
X188718251Y-114060617D01*
X188716892Y-114057337D01*
X188717544Y-114057066D01*
X188711063Y-114024473D01*
X188731899Y-113993291D01*
X188759121Y-113985034D01*
X191848664Y-113985034D01*
X191883312Y-113999386D01*
X191897664Y-114034034D01*
X191895814Y-114047369D01*
X191881479Y-114098053D01*
X191890796Y-114177275D01*
X191890796Y-114177277D01*
X191918932Y-114227600D01*
X191921907Y-114232921D01*
X191929720Y-114246896D01*
X192375328Y-114598712D01*
X192393424Y-114629917D01*
X192415196Y-114775401D01*
X192415201Y-114775432D01*
X192518020Y-115256331D01*
X192650405Y-115729924D01*
X192650407Y-115729933D01*
X192795347Y-116146922D01*
X192811865Y-116194444D01*
X192828867Y-116235042D01*
X192893975Y-116390509D01*
X192893975Y-116390511D01*
X192896505Y-116396554D01*
X192898214Y-116409527D01*
X192911769Y-116433005D01*
X192912976Y-116435888D01*
X192912979Y-116435893D01*
X192922246Y-116458029D01*
X192926899Y-116462647D01*
X192934813Y-116472921D01*
X192938096Y-116478605D01*
X192959614Y-116495116D01*
X192978860Y-116514218D01*
X192990980Y-116519185D01*
X193001376Y-116527162D01*
X193027575Y-116534182D01*
X193052667Y-116544465D01*
X193065766Y-116544415D01*
X193078423Y-116547807D01*
X193105315Y-116544266D01*
X193132430Y-116544164D01*
X193144513Y-116539105D01*
X193157504Y-116537395D01*
X193180992Y-116523834D01*
X193206007Y-116513362D01*
X193215235Y-116504063D01*
X195263841Y-115321299D01*
X195301022Y-115316405D01*
X195312840Y-115321300D01*
X198785333Y-117326144D01*
X201190829Y-118714957D01*
X201199430Y-118721264D01*
X201208690Y-118729749D01*
X201208692Y-118729750D01*
X201208694Y-118729752D01*
X201229688Y-118737393D01*
X201249035Y-118748563D01*
X201266802Y-118750901D01*
X201271842Y-118752736D01*
X201271844Y-118752736D01*
X201283648Y-118757033D01*
X201301680Y-118756245D01*
X201310207Y-118756616D01*
X201328116Y-118758975D01*
X201340246Y-118755723D01*
X201350792Y-118754101D01*
X201363335Y-118753554D01*
X201363335Y-118753553D01*
X201365777Y-118753447D01*
X201401018Y-118766274D01*
X201416867Y-118800263D01*
X201416913Y-118802779D01*
X201414850Y-119069527D01*
X201407772Y-119984534D01*
X201734469Y-119984534D01*
X201769117Y-119998886D01*
X201783469Y-120033534D01*
X201783469Y-122279830D01*
X201779710Y-122295388D01*
X201783469Y-122319345D01*
X201783469Y-122343592D01*
X201787360Y-122352986D01*
X201790497Y-122364139D01*
X201792073Y-122374187D01*
X201792074Y-122374188D01*
X201804713Y-122394880D01*
X201813993Y-122417284D01*
X201825310Y-122428601D01*
X201833652Y-122442258D01*
X201850163Y-122454291D01*
X201855950Y-122459241D01*
X201870392Y-122473684D01*
X201870394Y-122473685D01*
X201870395Y-122473686D01*
X201879787Y-122477576D01*
X201889893Y-122483245D01*
X201898114Y-122489236D01*
X201921686Y-122494931D01*
X201944087Y-122504210D01*
X201960089Y-122504210D01*
X201975647Y-122507969D01*
X201999604Y-122504210D01*
X202023851Y-122504210D01*
X202038641Y-122498083D01*
X202185530Y-122475034D01*
X202462631Y-122423853D01*
X204719500Y-122423853D01*
X204719500Y-122516146D01*
X204743385Y-122605286D01*
X204743386Y-122605289D01*
X204783800Y-122675286D01*
X204789531Y-122685212D01*
X204854788Y-122750469D01*
X204934712Y-122796614D01*
X204956998Y-122802585D01*
X205023853Y-122820500D01*
X205023856Y-122820500D01*
X205116146Y-122820500D01*
X205160716Y-122808557D01*
X205205288Y-122796614D01*
X205285212Y-122750469D01*
X205350469Y-122685212D01*
X205396614Y-122605288D01*
X205409924Y-122555614D01*
X205420500Y-122516146D01*
X205420500Y-122423853D01*
X205396614Y-122334713D01*
X205396613Y-122334710D01*
X205375391Y-122297954D01*
X205350469Y-122254788D01*
X205285212Y-122189531D01*
X205279842Y-122186430D01*
X205205289Y-122143386D01*
X205205286Y-122143385D01*
X205116147Y-122119500D01*
X205116144Y-122119500D01*
X205023856Y-122119500D01*
X205023853Y-122119500D01*
X204934713Y-122143385D01*
X204934710Y-122143386D01*
X204854794Y-122189527D01*
X204854784Y-122189534D01*
X204789534Y-122254784D01*
X204789527Y-122254794D01*
X204743386Y-122334710D01*
X204743385Y-122334713D01*
X204719500Y-122423853D01*
X202462631Y-122423853D01*
X202524926Y-122412347D01*
X202862506Y-122340518D01*
X202991500Y-122309409D01*
X202991509Y-122309411D01*
X203009551Y-122305058D01*
X203009625Y-122305069D01*
X203030280Y-122300069D01*
X203030281Y-122300070D01*
X203045539Y-122296377D01*
X203069036Y-122290711D01*
X203069037Y-122290709D01*
X203073897Y-122289538D01*
X203074103Y-122289464D01*
X203115610Y-122279421D01*
X203277092Y-122210484D01*
X203424893Y-122115701D01*
X203554911Y-121997700D01*
X203663540Y-121859755D01*
X203747765Y-121705693D01*
X203773812Y-121630521D01*
X203798716Y-121602482D01*
X203836154Y-121600266D01*
X203862546Y-121622065D01*
X203889475Y-121668709D01*
X203889478Y-121668713D01*
X203889480Y-121668716D01*
X204001284Y-121780520D01*
X204001287Y-121780521D01*
X204001290Y-121780524D01*
X204138213Y-121859576D01*
X204138215Y-121859576D01*
X204138216Y-121859577D01*
X204239907Y-121886825D01*
X204290939Y-121900499D01*
X204290940Y-121900500D01*
X204290943Y-121900500D01*
X204449060Y-121900500D01*
X204449060Y-121900499D01*
X204601784Y-121859577D01*
X204738716Y-121780520D01*
X204850520Y-121668716D01*
X204881368Y-121615286D01*
X204929576Y-121531786D01*
X204929576Y-121531785D01*
X204929577Y-121531784D01*
X204970499Y-121379060D01*
X204970500Y-121379060D01*
X204970500Y-121220940D01*
X204970499Y-121220939D01*
X204951617Y-121150472D01*
X204929577Y-121068216D01*
X204929576Y-121068215D01*
X204929576Y-121068213D01*
X204850524Y-120931290D01*
X204850521Y-120931287D01*
X204850520Y-120931284D01*
X204738716Y-120819480D01*
X204738713Y-120819478D01*
X204738709Y-120819475D01*
X204601786Y-120740423D01*
X204601782Y-120740422D01*
X204449060Y-120699500D01*
X204449057Y-120699500D01*
X204378613Y-120699500D01*
X204343965Y-120685148D01*
X204329613Y-120650500D01*
X204336178Y-120626000D01*
X204374385Y-120559824D01*
X204374385Y-120559823D01*
X204374386Y-120559822D01*
X204395156Y-120482307D01*
X204398272Y-120470680D01*
X204398272Y-120378387D01*
X204378203Y-120303492D01*
X204374386Y-120289246D01*
X204328241Y-120209322D01*
X204262984Y-120144065D01*
X204220406Y-120119482D01*
X204183061Y-120097920D01*
X204183058Y-120097919D01*
X204119408Y-120080864D01*
X204089655Y-120058034D01*
X204084760Y-120020852D01*
X204107590Y-119991099D01*
X204132090Y-119984534D01*
X205172147Y-119984534D01*
X205206795Y-119998886D01*
X205221147Y-120033534D01*
X205206795Y-120068182D01*
X205196647Y-120075969D01*
X205121290Y-120119475D01*
X205121281Y-120119482D01*
X205009482Y-120231281D01*
X205009475Y-120231290D01*
X204930423Y-120368213D01*
X204930422Y-120368217D01*
X204889500Y-120520939D01*
X204889500Y-120679060D01*
X204930422Y-120831782D01*
X204930423Y-120831786D01*
X205009475Y-120968709D01*
X205009478Y-120968713D01*
X205009480Y-120968716D01*
X205121284Y-121080520D01*
X205121287Y-121080521D01*
X205121290Y-121080524D01*
X205258213Y-121159576D01*
X205258215Y-121159576D01*
X205258216Y-121159577D01*
X205354029Y-121185250D01*
X205410939Y-121200499D01*
X205410940Y-121200500D01*
X205410943Y-121200500D01*
X205569060Y-121200500D01*
X205569060Y-121200499D01*
X205721784Y-121159577D01*
X205737555Y-121150472D01*
X205858709Y-121080524D01*
X205858708Y-121080524D01*
X205858716Y-121080520D01*
X205970520Y-120968716D01*
X205983920Y-120945507D01*
X205998065Y-120921007D01*
X206027818Y-120898177D01*
X206065000Y-120903072D01*
X206087830Y-120932825D01*
X206089500Y-120945507D01*
X206089500Y-123659310D01*
X206075148Y-123693958D01*
X206040500Y-123708310D01*
X206015886Y-123699960D01*
X206015207Y-123701137D01*
X205932502Y-123653386D01*
X205932499Y-123653385D01*
X205843360Y-123629500D01*
X205843357Y-123629500D01*
X205751069Y-123629500D01*
X205751066Y-123629500D01*
X205661926Y-123653385D01*
X205661923Y-123653386D01*
X205582007Y-123699527D01*
X205581997Y-123699534D01*
X205516747Y-123764784D01*
X205516740Y-123764794D01*
X205470599Y-123844710D01*
X205470598Y-123844713D01*
X205446713Y-123933853D01*
X205446713Y-124026146D01*
X205470598Y-124115286D01*
X205470599Y-124115289D01*
X205488666Y-124146581D01*
X205516744Y-124195212D01*
X205582001Y-124260469D01*
X205661925Y-124306614D01*
X205679111Y-124311219D01*
X205751066Y-124330500D01*
X205751069Y-124330500D01*
X205843359Y-124330500D01*
X205888728Y-124318343D01*
X205932501Y-124306614D01*
X206012425Y-124260469D01*
X206077682Y-124195212D01*
X206105760Y-124146580D01*
X206135512Y-124123751D01*
X206172694Y-124128646D01*
X206190629Y-124146581D01*
X206211688Y-124183055D01*
X206276945Y-124248312D01*
X206356869Y-124294457D01*
X206373835Y-124299003D01*
X206446010Y-124318343D01*
X206446013Y-124318343D01*
X206538303Y-124318343D01*
X206564887Y-124311219D01*
X206583151Y-124306325D01*
X206620332Y-124311219D01*
X206630481Y-124319007D01*
X206859060Y-124547586D01*
X206859061Y-124547586D01*
X206859063Y-124547588D01*
X206914378Y-124570500D01*
X206974250Y-124570500D01*
X209282488Y-124570500D01*
X209317136Y-124584852D01*
X209331488Y-124619500D01*
X209317136Y-124654148D01*
X209313342Y-124657566D01*
X208970606Y-124935372D01*
X208968626Y-124936895D01*
X208365043Y-125377113D01*
X208362987Y-125378533D01*
X207737773Y-125787394D01*
X207735648Y-125788708D01*
X207090383Y-126165181D01*
X207088193Y-126166385D01*
X206424574Y-126509477D01*
X206422326Y-126510567D01*
X205742110Y-126819371D01*
X205739810Y-126820346D01*
X205044700Y-127094090D01*
X205042352Y-127094946D01*
X204334207Y-127332895D01*
X204331819Y-127333630D01*
X203612481Y-127535167D01*
X203610059Y-127535780D01*
X202881354Y-127700394D01*
X202878904Y-127700882D01*
X202142776Y-127828132D01*
X202140303Y-127828495D01*
X201398632Y-127918057D01*
X201396145Y-127918293D01*
X200650880Y-127969932D01*
X200648384Y-127970041D01*
X199901462Y-127983622D01*
X199898963Y-127983604D01*
X199152300Y-127959093D01*
X199149806Y-127958947D01*
X198405376Y-127896408D01*
X198402892Y-127896135D01*
X197662639Y-127795731D01*
X197660173Y-127795333D01*
X196925966Y-127657320D01*
X196923523Y-127656796D01*
X196197315Y-127481538D01*
X196194902Y-127480890D01*
X195478579Y-127268844D01*
X195476202Y-127268074D01*
X194771605Y-127019783D01*
X194769270Y-127018892D01*
X194078266Y-126735016D01*
X194075980Y-126734008D01*
X193466150Y-126446321D01*
X193400339Y-126415274D01*
X193398110Y-126414153D01*
X193393480Y-126411673D01*
X192996164Y-126198834D01*
X192739583Y-126061386D01*
X192737411Y-126060150D01*
X192608854Y-125982601D01*
X192544619Y-125943853D01*
X193339500Y-125943853D01*
X193339500Y-126036146D01*
X193363385Y-126125286D01*
X193363386Y-126125289D01*
X193386783Y-126165812D01*
X193409531Y-126205212D01*
X193474788Y-126270469D01*
X193554712Y-126316614D01*
X193576998Y-126322585D01*
X193643853Y-126340500D01*
X193643856Y-126340500D01*
X193736146Y-126340500D01*
X193780716Y-126328557D01*
X193825288Y-126316614D01*
X193905212Y-126270469D01*
X193970469Y-126205212D01*
X194016614Y-126125288D01*
X194028557Y-126080716D01*
X194040500Y-126036146D01*
X194040500Y-125943853D01*
X194016614Y-125854713D01*
X194016613Y-125854710D01*
X193970472Y-125774794D01*
X193970469Y-125774788D01*
X193905212Y-125709531D01*
X193844169Y-125674287D01*
X193825289Y-125663386D01*
X193825286Y-125663385D01*
X193736147Y-125639500D01*
X193736144Y-125639500D01*
X193643856Y-125639500D01*
X193643853Y-125639500D01*
X193554713Y-125663385D01*
X193554710Y-125663386D01*
X193474794Y-125709527D01*
X193474784Y-125709534D01*
X193409534Y-125774784D01*
X193409527Y-125774794D01*
X193363386Y-125854710D01*
X193363385Y-125854713D01*
X193339500Y-125943853D01*
X192544619Y-125943853D01*
X192097745Y-125674287D01*
X192095639Y-125672943D01*
X191476435Y-125254948D01*
X191474401Y-125253497D01*
X190877349Y-124804512D01*
X190875391Y-124802960D01*
X190301993Y-124324114D01*
X190300116Y-124322464D01*
X189751858Y-123815001D01*
X189750069Y-123813258D01*
X189439385Y-123494788D01*
X189228398Y-123278513D01*
X189226703Y-123276684D01*
X189217834Y-123266613D01*
X188732969Y-122716040D01*
X188731384Y-122714146D01*
X188266850Y-122129038D01*
X188265353Y-122127050D01*
X188257250Y-122115701D01*
X188155728Y-121973504D01*
X188147275Y-121936966D01*
X188167135Y-121905153D01*
X188183961Y-121897436D01*
X188189225Y-121896148D01*
X188227329Y-121886824D01*
X188882519Y-121581304D01*
X188906465Y-121570138D01*
X188906465Y-121570137D01*
X188906469Y-121570136D01*
X188966547Y-121526085D01*
X189018246Y-121440888D01*
X189033405Y-121342393D01*
X189015698Y-121270030D01*
X188698376Y-120589531D01*
X188445441Y-120047108D01*
X188445439Y-120047106D01*
X188445439Y-120047105D01*
X188401388Y-119987027D01*
X188401387Y-119987026D01*
X188339546Y-119949500D01*
X188316192Y-119935328D01*
X188316190Y-119935327D01*
X188217695Y-119920168D01*
X188145337Y-119937874D01*
X188145332Y-119937876D01*
X187466196Y-120254561D01*
X187466194Y-120254563D01*
X187406115Y-120298614D01*
X187406115Y-120298615D01*
X187354416Y-120383812D01*
X187354416Y-120383813D01*
X187354415Y-120383814D01*
X187339257Y-120482307D01*
X187356962Y-120554665D01*
X187356964Y-120554670D01*
X187387838Y-120620880D01*
X187389474Y-120658347D01*
X187364137Y-120685997D01*
X187326670Y-120687633D01*
X187300858Y-120665852D01*
X187056117Y-120236450D01*
X187054959Y-120234291D01*
X186881676Y-119890643D01*
X188608088Y-119890643D01*
X188625793Y-119963001D01*
X188625795Y-119963006D01*
X189196051Y-121185927D01*
X189196053Y-121185929D01*
X189196054Y-121185931D01*
X189240105Y-121246009D01*
X189325301Y-121297708D01*
X189423797Y-121312867D01*
X189496160Y-121295160D01*
X190117797Y-121005286D01*
X190175296Y-120978474D01*
X190175296Y-120978473D01*
X190175300Y-120978472D01*
X190235378Y-120934421D01*
X190287077Y-120849224D01*
X190302236Y-120750729D01*
X190284529Y-120678366D01*
X189989753Y-120046216D01*
X189714272Y-119455444D01*
X189714270Y-119455442D01*
X189714270Y-119455441D01*
X189670219Y-119395363D01*
X189670218Y-119395362D01*
X189649371Y-119382711D01*
X189585023Y-119343664D01*
X189585020Y-119343663D01*
X189585019Y-119343663D01*
X189486526Y-119328504D01*
X189414168Y-119346210D01*
X189414163Y-119346212D01*
X188735027Y-119662897D01*
X188735025Y-119662899D01*
X188674946Y-119706950D01*
X188674946Y-119706951D01*
X188623247Y-119792148D01*
X188623247Y-119792149D01*
X188623246Y-119792150D01*
X188608088Y-119890643D01*
X186881676Y-119890643D01*
X186718595Y-119567227D01*
X186717531Y-119564977D01*
X186689043Y-119500500D01*
X186415605Y-118881627D01*
X186414670Y-118879358D01*
X186173518Y-118248356D01*
X186174555Y-118210870D01*
X186201796Y-118185095D01*
X186239285Y-118186132D01*
X186263698Y-118210157D01*
X186321273Y-118333626D01*
X186358078Y-118383821D01*
X186365325Y-118393705D01*
X186450521Y-118445404D01*
X186549017Y-118460563D01*
X186621380Y-118442856D01*
X187300520Y-118126168D01*
X187360598Y-118082117D01*
X187412297Y-117996920D01*
X187427456Y-117898425D01*
X187409749Y-117826062D01*
X187098305Y-117158167D01*
X186839492Y-116603140D01*
X186839490Y-116603138D01*
X186839490Y-116603137D01*
X186795439Y-116543059D01*
X186795438Y-116543058D01*
X186756096Y-116519185D01*
X186710243Y-116491360D01*
X186710241Y-116491359D01*
X186710240Y-116491359D01*
X186611746Y-116476200D01*
X186539388Y-116493906D01*
X186539383Y-116493908D01*
X185860247Y-116810593D01*
X185860245Y-116810595D01*
X185816759Y-116842480D01*
X185807820Y-116844667D01*
X185800526Y-116850279D01*
X185790323Y-116848948D01*
X185780330Y-116851394D01*
X185772462Y-116846619D01*
X185763338Y-116845430D01*
X185757064Y-116837275D01*
X185748269Y-116831938D01*
X185740474Y-116815713D01*
X185721389Y-116744842D01*
X185720814Y-116742462D01*
X185718097Y-116729841D01*
X185657134Y-116446674D01*
X187002139Y-116446674D01*
X187019844Y-116519032D01*
X187019846Y-116519037D01*
X187590102Y-117741958D01*
X187590104Y-117741960D01*
X187590105Y-117741962D01*
X187612843Y-117772973D01*
X187628783Y-117794713D01*
X187634156Y-117802040D01*
X187719352Y-117853739D01*
X187817848Y-117868898D01*
X187890211Y-117851191D01*
X188501130Y-117566315D01*
X188569347Y-117534505D01*
X188569347Y-117534504D01*
X188569351Y-117534503D01*
X188629429Y-117490452D01*
X188681128Y-117405255D01*
X188696287Y-117306760D01*
X188678580Y-117234397D01*
X188659674Y-117193853D01*
X191389500Y-117193853D01*
X191389500Y-117286146D01*
X191413385Y-117375286D01*
X191413386Y-117375289D01*
X191443225Y-117426970D01*
X191459531Y-117455212D01*
X191524788Y-117520469D01*
X191604712Y-117566614D01*
X191626998Y-117572585D01*
X191693853Y-117590500D01*
X191693856Y-117590500D01*
X191786146Y-117590500D01*
X191830716Y-117578557D01*
X191875288Y-117566614D01*
X191955212Y-117520469D01*
X192020469Y-117455212D01*
X192066614Y-117375288D01*
X192079782Y-117326144D01*
X192090500Y-117286146D01*
X192090500Y-117233853D01*
X193399500Y-117233853D01*
X193399500Y-117326146D01*
X193423385Y-117415286D01*
X193423386Y-117415289D01*
X193446438Y-117455215D01*
X193469531Y-117495212D01*
X193534788Y-117560469D01*
X193586802Y-117590500D01*
X193611528Y-117604776D01*
X193614712Y-117606614D01*
X193636998Y-117612585D01*
X193703853Y-117630500D01*
X193703856Y-117630500D01*
X193796146Y-117630500D01*
X193840716Y-117618557D01*
X193885288Y-117606614D01*
X193965212Y-117560469D01*
X193985852Y-117539829D01*
X194020500Y-117525477D01*
X194055148Y-117539829D01*
X194069500Y-117574477D01*
X194069500Y-124679938D01*
X194076214Y-124696145D01*
X194076214Y-124696146D01*
X194092409Y-124735246D01*
X194092410Y-124735248D01*
X194092412Y-124735252D01*
X194092413Y-124735253D01*
X194092414Y-124735254D01*
X195768834Y-126411673D01*
X195783186Y-126446321D01*
X195781517Y-126459002D01*
X195769500Y-126503856D01*
X195769500Y-126596146D01*
X195793385Y-126685286D01*
X195793386Y-126685289D01*
X195803474Y-126702761D01*
X195839531Y-126765212D01*
X195904788Y-126830469D01*
X195984712Y-126876614D01*
X196006998Y-126882585D01*
X196073853Y-126900500D01*
X196073856Y-126900500D01*
X196166146Y-126900500D01*
X196210716Y-126888557D01*
X196255288Y-126876614D01*
X196335212Y-126830469D01*
X196400469Y-126765212D01*
X196446614Y-126685288D01*
X196458557Y-126640716D01*
X196470500Y-126596146D01*
X196470500Y-126503853D01*
X196446765Y-126415276D01*
X196446614Y-126414712D01*
X196444859Y-126411673D01*
X196435077Y-126394731D01*
X196400469Y-126334788D01*
X196335212Y-126269531D01*
X196329842Y-126266430D01*
X196255289Y-126223386D01*
X196255286Y-126223385D01*
X196166147Y-126199500D01*
X196166144Y-126199500D01*
X196073856Y-126199500D01*
X196029002Y-126211517D01*
X195991820Y-126206620D01*
X195981673Y-126198834D01*
X194384852Y-124602012D01*
X194370500Y-124567364D01*
X194370500Y-124303853D01*
X199239500Y-124303853D01*
X199239500Y-124396146D01*
X199263385Y-124485286D01*
X199263386Y-124485289D01*
X199306430Y-124559842D01*
X199309531Y-124565212D01*
X199374788Y-124630469D01*
X199454712Y-124676614D01*
X199476998Y-124682585D01*
X199543853Y-124700500D01*
X199543856Y-124700500D01*
X199636146Y-124700500D01*
X199652395Y-124696146D01*
X204109499Y-124696146D01*
X204133385Y-124785286D01*
X204133386Y-124785289D01*
X204143589Y-124802960D01*
X204179531Y-124865212D01*
X204244788Y-124930469D01*
X204324712Y-124976614D01*
X204346998Y-124982585D01*
X204413853Y-125000500D01*
X204413856Y-125000500D01*
X204506146Y-125000500D01*
X204550716Y-124988557D01*
X204595288Y-124976614D01*
X204675212Y-124930469D01*
X204740469Y-124865212D01*
X204786614Y-124785288D01*
X204809333Y-124700500D01*
X204810500Y-124696146D01*
X204810500Y-124603853D01*
X204786614Y-124514713D01*
X204786613Y-124514710D01*
X204740472Y-124434794D01*
X204740469Y-124434788D01*
X204675212Y-124369531D01*
X204607610Y-124330500D01*
X204595289Y-124323386D01*
X204595286Y-124323385D01*
X204506147Y-124299500D01*
X204506144Y-124299500D01*
X204413856Y-124299500D01*
X204413853Y-124299500D01*
X204324713Y-124323385D01*
X204324710Y-124323386D01*
X204244794Y-124369527D01*
X204244784Y-124369534D01*
X204179534Y-124434784D01*
X204179527Y-124434794D01*
X204133386Y-124514710D01*
X204133385Y-124514713D01*
X204109500Y-124603853D01*
X204109500Y-124696145D01*
X204109499Y-124696146D01*
X199652395Y-124696146D01*
X199680716Y-124688557D01*
X199725288Y-124676614D01*
X199805212Y-124630469D01*
X199870469Y-124565212D01*
X199916614Y-124485288D01*
X199930145Y-124434788D01*
X199940500Y-124396146D01*
X199940500Y-124303853D01*
X199916614Y-124214713D01*
X199916613Y-124214710D01*
X199898332Y-124183048D01*
X199870469Y-124134788D01*
X199805212Y-124069531D01*
X199786688Y-124058836D01*
X199725289Y-124023386D01*
X199725286Y-124023385D01*
X199636147Y-123999500D01*
X199636144Y-123999500D01*
X199543856Y-123999500D01*
X199543853Y-123999500D01*
X199454713Y-124023385D01*
X199454710Y-124023386D01*
X199374794Y-124069527D01*
X199374784Y-124069534D01*
X199309534Y-124134784D01*
X199309527Y-124134794D01*
X199263386Y-124214710D01*
X199263385Y-124214713D01*
X199239500Y-124303853D01*
X194370500Y-124303853D01*
X194370500Y-117553853D01*
X194839500Y-117553853D01*
X194839500Y-117646146D01*
X194863385Y-117735286D01*
X194863386Y-117735289D01*
X194901925Y-117802039D01*
X194909531Y-117815212D01*
X194974788Y-117880469D01*
X195054712Y-117926614D01*
X195076998Y-117932585D01*
X195143853Y-117950500D01*
X195143856Y-117950500D01*
X195236146Y-117950500D01*
X195280716Y-117938557D01*
X195325288Y-117926614D01*
X195399351Y-117883853D01*
X195859500Y-117883853D01*
X195859500Y-117976146D01*
X195883385Y-118065286D01*
X195883386Y-118065289D01*
X195893102Y-118082117D01*
X195929531Y-118145212D01*
X195994788Y-118210469D01*
X196035002Y-118233687D01*
X196057830Y-118263437D01*
X196059500Y-118276120D01*
X196059500Y-121129938D01*
X196063460Y-121139494D01*
X196063461Y-121139501D01*
X196063462Y-121139501D01*
X196078117Y-121174884D01*
X196082411Y-121185250D01*
X196082414Y-121185255D01*
X198124616Y-123227455D01*
X198127411Y-123230250D01*
X198127412Y-123230252D01*
X198163774Y-123266613D01*
X198183742Y-123286581D01*
X198183743Y-123286583D01*
X198189834Y-123294005D01*
X198189995Y-123294246D01*
X198189997Y-123294248D01*
X198189998Y-123294250D01*
X198232334Y-123336586D01*
X198232336Y-123336588D01*
X198232577Y-123336749D01*
X198240007Y-123342846D01*
X198283748Y-123386587D01*
X198299946Y-123393295D01*
X198299949Y-123393298D01*
X198299950Y-123393297D01*
X198339064Y-123409500D01*
X199205009Y-123409500D01*
X199239657Y-123423852D01*
X199247444Y-123434000D01*
X199270657Y-123474206D01*
X199270659Y-123474208D01*
X199270661Y-123474212D01*
X199335918Y-123539469D01*
X199415842Y-123585614D01*
X199438128Y-123591585D01*
X199504983Y-123609500D01*
X199504986Y-123609500D01*
X199597276Y-123609500D01*
X199641846Y-123597557D01*
X199686418Y-123585614D01*
X199766342Y-123539469D01*
X199831599Y-123474212D01*
X199877744Y-123394288D01*
X199892938Y-123337584D01*
X199901630Y-123305146D01*
X199901630Y-123212853D01*
X199877744Y-123123713D01*
X199877743Y-123123710D01*
X199849786Y-123075288D01*
X199831599Y-123043788D01*
X199766342Y-122978531D01*
X199703089Y-122942011D01*
X199686419Y-122932386D01*
X199686416Y-122932385D01*
X199597277Y-122908500D01*
X199597274Y-122908500D01*
X199504986Y-122908500D01*
X199504983Y-122908500D01*
X199415843Y-122932385D01*
X199415840Y-122932386D01*
X199335924Y-122978527D01*
X199335914Y-122978534D01*
X199270664Y-123043784D01*
X199270657Y-123043793D01*
X199247444Y-123084000D01*
X199217691Y-123106830D01*
X199205009Y-123108500D01*
X198451635Y-123108500D01*
X198416987Y-123094148D01*
X198337462Y-123014622D01*
X198337455Y-123014616D01*
X196374852Y-121052012D01*
X196360500Y-121017364D01*
X196360500Y-118970870D01*
X198219500Y-118970870D01*
X198219500Y-118974778D01*
X198219500Y-121759936D01*
X198228990Y-121782848D01*
X198242412Y-121815252D01*
X198242414Y-121815255D01*
X198963744Y-122536585D01*
X198963747Y-122536587D01*
X198963748Y-122536588D01*
X198996149Y-122550008D01*
X198996150Y-122550009D01*
X198996151Y-122550009D01*
X199019064Y-122559500D01*
X199223879Y-122559500D01*
X199258527Y-122573852D01*
X199266314Y-122584000D01*
X199289527Y-122624206D01*
X199289529Y-122624208D01*
X199289531Y-122624212D01*
X199354788Y-122689469D01*
X199434712Y-122735614D01*
X199456998Y-122741585D01*
X199523853Y-122759500D01*
X199523856Y-122759500D01*
X199616146Y-122759500D01*
X199660716Y-122747557D01*
X199705288Y-122735614D01*
X199785212Y-122689469D01*
X199850469Y-122624212D01*
X199896614Y-122544288D01*
X199909743Y-122495289D01*
X199920500Y-122455146D01*
X199920500Y-122362853D01*
X199901161Y-122290681D01*
X199896614Y-122273712D01*
X199850469Y-122193788D01*
X199785212Y-122128531D01*
X199762990Y-122115701D01*
X199705289Y-122082386D01*
X199705286Y-122082385D01*
X199616147Y-122058500D01*
X199616144Y-122058500D01*
X199523856Y-122058500D01*
X199523853Y-122058500D01*
X199434713Y-122082385D01*
X199434710Y-122082386D01*
X199354794Y-122128527D01*
X199354784Y-122128534D01*
X199289534Y-122193784D01*
X199289527Y-122193793D01*
X199266314Y-122234000D01*
X199261060Y-122238030D01*
X199258527Y-122244148D01*
X199246708Y-122249043D01*
X199236561Y-122256830D01*
X199223879Y-122258500D01*
X199131636Y-122258500D01*
X199096988Y-122244148D01*
X198534852Y-121682012D01*
X198520500Y-121647364D01*
X198520500Y-121443853D01*
X199249500Y-121443853D01*
X199249500Y-121536146D01*
X199273385Y-121625286D01*
X199273386Y-121625289D01*
X199305364Y-121680675D01*
X199319531Y-121705212D01*
X199384788Y-121770469D01*
X199464712Y-121816614D01*
X199486998Y-121822585D01*
X199553853Y-121840500D01*
X199553856Y-121840500D01*
X199646146Y-121840500D01*
X199690716Y-121828557D01*
X199735288Y-121816614D01*
X199815212Y-121770469D01*
X199880469Y-121705212D01*
X199926614Y-121625288D01*
X199944577Y-121558250D01*
X199950500Y-121536146D01*
X199950500Y-121443853D01*
X199926614Y-121354713D01*
X199926613Y-121354710D01*
X199893702Y-121297708D01*
X199880469Y-121274788D01*
X199815212Y-121209531D01*
X199799570Y-121200500D01*
X199735289Y-121163386D01*
X199735286Y-121163385D01*
X199646147Y-121139500D01*
X199646144Y-121139500D01*
X199553856Y-121139500D01*
X199553853Y-121139500D01*
X199464713Y-121163385D01*
X199464710Y-121163386D01*
X199384794Y-121209527D01*
X199384784Y-121209534D01*
X199319534Y-121274784D01*
X199319527Y-121274794D01*
X199273386Y-121354710D01*
X199273385Y-121354713D01*
X199249500Y-121443853D01*
X198520500Y-121443853D01*
X198520500Y-120253853D01*
X200159500Y-120253853D01*
X200159500Y-120346146D01*
X200183385Y-120435286D01*
X200183386Y-120435289D01*
X200201685Y-120466983D01*
X200229531Y-120515212D01*
X200294788Y-120580469D01*
X200351020Y-120612935D01*
X200373648Y-120626000D01*
X200374712Y-120626614D01*
X200396998Y-120632585D01*
X200463853Y-120650500D01*
X200463856Y-120650500D01*
X200556146Y-120650500D01*
X200618260Y-120633856D01*
X200645288Y-120626614D01*
X200725212Y-120580469D01*
X200790469Y-120515212D01*
X200836614Y-120435288D01*
X200858724Y-120352774D01*
X200860500Y-120346146D01*
X200860500Y-120253853D01*
X200836614Y-120164713D01*
X200836613Y-120164710D01*
X200795825Y-120094065D01*
X200790469Y-120084788D01*
X200725212Y-120019531D01*
X200690518Y-119999500D01*
X200645289Y-119973386D01*
X200645286Y-119973385D01*
X200556147Y-119949500D01*
X200556144Y-119949500D01*
X200463856Y-119949500D01*
X200463853Y-119949500D01*
X200374713Y-119973385D01*
X200374710Y-119973386D01*
X200294794Y-120019527D01*
X200294784Y-120019534D01*
X200229534Y-120084784D01*
X200229527Y-120084794D01*
X200183386Y-120164710D01*
X200183385Y-120164713D01*
X200159500Y-120253853D01*
X198520500Y-120253853D01*
X198520500Y-119083441D01*
X198534851Y-119048794D01*
X198601676Y-118981969D01*
X198636322Y-118967618D01*
X198649005Y-118969288D01*
X198693854Y-118981306D01*
X198693856Y-118981306D01*
X198786146Y-118981306D01*
X198837228Y-118967618D01*
X198875288Y-118957420D01*
X198955212Y-118911275D01*
X199020469Y-118846018D01*
X199066614Y-118766094D01*
X199080316Y-118714956D01*
X199090500Y-118676952D01*
X199090500Y-118584659D01*
X199066791Y-118496180D01*
X199066614Y-118495518D01*
X199020469Y-118415594D01*
X198955212Y-118350337D01*
X198926270Y-118333627D01*
X198875289Y-118304192D01*
X198875286Y-118304191D01*
X198786147Y-118280306D01*
X198786144Y-118280306D01*
X198693856Y-118280306D01*
X198693853Y-118280306D01*
X198604713Y-118304191D01*
X198604710Y-118304192D01*
X198524794Y-118350333D01*
X198524784Y-118350340D01*
X198459534Y-118415590D01*
X198459527Y-118415600D01*
X198413386Y-118495516D01*
X198413385Y-118495519D01*
X198389500Y-118584659D01*
X198389500Y-118676950D01*
X198401517Y-118721801D01*
X198396621Y-118758983D01*
X198388834Y-118769130D01*
X198242414Y-118915551D01*
X198242412Y-118915553D01*
X198242412Y-118915554D01*
X198232080Y-118940500D01*
X198219500Y-118970870D01*
X196360500Y-118970870D01*
X196360500Y-118276120D01*
X196374852Y-118241472D01*
X196384990Y-118233690D01*
X196425212Y-118210469D01*
X196490469Y-118145212D01*
X196536614Y-118065288D01*
X196558773Y-117982590D01*
X196560500Y-117976146D01*
X196560500Y-117883853D01*
X196542105Y-117815205D01*
X196536614Y-117794712D01*
X196490469Y-117714788D01*
X196425212Y-117649531D01*
X196386254Y-117627038D01*
X196345289Y-117603386D01*
X196345286Y-117603385D01*
X196256147Y-117579500D01*
X196256144Y-117579500D01*
X196163856Y-117579500D01*
X196163853Y-117579500D01*
X196074713Y-117603385D01*
X196074710Y-117603386D01*
X195994794Y-117649527D01*
X195994784Y-117649534D01*
X195929534Y-117714784D01*
X195929527Y-117714794D01*
X195883386Y-117794710D01*
X195883385Y-117794713D01*
X195859500Y-117883853D01*
X195399351Y-117883853D01*
X195405212Y-117880469D01*
X195470469Y-117815212D01*
X195516614Y-117735288D01*
X195532649Y-117675444D01*
X195540500Y-117646146D01*
X195540500Y-117553853D01*
X195516614Y-117464713D01*
X195516613Y-117464710D01*
X195488079Y-117415289D01*
X195470469Y-117384788D01*
X195405212Y-117319531D01*
X195399842Y-117316430D01*
X195325289Y-117273386D01*
X195325286Y-117273385D01*
X195236147Y-117249500D01*
X195236144Y-117249500D01*
X195143856Y-117249500D01*
X195143853Y-117249500D01*
X195054713Y-117273385D01*
X195054710Y-117273386D01*
X194974794Y-117319527D01*
X194974784Y-117319534D01*
X194909534Y-117384784D01*
X194909527Y-117384794D01*
X194863386Y-117464710D01*
X194863385Y-117464713D01*
X194839500Y-117553853D01*
X194370500Y-117553853D01*
X194370500Y-117416939D01*
X194384852Y-117382291D01*
X194406818Y-117369609D01*
X194446708Y-117358919D01*
X194482599Y-117349303D01*
X194562523Y-117303158D01*
X194627780Y-117237901D01*
X194673925Y-117157977D01*
X194693760Y-117083953D01*
X194697811Y-117068835D01*
X194697811Y-116976545D01*
X194697631Y-116975874D01*
X194697677Y-116975524D01*
X194697392Y-116973358D01*
X194697972Y-116973281D01*
X194702524Y-116938691D01*
X194732276Y-116915859D01*
X194744961Y-116914189D01*
X194779878Y-116914189D01*
X194831001Y-116900490D01*
X194869020Y-116890303D01*
X194948944Y-116844158D01*
X194999249Y-116793853D01*
X196169500Y-116793853D01*
X196169500Y-116886146D01*
X196193385Y-116975286D01*
X196193386Y-116975289D01*
X196225627Y-117031130D01*
X196239531Y-117055212D01*
X196304788Y-117120469D01*
X196346779Y-117144713D01*
X196379614Y-117163671D01*
X196384712Y-117166614D01*
X196406998Y-117172585D01*
X196473853Y-117190500D01*
X196473856Y-117190500D01*
X196566146Y-117190500D01*
X196610716Y-117178557D01*
X196655288Y-117166614D01*
X196735212Y-117120469D01*
X196800469Y-117055212D01*
X196846614Y-116975288D01*
X196862538Y-116915859D01*
X196870500Y-116886146D01*
X196870500Y-116793853D01*
X196851700Y-116723694D01*
X196846614Y-116704712D01*
X196841736Y-116696264D01*
X196800472Y-116624794D01*
X196800469Y-116624788D01*
X196735212Y-116559531D01*
X196720583Y-116551085D01*
X196655289Y-116513386D01*
X196655286Y-116513385D01*
X196566147Y-116489500D01*
X196566144Y-116489500D01*
X196473856Y-116489500D01*
X196473853Y-116489500D01*
X196384713Y-116513385D01*
X196384710Y-116513386D01*
X196304794Y-116559527D01*
X196304784Y-116559534D01*
X196239534Y-116624784D01*
X196239527Y-116624794D01*
X196193386Y-116704710D01*
X196193385Y-116704713D01*
X196169500Y-116793853D01*
X194999249Y-116793853D01*
X195014201Y-116778901D01*
X195035240Y-116742462D01*
X195060345Y-116698979D01*
X195060345Y-116698978D01*
X195060346Y-116698977D01*
X195074889Y-116644703D01*
X195084232Y-116609835D01*
X195084232Y-116517542D01*
X195061671Y-116433346D01*
X195060346Y-116428401D01*
X195014201Y-116348477D01*
X194948944Y-116283220D01*
X194928014Y-116271136D01*
X194869021Y-116237075D01*
X194869018Y-116237074D01*
X194779879Y-116213189D01*
X194779876Y-116213189D01*
X194687588Y-116213189D01*
X194687585Y-116213189D01*
X194598445Y-116237074D01*
X194598442Y-116237075D01*
X194518526Y-116283216D01*
X194518516Y-116283223D01*
X194453266Y-116348473D01*
X194453259Y-116348482D01*
X194430046Y-116388689D01*
X194400293Y-116411519D01*
X194387611Y-116413189D01*
X194209273Y-116413189D01*
X194188506Y-116421792D01*
X194188504Y-116421793D01*
X194153959Y-116436100D01*
X193653996Y-116936062D01*
X193632033Y-116948744D01*
X193614710Y-116953386D01*
X193614709Y-116953386D01*
X193534794Y-116999527D01*
X193534784Y-116999534D01*
X193469534Y-117064784D01*
X193469527Y-117064794D01*
X193423386Y-117144710D01*
X193423385Y-117144713D01*
X193399500Y-117233853D01*
X192090500Y-117233853D01*
X192090500Y-117193853D01*
X192068141Y-117110410D01*
X192066614Y-117104712D01*
X192020469Y-117024788D01*
X191955212Y-116959531D01*
X191930645Y-116945347D01*
X191875289Y-116913386D01*
X191875286Y-116913385D01*
X191786147Y-116889500D01*
X191786144Y-116889500D01*
X191693856Y-116889500D01*
X191693853Y-116889500D01*
X191604713Y-116913385D01*
X191604710Y-116913386D01*
X191524794Y-116959527D01*
X191524784Y-116959534D01*
X191459534Y-117024784D01*
X191459527Y-117024794D01*
X191413386Y-117104710D01*
X191413385Y-117104713D01*
X191389500Y-117193853D01*
X188659674Y-117193853D01*
X188625453Y-117120465D01*
X188108323Y-116011475D01*
X188108321Y-116011473D01*
X188108321Y-116011472D01*
X188064270Y-115951394D01*
X188064269Y-115951393D01*
X188043422Y-115938742D01*
X187979074Y-115899695D01*
X187979071Y-115899694D01*
X187979070Y-115899694D01*
X187880577Y-115884535D01*
X187808219Y-115902241D01*
X187808214Y-115902243D01*
X187129078Y-116218928D01*
X187129076Y-116218930D01*
X187068997Y-116262981D01*
X187068997Y-116262982D01*
X187017298Y-116348179D01*
X187017298Y-116348180D01*
X187017297Y-116348181D01*
X187002139Y-116446674D01*
X185657134Y-116446674D01*
X185563581Y-116012135D01*
X185563121Y-116009698D01*
X185558372Y-115980469D01*
X185505309Y-115653853D01*
X190329500Y-115653853D01*
X190329500Y-115746146D01*
X190353385Y-115835286D01*
X190353386Y-115835289D01*
X190390572Y-115899695D01*
X190399531Y-115915212D01*
X190464788Y-115980469D01*
X190544712Y-116026614D01*
X190566998Y-116032585D01*
X190633853Y-116050500D01*
X190633856Y-116050500D01*
X190726146Y-116050500D01*
X190770716Y-116038557D01*
X190815288Y-116026614D01*
X190895212Y-115980469D01*
X190960469Y-115915212D01*
X191006614Y-115835288D01*
X191018557Y-115790716D01*
X191030500Y-115746146D01*
X191030500Y-115653853D01*
X191005783Y-115561610D01*
X191007227Y-115561222D01*
X191007221Y-115528696D01*
X191033733Y-115502171D01*
X191071236Y-115502163D01*
X191086413Y-115513787D01*
X191087260Y-115512941D01*
X191089531Y-115515212D01*
X191154788Y-115580469D01*
X191234712Y-115626614D01*
X191256998Y-115632585D01*
X191323853Y-115650500D01*
X191323856Y-115650500D01*
X191416146Y-115650500D01*
X191460716Y-115638557D01*
X191505288Y-115626614D01*
X191585212Y-115580469D01*
X191650469Y-115515212D01*
X191652564Y-115511583D01*
X191682315Y-115488751D01*
X191719497Y-115493644D01*
X191737435Y-115511582D01*
X191739531Y-115515212D01*
X191804788Y-115580469D01*
X191884712Y-115626614D01*
X191906998Y-115632585D01*
X191973853Y-115650500D01*
X191973856Y-115650500D01*
X192066146Y-115650500D01*
X192110716Y-115638557D01*
X192155288Y-115626614D01*
X192235212Y-115580469D01*
X192300469Y-115515212D01*
X192346614Y-115435288D01*
X192369601Y-115349500D01*
X192370500Y-115346146D01*
X192370500Y-115253853D01*
X192346614Y-115164713D01*
X192346613Y-115164710D01*
X192315044Y-115110033D01*
X192300469Y-115084788D01*
X192235212Y-115019531D01*
X192229842Y-115016430D01*
X192155289Y-114973386D01*
X192155286Y-114973385D01*
X192066147Y-114949500D01*
X192066144Y-114949500D01*
X191973856Y-114949500D01*
X191973853Y-114949500D01*
X191884713Y-114973385D01*
X191884710Y-114973386D01*
X191804794Y-115019527D01*
X191804784Y-115019534D01*
X191739534Y-115084784D01*
X191739529Y-115084791D01*
X191737434Y-115088420D01*
X191707679Y-115111248D01*
X191670497Y-115106351D01*
X191652566Y-115088420D01*
X191650472Y-115084794D01*
X191650469Y-115084788D01*
X191585212Y-115019531D01*
X191579842Y-115016430D01*
X191505289Y-114973386D01*
X191505286Y-114973385D01*
X191416147Y-114949500D01*
X191416144Y-114949500D01*
X191323856Y-114949500D01*
X191323853Y-114949500D01*
X191234713Y-114973385D01*
X191234710Y-114973386D01*
X191154794Y-115019527D01*
X191154784Y-115019534D01*
X191089534Y-115084784D01*
X191089527Y-115084794D01*
X191043386Y-115164710D01*
X191043385Y-115164713D01*
X191019500Y-115253853D01*
X191019500Y-115346146D01*
X191044217Y-115438390D01*
X191042775Y-115438776D01*
X191042772Y-115471318D01*
X191016251Y-115497834D01*
X190978748Y-115497830D01*
X190963592Y-115486206D01*
X190962740Y-115487059D01*
X190895215Y-115419534D01*
X190895212Y-115419531D01*
X190835695Y-115385168D01*
X190815289Y-115373386D01*
X190815286Y-115373385D01*
X190726147Y-115349500D01*
X190726144Y-115349500D01*
X190633856Y-115349500D01*
X190633853Y-115349500D01*
X190544713Y-115373385D01*
X190544710Y-115373386D01*
X190464794Y-115419527D01*
X190464784Y-115419534D01*
X190399534Y-115484784D01*
X190399527Y-115484794D01*
X190353386Y-115564710D01*
X190353385Y-115564713D01*
X190329500Y-115653853D01*
X185505309Y-115653853D01*
X185443321Y-115272295D01*
X185442985Y-115269831D01*
X185441219Y-115253853D01*
X185360929Y-114527286D01*
X185360719Y-114524802D01*
X185331871Y-114036925D01*
X185344153Y-114001491D01*
X185377894Y-113985119D01*
X185380786Y-113985034D01*
X186506423Y-113985034D01*
X186541071Y-113999386D01*
G37*
%TD.AperFunction*%
%TA.AperFunction,Conductor*%
G36*
X208228963Y-116552453D02*
G01*
X208241645Y-116554123D01*
X208245675Y-116559376D01*
X208251793Y-116561910D01*
X208256688Y-116573728D01*
X208264475Y-116583876D01*
X208263610Y-116590440D01*
X208266145Y-116596558D01*
X208259580Y-116621058D01*
X208216158Y-116696264D01*
X208216157Y-116696267D01*
X208192272Y-116785407D01*
X208192272Y-116877700D01*
X208216157Y-116966840D01*
X208216158Y-116966843D01*
X208221760Y-116976545D01*
X208262303Y-117046766D01*
X208327560Y-117112023D01*
X208384178Y-117144712D01*
X208407149Y-117157975D01*
X208407484Y-117158168D01*
X208428022Y-117163671D01*
X208496625Y-117182054D01*
X208496628Y-117182054D01*
X208588918Y-117182054D01*
X208639717Y-117168442D01*
X208678060Y-117158168D01*
X208757984Y-117112023D01*
X208823241Y-117046766D01*
X208869386Y-116966842D01*
X208883494Y-116914189D01*
X208893272Y-116877700D01*
X208893272Y-116785407D01*
X208893271Y-116785406D01*
X208888346Y-116767023D01*
X208893241Y-116729841D01*
X208922994Y-116707011D01*
X208960176Y-116711906D01*
X208971565Y-116720981D01*
X208979801Y-116729841D01*
X209057906Y-116813873D01*
X209058667Y-116814691D01*
X209213093Y-116929495D01*
X209385804Y-117014341D01*
X209385808Y-117014342D01*
X209385810Y-117014343D01*
X209445542Y-117031130D01*
X209571052Y-117066404D01*
X209689065Y-117077211D01*
X209722260Y-117094663D01*
X209733392Y-117130475D01*
X209715940Y-117163671D01*
X209709097Y-117168442D01*
X209652563Y-117201083D01*
X209652556Y-117201088D01*
X209587306Y-117266338D01*
X209587299Y-117266348D01*
X209541158Y-117346264D01*
X209541157Y-117346267D01*
X209517272Y-117435407D01*
X209517272Y-117527700D01*
X209541157Y-117616840D01*
X209541158Y-117616843D01*
X209580313Y-117684659D01*
X209587303Y-117696766D01*
X209652560Y-117762023D01*
X209732484Y-117808168D01*
X209754770Y-117814139D01*
X209821625Y-117832054D01*
X209821628Y-117832054D01*
X209913918Y-117832054D01*
X209958488Y-117820111D01*
X210003060Y-117808168D01*
X210082984Y-117762023D01*
X210148241Y-117696766D01*
X210194386Y-117616842D01*
X210209492Y-117560465D01*
X210218272Y-117527700D01*
X210218272Y-117446031D01*
X210232624Y-117411383D01*
X210267272Y-117397031D01*
X210301920Y-117411383D01*
X210327560Y-117437023D01*
X210407484Y-117483168D01*
X210429770Y-117489139D01*
X210496625Y-117507054D01*
X210496628Y-117507054D01*
X210588918Y-117507054D01*
X210633488Y-117495111D01*
X210678060Y-117483168D01*
X210757984Y-117437023D01*
X210768037Y-117426970D01*
X210802685Y-117412618D01*
X210837333Y-117426970D01*
X210851685Y-117461618D01*
X210851685Y-117772972D01*
X210882209Y-117846664D01*
X210882210Y-117846665D01*
X210882211Y-117846667D01*
X210938608Y-117903064D01*
X210938609Y-117903064D01*
X210938611Y-117903066D01*
X211012303Y-117933590D01*
X211092067Y-117933590D01*
X211938836Y-117933590D01*
X211973484Y-117947942D01*
X211987836Y-117982590D01*
X211981271Y-118007088D01*
X211962128Y-118040245D01*
X211951157Y-118059247D01*
X211927272Y-118148387D01*
X211927272Y-118240680D01*
X211951157Y-118329820D01*
X211951158Y-118329823D01*
X211994202Y-118404376D01*
X211997303Y-118409746D01*
X212062560Y-118475003D01*
X212142484Y-118521148D01*
X212164770Y-118527119D01*
X212231625Y-118545034D01*
X212231628Y-118545034D01*
X212323918Y-118545034D01*
X212368488Y-118533091D01*
X212413060Y-118521148D01*
X212492984Y-118475003D01*
X212558241Y-118409746D01*
X212604386Y-118329822D01*
X212626214Y-118248359D01*
X212628272Y-118240680D01*
X212628272Y-118148387D01*
X212604386Y-118059247D01*
X212604386Y-118059246D01*
X212574272Y-118007089D01*
X212569377Y-117969909D01*
X212592207Y-117940155D01*
X212616708Y-117933590D01*
X213879556Y-117933590D01*
X213914204Y-117947942D01*
X213928556Y-117982590D01*
X213925933Y-117998406D01*
X213853608Y-118210469D01*
X213795285Y-118381477D01*
X213794418Y-118383821D01*
X213760495Y-118468831D01*
X213734324Y-118495692D01*
X213696824Y-118496180D01*
X213674691Y-118477025D01*
X213674285Y-118477338D01*
X213672766Y-118475359D01*
X213672551Y-118475173D01*
X213672329Y-118474788D01*
X213607072Y-118409531D01*
X213579661Y-118393705D01*
X213527149Y-118363386D01*
X213527146Y-118363385D01*
X213438007Y-118339500D01*
X213438004Y-118339500D01*
X213345716Y-118339500D01*
X213345713Y-118339500D01*
X213256573Y-118363385D01*
X213256570Y-118363386D01*
X213176654Y-118409527D01*
X213176644Y-118409534D01*
X213111394Y-118474784D01*
X213111387Y-118474794D01*
X213065246Y-118554710D01*
X213065245Y-118554713D01*
X213041360Y-118643853D01*
X213041360Y-118736146D01*
X213065245Y-118825286D01*
X213065246Y-118825289D01*
X213077216Y-118846021D01*
X213111391Y-118905212D01*
X213176648Y-118970469D01*
X213216862Y-118993687D01*
X213239690Y-119023437D01*
X213241360Y-119036120D01*
X213241360Y-119163008D01*
X213237356Y-119182408D01*
X213230707Y-119197830D01*
X213227885Y-119204375D01*
X213217537Y-119219622D01*
X211832012Y-120605148D01*
X211797364Y-120619500D01*
X211385934Y-120619500D01*
X211351286Y-120605148D01*
X211336934Y-120570500D01*
X211343499Y-120546000D01*
X211364385Y-120509824D01*
X211364385Y-120509823D01*
X211364386Y-120509822D01*
X211384357Y-120435289D01*
X211388272Y-120420680D01*
X211388272Y-120328387D01*
X211364386Y-120239247D01*
X211364385Y-120239244D01*
X211352849Y-120219265D01*
X211318241Y-120159322D01*
X211252984Y-120094065D01*
X211238452Y-120085675D01*
X211173061Y-120047920D01*
X211173058Y-120047919D01*
X211083919Y-120024034D01*
X211083916Y-120024034D01*
X210991628Y-120024034D01*
X210991625Y-120024034D01*
X210902485Y-120047919D01*
X210902482Y-120047920D01*
X210822566Y-120094061D01*
X210822556Y-120094068D01*
X210757306Y-120159318D01*
X210757299Y-120159328D01*
X210711158Y-120239244D01*
X210711157Y-120239247D01*
X210687272Y-120328387D01*
X210687272Y-120420680D01*
X210711157Y-120509820D01*
X210711158Y-120509824D01*
X210732045Y-120546000D01*
X210736940Y-120583182D01*
X210714110Y-120612935D01*
X210689610Y-120619500D01*
X209804540Y-120619500D01*
X209769892Y-120605148D01*
X209750411Y-120585667D01*
X209750408Y-120585664D01*
X209705653Y-120559824D01*
X209670485Y-120539519D01*
X209670482Y-120539518D01*
X209581343Y-120515633D01*
X209581340Y-120515633D01*
X209489052Y-120515633D01*
X209489049Y-120515633D01*
X209399909Y-120539518D01*
X209399906Y-120539519D01*
X209319990Y-120585660D01*
X209319980Y-120585667D01*
X209254730Y-120650917D01*
X209254723Y-120650927D01*
X209208582Y-120730843D01*
X209208581Y-120730846D01*
X209184696Y-120819986D01*
X209184696Y-120912279D01*
X209208581Y-121001419D01*
X209208582Y-121001422D01*
X209225371Y-121030500D01*
X209254727Y-121081345D01*
X209319984Y-121146602D01*
X209370076Y-121175523D01*
X209388102Y-121185931D01*
X209399908Y-121192747D01*
X209414336Y-121196613D01*
X209489049Y-121216633D01*
X209489052Y-121216633D01*
X209581342Y-121216633D01*
X209641549Y-121200500D01*
X209670484Y-121192747D01*
X209750408Y-121146602D01*
X209815665Y-121081345D01*
X209859577Y-121005288D01*
X209861809Y-121001423D01*
X209861811Y-121001419D01*
X209870573Y-120968718D01*
X209873762Y-120956818D01*
X209896592Y-120927065D01*
X209921092Y-120920500D01*
X210818629Y-120920500D01*
X210837380Y-120924229D01*
X210841736Y-120926034D01*
X210841738Y-120926034D01*
X211233806Y-120926034D01*
X211233808Y-120926034D01*
X211238163Y-120924229D01*
X211256915Y-120920500D01*
X211909934Y-120920500D01*
X211909936Y-120920500D01*
X211932848Y-120911009D01*
X211965252Y-120897588D01*
X213088652Y-119774185D01*
X213123300Y-119759834D01*
X213157948Y-119774186D01*
X213172300Y-119808834D01*
X213166725Y-119831534D01*
X212857489Y-120423100D01*
X212856275Y-120425284D01*
X212476899Y-121068827D01*
X212475576Y-121070946D01*
X212063886Y-121694320D01*
X212062456Y-121696370D01*
X211619517Y-122297954D01*
X211617985Y-122299927D01*
X211387426Y-122581761D01*
X211354379Y-122599491D01*
X211318474Y-122588661D01*
X211300744Y-122555614D01*
X211300500Y-122550735D01*
X211300500Y-122493853D01*
X211278660Y-122412347D01*
X211276614Y-122404712D01*
X211230469Y-122324788D01*
X211165212Y-122259531D01*
X211147047Y-122249043D01*
X211085289Y-122213386D01*
X211085286Y-122213385D01*
X210996147Y-122189500D01*
X210996144Y-122189500D01*
X210903856Y-122189500D01*
X210903853Y-122189500D01*
X210814713Y-122213385D01*
X210814710Y-122213386D01*
X210734794Y-122259527D01*
X210734784Y-122259534D01*
X210669534Y-122324784D01*
X210669527Y-122324794D01*
X210623386Y-122404710D01*
X210623385Y-122404713D01*
X210599500Y-122493853D01*
X210599500Y-122586146D01*
X210623385Y-122675286D01*
X210623386Y-122675289D01*
X210646921Y-122716051D01*
X210669531Y-122755212D01*
X210734788Y-122820469D01*
X210775002Y-122843687D01*
X210779031Y-122848938D01*
X210785148Y-122851472D01*
X210790042Y-122863287D01*
X210797830Y-122873437D01*
X210799500Y-122886120D01*
X210799500Y-122907363D01*
X210785148Y-122942011D01*
X209974148Y-123753011D01*
X209939500Y-123767363D01*
X209904852Y-123753011D01*
X209890500Y-123718363D01*
X209890500Y-123663853D01*
X209869535Y-123585613D01*
X209866614Y-123574712D01*
X209820469Y-123494788D01*
X209755212Y-123429531D01*
X209720518Y-123409500D01*
X209675289Y-123383386D01*
X209675286Y-123383385D01*
X209586147Y-123359500D01*
X209586144Y-123359500D01*
X209493856Y-123359500D01*
X209493853Y-123359500D01*
X209404713Y-123383385D01*
X209404710Y-123383386D01*
X209324794Y-123429527D01*
X209324784Y-123429534D01*
X209259534Y-123494784D01*
X209259527Y-123494794D01*
X209213386Y-123574710D01*
X209213385Y-123574713D01*
X209189500Y-123663853D01*
X209189500Y-123756146D01*
X209213385Y-123845286D01*
X209213386Y-123845289D01*
X209234230Y-123881390D01*
X209259531Y-123925212D01*
X209324788Y-123990469D01*
X209404712Y-124036614D01*
X209426998Y-124042585D01*
X209493853Y-124060500D01*
X209548364Y-124060500D01*
X209583012Y-124074852D01*
X209597364Y-124109500D01*
X209583012Y-124144148D01*
X209472012Y-124255148D01*
X209437364Y-124269500D01*
X207026949Y-124269500D01*
X206992301Y-124255148D01*
X206843321Y-124106167D01*
X206828969Y-124071519D01*
X206830639Y-124058836D01*
X206842657Y-124013988D01*
X206842657Y-123921696D01*
X206818771Y-123832556D01*
X206818770Y-123832553D01*
X206807234Y-123812574D01*
X206772626Y-123752631D01*
X206707369Y-123687374D01*
X206701999Y-123684273D01*
X206627446Y-123641229D01*
X206627443Y-123641228D01*
X206538304Y-123617343D01*
X206538301Y-123617343D01*
X206446013Y-123617343D01*
X206446007Y-123617343D01*
X206445885Y-123617359D01*
X206445825Y-123617343D01*
X206442802Y-123617343D01*
X206442802Y-123616532D01*
X206409662Y-123607645D01*
X206390918Y-123575162D01*
X206390500Y-123568777D01*
X206390500Y-122893853D01*
X207825185Y-122893853D01*
X207825185Y-122986146D01*
X207849070Y-123075286D01*
X207849071Y-123075289D01*
X207859960Y-123094148D01*
X207895216Y-123155212D01*
X207960473Y-123220469D01*
X208040397Y-123266614D01*
X208062683Y-123272585D01*
X208129538Y-123290500D01*
X208129541Y-123290500D01*
X208221831Y-123290500D01*
X208273391Y-123276684D01*
X208310973Y-123266614D01*
X208390897Y-123220469D01*
X208456154Y-123155212D01*
X208502299Y-123075288D01*
X208517807Y-123017411D01*
X208526185Y-122986146D01*
X208526185Y-122893853D01*
X208502299Y-122804713D01*
X208502298Y-122804710D01*
X208473721Y-122755215D01*
X208456154Y-122724788D01*
X208390897Y-122659531D01*
X208385527Y-122656430D01*
X208310974Y-122613386D01*
X208310971Y-122613385D01*
X208221832Y-122589500D01*
X208221829Y-122589500D01*
X208129541Y-122589500D01*
X208129538Y-122589500D01*
X208040398Y-122613385D01*
X208040395Y-122613386D01*
X207960479Y-122659527D01*
X207960469Y-122659534D01*
X207895219Y-122724784D01*
X207895212Y-122724794D01*
X207849071Y-122804710D01*
X207849070Y-122804713D01*
X207825185Y-122893853D01*
X206390500Y-122893853D01*
X206390500Y-122313853D01*
X207129500Y-122313853D01*
X207129500Y-122406146D01*
X207153385Y-122495286D01*
X207153386Y-122495289D01*
X207196430Y-122569842D01*
X207199531Y-122575212D01*
X207264788Y-122640469D01*
X207297797Y-122659527D01*
X207342283Y-122685212D01*
X207344712Y-122686614D01*
X207366998Y-122692585D01*
X207433853Y-122710500D01*
X207433856Y-122710500D01*
X207526146Y-122710500D01*
X207570716Y-122698557D01*
X207615288Y-122686614D01*
X207695212Y-122640469D01*
X207760469Y-122575212D01*
X207806614Y-122495288D01*
X207820824Y-122442257D01*
X207830500Y-122406146D01*
X207830500Y-122313853D01*
X207810891Y-122240673D01*
X207806614Y-122224712D01*
X207760469Y-122144788D01*
X207695212Y-122079531D01*
X207689842Y-122076430D01*
X207615289Y-122033386D01*
X207615286Y-122033385D01*
X207526147Y-122009500D01*
X207526144Y-122009500D01*
X207433856Y-122009500D01*
X207433853Y-122009500D01*
X207344713Y-122033385D01*
X207344710Y-122033386D01*
X207264794Y-122079527D01*
X207264784Y-122079534D01*
X207199534Y-122144784D01*
X207199527Y-122144794D01*
X207153386Y-122224710D01*
X207153385Y-122224713D01*
X207129500Y-122313853D01*
X206390500Y-122313853D01*
X206390500Y-121784477D01*
X206404852Y-121749829D01*
X206439500Y-121735477D01*
X206474148Y-121749829D01*
X206484788Y-121760469D01*
X206564712Y-121806614D01*
X206586998Y-121812585D01*
X206653853Y-121830500D01*
X206653856Y-121830500D01*
X206746146Y-121830500D01*
X206803050Y-121815252D01*
X206835288Y-121806614D01*
X206915212Y-121760469D01*
X206980469Y-121695212D01*
X206994769Y-121670445D01*
X209905435Y-121670445D01*
X209905435Y-121762738D01*
X209929320Y-121851878D01*
X209929321Y-121851881D01*
X209960079Y-121905153D01*
X209975466Y-121931804D01*
X210040723Y-121997061D01*
X210120647Y-122043206D01*
X210142933Y-122049177D01*
X210209788Y-122067092D01*
X210209791Y-122067092D01*
X210302081Y-122067092D01*
X210346651Y-122055149D01*
X210391223Y-122043206D01*
X210471147Y-121997061D01*
X210536404Y-121931804D01*
X210582549Y-121851880D01*
X210601671Y-121780517D01*
X210606435Y-121762738D01*
X210606435Y-121670445D01*
X210582549Y-121581305D01*
X210582548Y-121581302D01*
X210571012Y-121561323D01*
X210536404Y-121501380D01*
X210471147Y-121436123D01*
X210465777Y-121433022D01*
X210391224Y-121389978D01*
X210391221Y-121389977D01*
X210302082Y-121366092D01*
X210302079Y-121366092D01*
X210209791Y-121366092D01*
X210209788Y-121366092D01*
X210120648Y-121389977D01*
X210120645Y-121389978D01*
X210040729Y-121436119D01*
X210040719Y-121436126D01*
X209975469Y-121501376D01*
X209975462Y-121501386D01*
X209929321Y-121581302D01*
X209929320Y-121581305D01*
X209905435Y-121670445D01*
X206994769Y-121670445D01*
X207008095Y-121647364D01*
X207010767Y-121642736D01*
X207026613Y-121615290D01*
X207026613Y-121615289D01*
X207026614Y-121615288D01*
X207047821Y-121536144D01*
X207050500Y-121526146D01*
X207050500Y-121433852D01*
X207026614Y-121344713D01*
X207026613Y-121344710D01*
X206998005Y-121295161D01*
X206980469Y-121264788D01*
X206915212Y-121199531D01*
X206873630Y-121175523D01*
X206835289Y-121153386D01*
X206835286Y-121153385D01*
X206746147Y-121129500D01*
X206746144Y-121129500D01*
X206653856Y-121129500D01*
X206653853Y-121129500D01*
X206564713Y-121153385D01*
X206564710Y-121153386D01*
X206484794Y-121199527D01*
X206484784Y-121199534D01*
X206474148Y-121210171D01*
X206439500Y-121224523D01*
X206404852Y-121210171D01*
X206390500Y-121175523D01*
X206390500Y-120923533D01*
X206404852Y-120888885D01*
X206439500Y-120874533D01*
X206474148Y-120888885D01*
X206478376Y-120893705D01*
X206479527Y-120895205D01*
X206479531Y-120895212D01*
X206544788Y-120960469D01*
X206575970Y-120978472D01*
X206615717Y-121001421D01*
X206624712Y-121006614D01*
X206646998Y-121012585D01*
X206713853Y-121030500D01*
X206713856Y-121030500D01*
X206806146Y-121030500D01*
X206855168Y-121017364D01*
X206895288Y-121006614D01*
X206975212Y-120960469D01*
X207040469Y-120895212D01*
X207068065Y-120847414D01*
X207097818Y-120824585D01*
X207135000Y-120829480D01*
X207157830Y-120859233D01*
X207159500Y-120871915D01*
X207159500Y-120916146D01*
X207183385Y-121005286D01*
X207183386Y-121005289D01*
X207211920Y-121054710D01*
X207229531Y-121085212D01*
X207294788Y-121150469D01*
X207338182Y-121175523D01*
X207368012Y-121192746D01*
X207374712Y-121196614D01*
X207385610Y-121199534D01*
X207463853Y-121220500D01*
X207463856Y-121220500D01*
X207556146Y-121220500D01*
X207600716Y-121208557D01*
X207645288Y-121196614D01*
X207725212Y-121150469D01*
X207790469Y-121085212D01*
X207836614Y-121005288D01*
X207848698Y-120960189D01*
X207860500Y-120916146D01*
X207860500Y-120823853D01*
X207840905Y-120750728D01*
X207836614Y-120734712D01*
X207790469Y-120654788D01*
X207725212Y-120589531D01*
X207709522Y-120580472D01*
X207645289Y-120543386D01*
X207645286Y-120543385D01*
X207556147Y-120519500D01*
X207556144Y-120519500D01*
X207463856Y-120519500D01*
X207463853Y-120519500D01*
X207374713Y-120543385D01*
X207374710Y-120543386D01*
X207294794Y-120589527D01*
X207294784Y-120589534D01*
X207229534Y-120654784D01*
X207229527Y-120654794D01*
X207201935Y-120702584D01*
X207172182Y-120725415D01*
X207135000Y-120720519D01*
X207112169Y-120690766D01*
X207110500Y-120678084D01*
X207110500Y-120633853D01*
X207086614Y-120544713D01*
X207086613Y-120544710D01*
X207054556Y-120489187D01*
X207040469Y-120464788D01*
X206975212Y-120399531D01*
X206947988Y-120383813D01*
X206895289Y-120353386D01*
X206895286Y-120353385D01*
X206806147Y-120329500D01*
X206806144Y-120329500D01*
X206713856Y-120329500D01*
X206713853Y-120329500D01*
X206624713Y-120353385D01*
X206624710Y-120353386D01*
X206544794Y-120399527D01*
X206544784Y-120399534D01*
X206479530Y-120464788D01*
X206478372Y-120466298D01*
X206477541Y-120466777D01*
X206477260Y-120467059D01*
X206477184Y-120466983D01*
X206445892Y-120485047D01*
X206409668Y-120475338D01*
X206390919Y-120442858D01*
X206390500Y-120436466D01*
X206390500Y-120302635D01*
X206404852Y-120267987D01*
X207157987Y-119514852D01*
X207192635Y-119500500D01*
X207533879Y-119500500D01*
X207568527Y-119514852D01*
X207576314Y-119525000D01*
X207599527Y-119565206D01*
X207599529Y-119565208D01*
X207599531Y-119565212D01*
X207664788Y-119630469D01*
X207744712Y-119676614D01*
X207766998Y-119682585D01*
X207833853Y-119700500D01*
X207833856Y-119700500D01*
X207926146Y-119700500D01*
X207970716Y-119688557D01*
X208015288Y-119676614D01*
X208095212Y-119630469D01*
X208160469Y-119565212D01*
X208206614Y-119485288D01*
X208221496Y-119429749D01*
X208230500Y-119396146D01*
X208230500Y-119303855D01*
X208229750Y-119301057D01*
X208234644Y-119263875D01*
X208264396Y-119241043D01*
X208301578Y-119245937D01*
X208301580Y-119245938D01*
X208354710Y-119276613D01*
X208354712Y-119276614D01*
X208376998Y-119282585D01*
X208443853Y-119300500D01*
X208443856Y-119300500D01*
X208536146Y-119300500D01*
X208580716Y-119288557D01*
X208625288Y-119276614D01*
X208705212Y-119230469D01*
X208767294Y-119168387D01*
X209907272Y-119168387D01*
X209907272Y-119260680D01*
X209931157Y-119349820D01*
X209931158Y-119349823D01*
X209974202Y-119424376D01*
X209977303Y-119429746D01*
X210042560Y-119495003D01*
X210122484Y-119541148D01*
X210144770Y-119547119D01*
X210211625Y-119565034D01*
X210211628Y-119565034D01*
X210303918Y-119565034D01*
X210348488Y-119553091D01*
X210393060Y-119541148D01*
X210472984Y-119495003D01*
X210538241Y-119429746D01*
X210584386Y-119349822D01*
X210604002Y-119276614D01*
X210608272Y-119260680D01*
X210608272Y-119190461D01*
X210817272Y-119190461D01*
X210817272Y-119318606D01*
X210842269Y-119444271D01*
X210842270Y-119444276D01*
X210882396Y-119541147D01*
X210891307Y-119562661D01*
X210962496Y-119669203D01*
X211053103Y-119759810D01*
X211159645Y-119830999D01*
X211278028Y-119880035D01*
X211403703Y-119905034D01*
X211531841Y-119905034D01*
X211657516Y-119880035D01*
X211775899Y-119830999D01*
X211882441Y-119759810D01*
X211973048Y-119669203D01*
X212044237Y-119562661D01*
X212093273Y-119444278D01*
X212118272Y-119318603D01*
X212118272Y-119190465D01*
X212093273Y-119064790D01*
X212044237Y-118946407D01*
X211973048Y-118839865D01*
X211882441Y-118749258D01*
X211882243Y-118749126D01*
X211829529Y-118713904D01*
X211775899Y-118678069D01*
X211773203Y-118676952D01*
X211657514Y-118629032D01*
X211657509Y-118629031D01*
X211531844Y-118604034D01*
X211531841Y-118604034D01*
X211403703Y-118604034D01*
X211403699Y-118604034D01*
X211278034Y-118629031D01*
X211278029Y-118629032D01*
X211159646Y-118678068D01*
X211053103Y-118749257D01*
X210962495Y-118839865D01*
X210891306Y-118946408D01*
X210842270Y-119064791D01*
X210842269Y-119064796D01*
X210817272Y-119190461D01*
X210608272Y-119190461D01*
X210608272Y-119168387D01*
X210584386Y-119079247D01*
X210584385Y-119079244D01*
X210552164Y-119023437D01*
X210538241Y-118999322D01*
X210472984Y-118934065D01*
X210440923Y-118915554D01*
X210393061Y-118887920D01*
X210393058Y-118887919D01*
X210303919Y-118864034D01*
X210303916Y-118864034D01*
X210211628Y-118864034D01*
X210211625Y-118864034D01*
X210122485Y-118887919D01*
X210122482Y-118887920D01*
X210042566Y-118934061D01*
X210042556Y-118934068D01*
X209977306Y-118999318D01*
X209977299Y-118999328D01*
X209931158Y-119079244D01*
X209931157Y-119079247D01*
X209907272Y-119168387D01*
X208767294Y-119168387D01*
X208770469Y-119165212D01*
X208816614Y-119085288D01*
X208829786Y-119036129D01*
X208840500Y-118996146D01*
X208840500Y-118903853D01*
X208816614Y-118814713D01*
X208816613Y-118814710D01*
X208788544Y-118766094D01*
X208770469Y-118734788D01*
X208705212Y-118669531D01*
X208699842Y-118666430D01*
X208625289Y-118623386D01*
X208625286Y-118623385D01*
X208536147Y-118599500D01*
X208536144Y-118599500D01*
X208443856Y-118599500D01*
X208443853Y-118599500D01*
X208354713Y-118623385D01*
X208354710Y-118623386D01*
X208274794Y-118669527D01*
X208274784Y-118669534D01*
X208209534Y-118734784D01*
X208209527Y-118734794D01*
X208163386Y-118814710D01*
X208163385Y-118814713D01*
X208139500Y-118903853D01*
X208139500Y-118996147D01*
X208140250Y-118998947D01*
X208135353Y-119036129D01*
X208105598Y-119058957D01*
X208068419Y-119054061D01*
X208015290Y-119023386D01*
X208015286Y-119023385D01*
X207926147Y-118999500D01*
X207926144Y-118999500D01*
X207833856Y-118999500D01*
X207833853Y-118999500D01*
X207744713Y-119023385D01*
X207744710Y-119023386D01*
X207664794Y-119069527D01*
X207664784Y-119069534D01*
X207599534Y-119134784D01*
X207599527Y-119134793D01*
X207576314Y-119175000D01*
X207546561Y-119197830D01*
X207533879Y-119199500D01*
X207080064Y-119199500D01*
X207052406Y-119210955D01*
X207052406Y-119210956D01*
X207031485Y-119219622D01*
X207024747Y-119222413D01*
X207024746Y-119222414D01*
X206112414Y-120134745D01*
X206112411Y-120134750D01*
X206102740Y-120158101D01*
X206102739Y-120158103D01*
X206089500Y-120190062D01*
X206089500Y-120254492D01*
X206075148Y-120289140D01*
X206040500Y-120303492D01*
X206005852Y-120289140D01*
X205998065Y-120278992D01*
X205970524Y-120231290D01*
X205970521Y-120231287D01*
X205970520Y-120231284D01*
X205858716Y-120119480D01*
X205858713Y-120119478D01*
X205858709Y-120119475D01*
X205783353Y-120075969D01*
X205760523Y-120046216D01*
X205765418Y-120009034D01*
X205795171Y-119986204D01*
X205807853Y-119984534D01*
X205907772Y-119984534D01*
X205907772Y-117982590D01*
X205922124Y-117947942D01*
X205956772Y-117933590D01*
X206074760Y-117933590D01*
X206074762Y-117933590D01*
X206148454Y-117903066D01*
X206148456Y-117903064D01*
X206148457Y-117903064D01*
X206204854Y-117846667D01*
X206204854Y-117846666D01*
X206204856Y-117846664D01*
X206235380Y-117772972D01*
X206235380Y-116883346D01*
X206249732Y-116848698D01*
X206284380Y-116834346D01*
X207545529Y-116834346D01*
X207567534Y-116838226D01*
X207585035Y-116834346D01*
X207602956Y-116834346D01*
X207623596Y-116825796D01*
X207645407Y-116820961D01*
X207660086Y-116810681D01*
X207665044Y-116808628D01*
X207665046Y-116808627D01*
X207676648Y-116803822D01*
X207689416Y-116791052D01*
X207695946Y-116785571D01*
X208023213Y-116556418D01*
X208051318Y-116547558D01*
X208217145Y-116547558D01*
X208228963Y-116552453D01*
G37*
%TD.AperFunction*%
%TD*%
M02*
