%TF.GenerationSoftware,KiCad,Pcbnew,9.0.0*%
%TF.CreationDate,2025-08-30T10:43:31+02:00*%
%TF.ProjectId,36mm PCB,33366d6d-2050-4434-922e-6b696361645f,rev?*%
%TF.SameCoordinates,Original*%
%TF.FileFunction,Legend,Top*%
%TF.FilePolarity,Positive*%
%FSLAX46Y46*%
G04 Gerber Fmt 4.6, Leading zero omitted, Abs format (unit mm)*
G04 Created by KiCad (PCBNEW 9.0.0) date 2025-08-30 10:43:31*
%MOMM*%
%LPD*%
G01*
G04 APERTURE LIST*
%ADD10C,0.250000*%
%ADD11C,0.100000*%
%ADD12C,0.200000*%
%ADD13C,0.120000*%
G04 APERTURE END LIST*
D10*
X191385340Y-114593200D02*
X192147245Y-114593200D01*
X191766292Y-114974153D02*
X191766292Y-114212248D01*
X185685340Y-114593200D02*
X186447245Y-114593200D01*
D11*
%TO.C,D2*%
X194611151Y-116241082D02*
G75*
G02*
X194511149Y-116241082I-50001J0D01*
G01*
X194511149Y-116241082D02*
G75*
G02*
X194611151Y-116241082I50001J0D01*
G01*
D12*
%TO.C,IC2*%
X199512000Y-122617000D02*
X201227000Y-122617000D01*
X199512000Y-123875000D02*
X199512000Y-122617000D01*
X199969000Y-124332000D02*
X199511000Y-123874000D01*
X201227000Y-122617000D02*
X201227000Y-124332000D01*
X201227000Y-124332000D02*
X199969000Y-124332000D01*
X199612000Y-124333000D02*
G75*
G02*
X199412000Y-124333000I-100000J0D01*
G01*
X199412000Y-124333000D02*
G75*
G02*
X199612000Y-124333000I100000J0D01*
G01*
%TO.C,IC3*%
X205019000Y-121955000D02*
X205490000Y-121484000D01*
X205019000Y-124026000D02*
X205019000Y-121955000D01*
X205490000Y-121484000D02*
X207561000Y-121484000D01*
X207561000Y-121484000D02*
X207561000Y-124026000D01*
X207561000Y-124026000D02*
X205019000Y-124026000D01*
X205119000Y-121484000D02*
G75*
G02*
X204919000Y-121484000I-100000J0D01*
G01*
X204919000Y-121484000D02*
G75*
G02*
X205119000Y-121484000I100000J0D01*
G01*
D11*
%TO.C,IC4*%
X194881830Y-118052014D02*
X194881830Y-118052014D01*
X194972461Y-118009753D02*
X194972461Y-118009753D01*
X194881830Y-118052014D02*
G75*
G02*
X194972461Y-118009753I45315J21131D01*
G01*
X194972461Y-118009753D02*
G75*
G02*
X194881830Y-118052014I-45316J-21130D01*
G01*
D12*
%TO.C,IC10*%
X192160000Y-122665000D02*
G75*
G02*
X191960000Y-122665000I-100000J0D01*
G01*
X191960000Y-122665000D02*
G75*
G02*
X192160000Y-122665000I100000J0D01*
G01*
D13*
%TO.C,TPS3424-1*%
X191766635Y-115678515D02*
X190815012Y-116122264D01*
X192747109Y-117781149D02*
X191568909Y-118330553D01*
X190488741Y-116274407D02*
X190234975Y-116392740D01*
X190370408Y-116020641D01*
X190488741Y-116274407D01*
G36*
X190488741Y-116274407D02*
G01*
X190234975Y-116392740D01*
X190370408Y-116020641D01*
X190488741Y-116274407D01*
G37*
D12*
%TO.C,IC8*%
X192255000Y-120505000D02*
G75*
G02*
X192055000Y-120505000I-100000J0D01*
G01*
X192055000Y-120505000D02*
G75*
G02*
X192255000Y-120505000I100000J0D01*
G01*
D11*
%TO.C,IC1*%
X205687772Y-118709534D02*
G75*
G02*
X205587772Y-118709534I-50000J0D01*
G01*
X205587772Y-118709534D02*
G75*
G02*
X205687772Y-118709534I50000J0D01*
G01*
%TO.C,U1*%
X198259367Y-120023144D02*
X198259367Y-120023144D01*
X198337083Y-119960213D02*
X198337083Y-119960213D01*
X198259367Y-120023144D02*
G75*
G02*
X198337082Y-119960214I38858J31464D01*
G01*
X198337083Y-119960213D02*
G75*
G02*
X198259367Y-120023144I-38858J-31465D01*
G01*
D12*
%TO.C,IC7*%
X195220000Y-120395000D02*
G75*
G02*
X195020000Y-120395000I-100000J0D01*
G01*
X195020000Y-120395000D02*
G75*
G02*
X195220000Y-120395000I100000J0D01*
G01*
D10*
%TO.C,IC5*%
X194349724Y-122170652D02*
G75*
G02*
X194099722Y-122170652I-125001J0D01*
G01*
X194099722Y-122170652D02*
G75*
G02*
X194349724Y-122170652I125001J0D01*
G01*
D13*
%TO.C,LDLN025PU1*%
X195230727Y-117112612D02*
X196137035Y-116689993D01*
X195528465Y-115384910D02*
X194622157Y-115807529D01*
X196484388Y-116748696D02*
X196366055Y-116494930D01*
X196619821Y-116376596D01*
X196484388Y-116748696D01*
G36*
X196484388Y-116748696D02*
G01*
X196366055Y-116494930D01*
X196619821Y-116376596D01*
X196484388Y-116748696D01*
G37*
D12*
%TO.C,IC9*%
X193795000Y-121165000D02*
G75*
G02*
X193595000Y-121165000I-100000J0D01*
G01*
X193595000Y-121165000D02*
G75*
G02*
X193795000Y-121165000I100000J0D01*
G01*
%TD*%
M02*
