M48
; DRILL file {KiCad 9.0.0} date 2025-08-30T10:43:27+0200
; FORMAT={-:-/ absolute / metric / decimal}
; #@! TF.CreationDate,2025-08-30T10:43:27+02:00
; #@! TF.GenerationSoftware,Kicad,Pcbnew,9.0.0
; #@! TF.FileFunction,Plated,1,8,PTH
FMAT,2
METRIC
; #@! TA.AperFunction,Plated,PTH,ViaDrill
T1C0.300
; #@! TA.AperFunction,Plated,PTH,ComponentDrill
T2C0.300
; #@! TA.AperFunction,Plated,PTH,ComponentDrill
T3C0.700
; #@! TA.AperFunction,Plated,PTH,ComponentDrill
T4C0.750
%
G90
G05
T1
X190.68Y-115.7
X191.37Y-115.3
X191.74Y-117.24
X192.02Y-115.3
X193.69Y-125.99
X193.75Y-117.28
X194.347Y-117.023
X194.734Y-116.564
X195.19Y-117.6
X196.12Y-126.55
X196.21Y-117.93
X196.52Y-116.84
X198.74Y-118.631
X199.551Y-123.259
X199.57Y-122.409
X199.59Y-124.35
X199.6Y-121.49
X200.51Y-120.3
X202.41Y-118.475
X204.048Y-120.425
X204.46Y-124.65
X204.77Y-119.39
X205.07Y-122.47
X205.11Y-124.06
X205.797Y-123.98
X206.025Y-118.735
X206.492Y-123.968
X206.7Y-121.48
X206.76Y-120.68
X207.48Y-122.36
X207.51Y-120.87
X207.88Y-119.35
X208.176Y-122.94
X208.49Y-118.95
X208.978Y-119.705
X209.01Y-123.3
X209.535Y-120.866
X209.54Y-123.71
X210.256Y-121.717
X210.258Y-119.215
X210.95Y-122.54
X211.038Y-120.375
X212.278Y-118.195
X213.392Y-118.69
T2
X187.849Y-116.877
X189.455Y-120.321
X204.37Y-121.3
X205.49Y-120.6
X208.543Y-116.832
X209.118Y-117.265
X209.868Y-117.482
X210.543Y-117.157
T3
X187.633Y-114.51
X190.058Y-114.51
T4
X186.437Y-117.397
X188.149Y-121.068
M30
