%TF.GenerationSoftware,KiCad,Pcbnew,9.0.0*%
%TF.CreationDate,2025-08-30T10:43:31+02:00*%
%TF.ProjectId,36mm PCB,33366d6d-2050-4434-922e-6b696361645f,rev?*%
%TF.SameCoordinates,Original*%
%TF.FileFunction,Profile,NP*%
%FSLAX46Y46*%
G04 Gerber Fmt 4.6, Leading zero omitted, Abs format (unit mm)*
G04 Created by KiCad (PCBNEW 9.0.0) date 2025-08-30 10:43:31*
%MOMM*%
%LPD*%
G01*
G04 APERTURE LIST*
%TA.AperFunction,Profile*%
%ADD10C,0.100000*%
%TD*%
G04 APERTURE END LIST*
D10*
X192577094Y-114502552D02*
X192085265Y-114114244D01*
X211052185Y-116347058D02*
X210550893Y-116347058D01*
X201983969Y-119910111D02*
X201983969Y-122303710D01*
X202305677Y-119916425D02*
G75*
G02*
X202164802Y-119805722I3723J149725D01*
G01*
X210550893Y-116347058D02*
G75*
G02*
X208974459Y-116347058I-788217J318082D01*
G01*
X203633969Y-121278843D02*
G75*
G02*
X202983260Y-122105161I-850069J43D01*
G01*
X185116166Y-113784534D02*
X192345576Y-113784534D01*
X193091793Y-116343816D02*
G75*
G02*
X192577097Y-114502552I7135607J2987216D01*
G01*
X202983257Y-122105150D02*
G75*
G02*
X201983969Y-122303709I-2948757J12226350D01*
G01*
X202164750Y-119805736D02*
X201983969Y-119910111D01*
X211917772Y-119254534D02*
G75*
G02*
X211017772Y-119254534I-450000J0D01*
G01*
X211017772Y-119254534D02*
G75*
G02*
X211917772Y-119254534I450000J0D01*
G01*
X201314746Y-118554984D02*
X201613891Y-117733090D01*
X207972650Y-116347058D02*
X208974459Y-116347058D01*
X211052185Y-117733090D02*
X214228191Y-117733090D01*
X192345576Y-113784534D02*
X192085265Y-114114244D01*
X193091793Y-116343816D02*
X195288342Y-115075638D01*
X207563074Y-116633846D02*
X207972650Y-116347058D01*
X203847772Y-119254534D02*
G75*
G02*
X202947772Y-119254534I-450000J0D01*
G01*
X202947772Y-119254534D02*
G75*
G02*
X203847772Y-119254534I450000J0D01*
G01*
X206034880Y-117733090D02*
X201613891Y-117733090D01*
X206034880Y-117733090D02*
X206034880Y-116633846D01*
X202305677Y-119916425D02*
G75*
G02*
X203633916Y-121278843I-34677J-1362475D01*
G01*
X211052185Y-116347058D02*
X211052185Y-117733090D01*
X195288342Y-115075638D02*
X201314746Y-118554984D01*
X206034880Y-116633846D02*
X207563074Y-116633846D01*
X214228191Y-117733090D02*
G75*
G02*
X185116162Y-113784534I-14220421J4448550D01*
G01*
M02*
